/* XPM */
static char *result[] = {
/* columns rows colors chars-per-pixel */
"64 64 254 2 ",
"   c #160712",
".  c #150E15",
"X  c #1A0D15",
"o  c #1C0F19",
"O  c #0F1014",
"+  c #141417",
"@  c #181316",
"#  c #15151A",
"$  c #1C141B",
"%  c #141B1C",
"&  c #1B1A1D",
"*  c #230C19",
"=  c #22151D",
"-  c #22191E",
";  c #2A181F",
":  c #0E241D",
">  c #15231E",
",  c #15261F",
"<  c #1A1D22",
"1  c #221622",
"2  c #2A1526",
"3  c #251B22",
"4  c #291D24",
"5  c #261C2A",
"6  c #2B1D2A",
"7  c #321D2B",
"8  c #371D2A",
"9  c #331E33",
"0  c #0E2A23",
"q  c #152422",
"w  c #1C2323",
"e  c #122B23",
"r  c #1A2C25",
"t  c #1E292A",
"y  c #0C3726",
"u  c #0D3C2C",
"i  c #133225",
"p  c #13342B",
"a  c #1B342C",
"s  c #173A2B",
"d  c #133B2C",
"f  c #1D3635",
"g  c #123831",
"h  c #1B3B33",
"j  c #232224",
"k  c #2B2126",
"l  c #242927",
"z  c #24232A",
"x  c #2D232B",
"c  c #232B2B",
"v  c #2B2C2C",
"b  c #32242D",
"n  c #3B242D",
"m  c #34292E",
"M  c #382B2F",
"N  c #23332D",
"B  c #2A332E",
"V  c #233A2D",
"C  c #33302F",
"Z  c #2E2331",
"A  c #242C31",
"S  c #2B2C32",
"D  c #342632",
"F  c #3A2532",
"G  c #352A32",
"H  c #3A2B35",
"J  c #382B3A",
"K  c #3C2D39",
"L  c #243533",
"P  c #2B3534",
"I  c #2B3736",
"U  c #233B33",
"Y  c #233A39",
"T  c #2D3D3B",
"R  c #343636",
"E  c #3C3236",
"W  c #3D323A",
"Q  c #323C3B",
"!  c #3C3A3C",
"~  c #462537",
"^  c #422C35",
"/  c #422D3B",
"(  c #482E3B",
")  c #423136",
"_  c #43333C",
"`  c #4A343D",
"'  c #443A3E",
"]  c #4A393F",
"[  c #0B442B",
"{  c #0A482A",
"}  c #13422C",
"|  c #154A2B",
" . c #0B562E",
".. c #0D4532",
"X. c #0D4B33",
"o. c #0D4C3A",
"O. c #124432",
"+. c #1B4435",
"@. c #164A38",
"#. c #1B4C3B",
"$. c #0B5635",
"%. c #0D553A",
"&. c #0B5B3C",
"*. c #19533B",
"=. c #15583C",
"-. c #23432F",
";. c #264536",
":. c #25433B",
">. c #2D433C",
",. c #244C3D",
"<. c #31453D",
"1. c #22563E",
"2. c #096539",
"3. c #16653D",
"4. c #06763A",
"5. c #213F41",
"6. c #383741",
"7. c #4D2F44",
"8. c #453541",
"9. c #4C3642",
"0. c #453A42",
"q. c #4B3B44",
"w. c #473848",
"e. c #4D3E49",
"r. c #563747",
"t. c #523D46",
"y. c #533D49",
"u. c #1C4941",
"i. c #0C5B41",
"p. c #145442",
"a. c #1D5442",
"s. c #155C44",
"d. c #1C5C45",
"f. c #175D4C",
"g. c #1E5C49",
"h. c #294340",
"j. c #244C43",
"k. c #2C4C43",
"l. c #3D4444",
"z. c #334C44",
"x. c #384846",
"c. c #245744",
"v. c #2C5344",
"b. c #235C4C",
"n. c #2C5B4A",
"m. c #33544A",
"M. c #385649",
"N. c #3B5B50",
"B. c #0C6343",
"V. c #096A46",
"C. c #136443",
"Z. c #1D644C",
"A. c #136D4D",
"S. c #196848",
"D. c #097444",
"F. c #06754A",
"G. c #09744B",
"H. c #067B4B",
"J. c #14764B",
"K. c #1B6B53",
"L. c #0B7955",
"P. c #147554",
"I. c #1D7254",
"U. c #187A57",
"Y. c #1B7B59",
"T. c #246648",
"R. c #2B644C",
"E. c #36624C",
"W. c #23774C",
"Q. c #236B53",
"!. c #2A6955",
"~. c #376654",
"^. c #237354",
"/. c #277759",
"(. c #337358",
"). c #197D61",
"_. c #2E7B62",
"`. c #454745",
"'. c #4C4246",
"]. c #44444A",
"[. c #4D424A",
"{. c #444B4A",
"}. c #4A4C4B",
"|. c #56454B",
" X c #53434C",
".X c #5A444D",
"XX c #53494D",
"oX c #46534D",
"OX c #4E4C52",
"+X c #544551",
"@X c #5B4352",
"#X c #564A53",
"$X c #5A4C54",
"%X c #594E59",
"&X c #485A53",
"*X c #555254",
"=X c #575757",
"-X c #5E525B",
";X c #614B53",
":X c #664859",
">X c #784E59",
",X c #62545C",
"<X c #68545C",
"1X c #476559",
"2X c #54695F",
"3X c #585B60",
"4X c #675A62",
"5X c #526F65",
"6X c #4A7662",
"7X c #6C6268",
"8X c #726268",
"9X c #078748",
"0X c #19884A",
"qX c #098856",
"wX c #188857",
"eX c #13855B",
"rX c #1B835B",
"tX c #138B5C",
"yX c #089355",
"uX c #14995D",
"iX c #24865B",
"pX c #31895A",
"aX c #0DA758",
"sX c #0AB95B",
"dX c #0C8A64",
"fX c #198763",
"gX c #148C63",
"hX c #0C9A66",
"jX c #179667",
"kX c #179B70",
"lX c #258867",
"zX c #269668",
"xX c #2E946E",
"cX c #0DA668",
"vX c #14A36A",
"bX c #0BBA6A",
"nX c #12B26E",
"mX c #0DAC72",
"MX c #17A673",
"NX c #0BB976",
"BX c #14B877",
"VX c #27AC6F",
"CX c #45896A",
"ZX c #0EC457",
"AX c #07CB66",
"SX c #0AC77A",
"DX c #12C87A",
"FX c #08D27D",
"GX c #0CBC87",
"HX c #26B284",
"JX c #0BCA84",
"KX c #0AD787",
"LX c #0FD28E",
"PX c #06E489",
/* pixels */
"G F M D D F H F H 7 a.p.5 6 D D D Z Z b f l.9.8.0.q. X[.e.q. X|.|. Xq._ m ) ) U R.` '.#X#X,X4X<X-X' `.R Z Z L P.n.9._ F D H F D ",
"F H M b x 5 D b 6 2 S.P.c 6 K 0.G x b N cXb.l.%X*X%X#X0.) 9._ ` y.q.|.,Xq.P x #.M.y.$X,X-X,X7X4X0.0.%X*X{.z.NXtX/ _ / D D x D G ",
"D ~ F M / J 9 9 9 z qXs.Z 6 J H H G N U.~.2X4X4X4X,X#Xy._ K H K ` ` ] |.t.q.<.W.'.|.-X,X-X,X$XH H $X$X#X-X#XlXl.( K K K D x D D ",
"F H H F J 8.7.9 1 A.hX#.A Z x v E _ T.<.( |.%X$X#X#Xy.e.) b D Z b F H b x 9 T.N.t.` G _ e.'.E D 0.[.y.q.r.m./.K K J K / K F D Z ",
"D J K K F ~ 6.2 f JXdX+.x x 5 x D P ,.H D G D x J _ / F D x D J D 6 6 5 6 z A.[.t.q.b Z D E ' E 0.e.q.q./ MXfX2 J K H / 7.6.9 7 ",
"b J K F F H 2 < K.JXeXh x 5 z 5 z %.c.q.H H 0.] D x x D H q.y.e.[.e._ E F h T..Xt.K ! _ 8.0.#X'.0.[.e.( f.JXP.9 K K D F F 8.J D ",
"D J K J F 6 2 5.k._.cXf.h.x.].l.,.cXP._ E G ] ' q.` q.t..Xr._ 9.@Xw.q.) 7 C.m.` K E ` _ 0.e.e.' e.'.` T.JXKXgXD K F b D H K K D ",
"D F F F D 5 t K.6.8.BXlXM.0.0.%X*X^.cXB.g w ~ |.^ F E 6.z.a.j.x.6.b.b.s.yXaXQ F _ ] _ 8.0.e.J 0.0.x.jXLXLXKXcXP D 7 6 b D K / D ",
"D J b D x 2 #.jX5.N.BXx.^ K H _ #X3X~.(.0X*.f c.=.C.A.l.1X!.0.%X*X*XOX&X/.aXm.` ` q.'.|.y.K E e.q.!.zX}.XX~.NXg.A 5 x x b H D x ",
"x Z 6 6 2 c J.m.+X+Xz.c.b G m D ) '.;Xy.$X0XsXE.(.cXN.|.r.m.Z.D W w.[.+X{.gXE.9._ e.|.q.D H / / k.I./ 9 b b MXhXa.L z x D D 5 x ",
"6 6 x x 2 C.S.t.4Xy.Q 3.;.n m b b H H ) ` 0.(.b.c R ) _ ~ ^.KXQ.6.8.[.-X4X/.R.r.9.y.t.b b n ! z.Q.Y.A c 1 * U.FXJ.d.;.I G 4 5 6 ",
"x x 7 6 S.T.`.,X8.K K T.yX;.n M b G b _ _ J q.1XrX,.b D J jX!.9.8.F K 6.4X1XfX/.>.H b 4 c j.z. Xe.T.f.p.d.p.J.AXZX9XJ.c.:.f l 6 ",
"6 6 v J.~.{.=X) D G ) ! aXbXk.m b 4 8 F 0.6.6.:X6XoXM x Y./.D H H J 6.w.w.#Xm.gXSXeXC.L.hXz.` M Z S A.eX/./.(.pXZXAXbXjXL.U.d.t ",
"Z.S.sXbX>.|.' b H _ ^ T sXDXnXtXeXW.;.S W ].w.6.Q F M Q.Y.) b H H K 8.[.%X9.y.6.!.&X1XHXI.~ D 6 6 +.Y.z.n ~ @X@X&X(.DXNXkXkXL.[ ",
"M.3.aXbX+.J H H q.` b n.1X}.=X5X(.DXJXBXkXgXJ.0XJ.9 2 I m H H H D m E e.%Xe.y.9 d.n.Q.xXj.n x 5 c s.n._ E K H H ^ H W.1X;X`.R R ",
";X|.E wXP.G ) _ ` m >.oXt._ H t.>XCXPXPXLXCX6XCXiXT z 5 G ` E H _ ' q.+Xy.e.y.6.rXMXxXxXn.6 x +.S.eXg.R b 7 x L ;.!.oX|.) k m H ",
";X8Xe.p.mXx._ b b G k.q._ ! E q.|.q.vXDX2X:X@X:Xy.Q.^.n.>.! ' ` q.e.0.w.w.w.y.6.!.e.y.@X%X}.{._.hXSXeXu.j.K.K.n.&X<Xy.Z j k m M ",
"<X7X_ #.NX}.( K D G Q E E K 0.D m ( M.6X>XOXq.) H ! ,._ `.0.) q.[.[.[.w.w.w.7.Z.v.~ 6.J F ,X7X,X3XxXJXNXNX/.*X#X|. XE G H G M G ",
" X#X` ,.vXz.Q T b Y T H D x x x F y.#X-Xq.J G b D H k x D H ) m J E 8.0.e.8.A hX5.9 Z J D x J J ( 7.zXPXQ.( y.q.J m H E ) M k k ",
"q. X|.l.hX^.K.b.j.P.z.! K m b G F 6.]._ J D x D D k m b m b M ) D D K K 8.J u.GX5.9 5 9 Z 6 2 5 5 6 k.jX8./ q.H 1 6 b E G k - 6 ",
"/ 0.|.! uX!.~.&X^.eXb.j.x.! H n T Z.F 7 x b b x x 6 4 6 m M H K 0.E K K K 7 Z.HX~.Y j.Y 5 A 5 2 6 6 a.b.r.[._ 5 3 1 x b k 4 3 - ",
"J F S D tXhXn.v.cXnXgXeXI.I.b.T.eXwX1.P x j z J Z < 5 P G G D E ' {.x.K 8.I b.-X8X%X=Xn.Z j.5.5.Y >.Y.g.+X9.b x b k 4 k 4 k k 3 ",
"$X$X].W eXFXhXuXKXKXJXbXjX).jXMX~.$X(.tXZ.c.,.b.f.p.A.P.m D m H W 0.[.].w.(.b.9.<X X:XoXA Z.kXQ.gXGXNXk./ x b x k 4 - 3 k k 6 k ",
" Xe._ S U.FXiX/.JXSXwX&X;Xy.` l.M.4X<XM.E.oX'.#X&Xn.lXkX1.n H D K 8.K [.{.x.&XS |.q. X{.).mXj.2 D ).jX4 6 6 x 4 1 - - 1 x x k 3 ",
"G b 6 x P.KXnXjXU.<.] <X.X_ H n Q -.E R x.@X#X;X;X,X,X*XR.c.F E / 8./ F 6 6 E ,.r.#Xq.q.&XMXa < = 6 h q 6 k x 5 j 4 - - 3 3 3 1 ",
"6 6 D S jXBXVXY.` ] ;X|.^ F b q..Xz.t Y !  X$X$XXX X;X<X` U.A.E E S t q @.U B =.D 9./ b ^ fXP.L < # > r 3 3 6 x k 1 1 = - = = $ ",
"D F ^ Q mX6X8X&X.X|.t.) G H '.|.G x G b K ` 0.y.|. X|. X9.<.kXK.b.z.x.oX~.N.N.zXG.Y 9.) P pXbX@.< O > j - 3 x b x k 4 = $ $ $ $ ",
"9.8.R gXBX,X8X4X'.q. X) 6 H / 5 1 x b D x D e.%X#Xq.#Xy.%X#X=XzXh.^ ' ) ` / _ q.6XmX_.x.wXVXuX@.u y 0 & t x v G m k 6 - - 1 3 4 ",
"D +.hXJX!.:X7X+Xe. X/ D 6 6 D x b ^ _ 8.E y.4X4X#X Xe.[.+X@X~.tXm 6 j k b x v m ( ~.mXcXrX`.` _ L %.V.B.f k b x k 6 3 1 3 k k 1 ",
"..bXKXLXj.9.4Xe.b ^ / D 6 D D J K ' q.[.+X[.#X#X#Xy.[.+Xq.9.R P.a ; 6 4 k x m x x n E.vXP = k v 9 N F.+.4 1 1 3 - & = < k 3 = + ",
"c.W.wXNXu.~ #Xh.2 K D 9 H K K H q.[.'.+X#X[.#X$X+X+X+Xe.9.0.b #.+.- 4 6 k k x 5 6 k R 3., @ - - j 6 @.d = $ $ $ $ $ 3 x 1 . 0 [ ",
"^ '.E.uXhXT z.Y ~ x 6 8.K J J _ e. X#X-X%X%X#X#X#X%X#X[.[.e.H l #.4 x x x k 6 6 4 ; > 2.y X - - 3 1 c X.# $ 1 3 1 4 4 o e V.G.U ",
"_ ` l.^.mXhXh J 7 6 6 K A Z 8.[.#X$X$X-X%X#X#X$X-X4X$Xe._ E ^ l U.P m n m b k 4 1 o q { y % $ - & $ & X.< o < 1 4 $ %  .H.G.a n ",
"` F ` <.Z.hXL 2 6 A *.*.I D J [.$X$X-X-X-X|.K 6. X[.K J D G F a U.C k ; 6 k b 3 @ . 0 0 % % . $ $ & . @.p 0 < $ , { D.yXF.r b k ",
") ` q.' Q Z.P.f z L.Z.6.J J D G 0. X Xe.0.J 6 5 Z H D b D E H +.3.-.V = - 4 4 - @ # 0 y + # O . .   % V.$.p y : [ 2.D.yXC.- k k ",
"` ] 9.) ) ! v.A.J.J.K / K H E J G G J 6 1 4 x x Z 6 b b D H m ,.wX3.<.m x b = @ $ % u X.< 1 & + + i %.d & # & w = - a F.p.; j k ",
"q. X_ ) ^ ) ! m -.2.v _ W F K K G x 5 5 x x D b x < 6 F m M B E.1.3.P E b k - $ % d B.e - @ $ & 0 D.d X $ $ = k x - j &.%.; - x ",
"0.q.) ) ) H ! H E W.h D / / K J D G b D G H H J D D b 6 6 v c.'.T.uXT.k = - - - i X.B.w 4 v k + +  .& $ $ = = 3 k 3 - +.X.k - j ",
"H D H H ) D ^ ) ( R.C.1 9 6.! G G D H E ) _ ) _ _ 0.8.J k wXzXR &X&Xs i , @ @ & y @ s , = M ; , &...$ $ = - - k 4 j 4 V $.= k 3 ",
"m H ^ _ ] ' m ^ 8 eXcXO.w 5 H _ Z H ) _ H ) _ _ E ) ) 8.iXSX^.,X<XM ; r i + @ > [ : 3 s [ > u 4.&.# $ $ $ 3 - - ; - 3 t 2.e - k ",
"D _ q.q.( ) R.j.d.mXvXW.D.=.h P T ! 9._ ` ) ` ` ) E n ^.NXn.;X$XE k k $ , e & ,  .y 3 l 4.2., | X.= - - - 3 ; j 3 3 3 w 4.F.r - ",
"/ m ^ / k.g.vXnXjXiX{.XX(.^.J.P.).I H 8._ _ ` E E ^ v.bXc.y.XXm b - $ + : u q e &.&.> =  ., * i X.& & j j - - 3 - - 3 j &.eXL.> ",
"z ,.T.0XmXzX(.M./.2X}.Q R M.E.jXLXdXt D 9._ ) E F ' uXZ.W XXm m 1 $ & 0 y u g ..G.H.{ i  .@ = & i j - - 3 j - - - - - l 2.L.P.&.",
"*.iXZXAXBXjXZ.Q.W.;X,X$X{.m.^.vXKXKXmXV.U G K E m T.R._ '.C m 4 = % > e u ..X.V.*.> p [ [ , @ X & > = - ; k k k j l j l i.V.O.F.",
"e.,X}.{.m.jXnXuXn.) ` ' t.|.-X(.R.T.iXvXhXC.a f p.tXT ) ' M 3 2 1 q % q ..V.F.9Xi * o X o w q + @ , - - k - 3 k k k v L C.V.2.@.",
"t.$X$X<X<Xv.SXKXI.n H _ ( ^ t.@X' ] t.'.oX(.gXgXmXGXp 2 m k - - < % < e i.V.+.=.> $ $ @ . o = < > , & 4 - - 3 3 k - t a s.9X| - ",
"H K q.#X$Xl.bXPXY.b D _ _ _ / t.'.'.|.$X.X9.Q.LXkXdXp ; m @ $ $ # @ # e i.< 1 D 3 = $ $ @ o @ $ = w i = ; 3 j 3 - j p o.F. .6 k ",
"b K _ ) e.] U.KXI.P v D H K E ) q.XX Xy.|. X0./.dXqXu o k $ $ @ @ o # g o.o < b j $ = & = o o $ $ X d e = - k 3 j s %.F.3.k 1 - ",
"m F K 6.[.y.m.NXfX/.n.R E 0.8. X;X$X Xq.'  X'.b &.hXi.  3 - $ $ @ . % X.p @ & $ % @ o < = $ $ = $ o > &.i & & w p &.H.=.j 1 = = ",
"H H D _  X|.`.cXfX(._.1Xq. X[. X|. X|.|.q._ G m v qXi.< 1 = $ @ @ + q %.X.# X & X.< o $ - - $ $ $ @ @ &.qX=.%.G.F.qX&.1 3 - = = ",
"K E J J 8.q._ gXhXd.k.&X&XXX'.W D H D  X#X! E _ b h V.5 o # o . o < [ D.D...i s =...t $ < = $ $ $ $ , @.h R c.J.J.2.3 4 - & - = ",
"K G D D 8.q.( cXSXZ.Y D ! XXq.x D H b 4 3 G E E b 0 L.G.< X # $ # t @.#.+.U Q E ) Q @.p q @ @ > , & p B.p a #.a x % $ 1 - = - - ",
"K E J D E / S mXSXeX:.Z x H _ D D J k $ & $ 1 k 1 i V.qX&.    . < v H ) H n m H G E C -.} y , 0 y ..&.F.A.s.F.@.a & $ 3 - - - j ",
"K _ 0.8.K 6 #.M.M.tX@.L x b H H x 6 = - 3 - 1 3 6 y F.qXH.&.y q 4 b v G E m m m 3 b k n M a {  .2.B.| B C m V G.dXq 4 ; - - j ; ",
"D D K W 7 c j.9.( U.A.Y Z Z J H 4 - - = - 3 1 3 k s H.&.a =.qXV.- = - 4 k b k k k k k k k k } | U N k x b m G E g.u = - - 3 - - ",
"D D D 7 f a.7 ^ E kXA.:.c Z F 4 j m m k - 1 3 4 4 a qX$.q i V.F.q + @ > > = - 4 & = k k ; x i , = 1 j 3 - 3 3 M E } & - - - 3 3 ",
"H H x V bXgX8 H E BXaX-.V - - - = 1 4 M m 4 w & + [ 4.&.{ s T <.P B C B } % % # # . $ 4 k 4 , , o @ $ k b x k x ) ;.s ; 3 - - 2 ",
"z +.C.uXFXDXI ~ ^ uXAX0X-.> & $ o o o X 4 & : { 2.2.N k k m E ' E M M C E ;.o.[ & X @ 6 m 4 > i @ $ = 4 x x x 4 1 B X.j = = $ $ ",
"x S Q x.E.lXI.a 0XsXsXaX@.U U N s } O.u u %.F.9X2.k k n m m C ) H m m m m M <.G.F.r 2 - k X y [ & & 1 - $ $ $ $ $ 6 @.D.} q % & ",
"G M H 8.y.|.{.<.0XZX0Xi - - 3 6 V V.+.=.L.F.H.H.V m C C k k M C E ) ' ' ' E G B 9XB.& - X % 2.[ & $ = $ - 1 < = - - l D.F.q $ $ ",
"H H H H E _ 9./ F 1.$.> - k k - - l a O.G.4.2.| M m m k k m m M M M E ' '.' <.m $.&.# $ $ : 4.s > 3 ; $ - 1 - & - 1 < D.d * $ $ ",
"F F F F H H ) 8.m 1 X.t = k m k & 1 v C -.4. .k v x k k m M C m k k k k M E _ k $. .= = + { 4.$., o ; j $ - 4 1 1 v =.*.E v z 1 ",
"M M G F ^ ^ G b 6 = d e = j j = 4 3 - k 7 | [ b b v v b m M n k k m k m M H x @ &.4., = l V l N U r & - - 1 4 b 6 1.1.x ' ! E - ",
"n F M M F M 6 - j * e % $ 1 $ $ = - 1 1 = i C m k k x m m k k k k m k k b m x & 2.3.P M C C m b m C j = - = $ o > ;.k 4 v k x 1 "
};
