/* XPM */
static char *dc88acf4b2484affc9f857bb30048b89faPHD4V67v74rzXn[] = {
/* columns rows colors chars-per-pixel */
"64 64 256 2 ",
"   c black",
".  c #010101",
"X  c #020202",
"o  c gray1",
"O  c #040404",
"+  c gray2",
"@  c #060606",
"#  c #070707",
"$  c gray3",
"%  c #090909",
"&  c gray4",
"*  c #0B0B0B",
"=  c #0C0C0C",
"-  c gray5",
";  c #0E0E0E",
":  c gray6",
">  c #101010",
",  c #111111",
"<  c gray7",
"1  c #131313",
"2  c gray8",
"3  c #151515",
"4  c #161616",
"5  c gray9",
"6  c #181818",
"7  c #191919",
"8  c gray10",
"9  c #1B1B1B",
"0  c gray11",
"q  c #1D1D1D",
"w  c #1E1E1E",
"e  c gray12",
"r  c #202020",
"t  c gray13",
"y  c #222222",
"u  c #232323",
"i  c gray14",
"p  c #252525",
"a  c gray15",
"s  c #272727",
"d  c #282828",
"f  c gray16",
"g  c #2A2A2A",
"h  c gray17",
"j  c #2C2C2C",
"k  c #2D2D2D",
"l  c gray18",
"z  c #2F2F2F",
"x  c gray19",
"c  c #313131",
"v  c #323232",
"b  c gray20",
"n  c #343434",
"m  c #353535",
"M  c gray21",
"N  c #373737",
"B  c gray22",
"V  c #393939",
"C  c #3A3A3A",
"Z  c gray23",
"A  c #3C3C3C",
"S  c gray24",
"D  c #3E3E3E",
"F  c #3F3F3F",
"G  c gray25",
"H  c #414141",
"J  c gray26",
"K  c #434343",
"L  c #444444",
"P  c gray27",
"I  c #464646",
"U  c gray28",
"Y  c #484848",
"T  c #494949",
"R  c gray29",
"E  c #4B4B4B",
"W  c #4C4C4C",
"Q  c gray30",
"!  c #4E4E4E",
"~  c gray31",
"^  c #505050",
"/  c #515151",
"(  c gray32",
")  c #535353",
"_  c gray33",
"`  c #555555",
"'  c #565656",
"]  c gray34",
"[  c #585858",
"{  c gray35",
"}  c #5A5A5A",
"|  c #5B5B5B",
" . c gray36",
".. c #5D5D5D",
"X. c gray37",
"o. c #5F5F5F",
"O. c #606060",
"+. c gray38",
"@. c #626262",
"#. c gray39",
"$. c #646464",
"%. c #656565",
"&. c gray40",
"*. c #676767",
"=. c #686868",
"-. c DimGray",
";. c #6A6A6A",
":. c gray42",
">. c #6C6C6C",
",. c #6D6D6D",
"<. c gray43",
"1. c #6F6F6F",
"2. c gray44",
"3. c #717171",
"4. c #727272",
"5. c gray45",
"6. c #747474",
"7. c gray46",
"8. c #767676",
"9. c #777777",
"0. c gray47",
"q. c #797979",
"w. c gray48",
"e. c #7B7B7B",
"r. c #7C7C7C",
"t. c gray49",
"y. c #7E7E7E",
"u. c gray50",
"i. c #808080",
"p. c #818181",
"a. c gray51",
"s. c #838383",
"d. c #848484",
"f. c gray52",
"g. c #868686",
"h. c gray53",
"j. c #888888",
"k. c #898989",
"l. c gray54",
"z. c #8B8B8B",
"x. c gray55",
"c. c #8D8D8D",
"v. c #8E8E8E",
"b. c gray56",
"n. c #909090",
"m. c gray57",
"M. c #929292",
"N. c #939393",
"B. c gray58",
"V. c #959595",
"C. c gray59",
"Z. c #979797",
"A. c #989898",
"S. c gray60",
"D. c #9A9A9A",
"F. c #9B9B9B",
"G. c gray61",
"H. c #9D9D9D",
"J. c gray62",
"K. c #9F9F9F",
"L. c #A0A0A0",
"P. c gray63",
"I. c #A2A2A2",
"U. c gray64",
"Y. c #A4A4A4",
"T. c #A5A5A5",
"R. c gray65",
"E. c #A7A7A7",
"W. c gray66",
"Q. c #A9A9A9",
"!. c #AAAAAA",
"~. c gray67",
"^. c #ACACAC",
"/. c gray68",
"(. c #AEAEAE",
"). c #AFAFAF",
"_. c gray69",
"`. c #B1B1B1",
"'. c #B2B2B2",
"]. c gray70",
"[. c #B4B4B4",
"{. c gray71",
"}. c #B6B6B6",
"|. c #B7B7B7",
" X c gray72",
".X c #B9B9B9",
"XX c gray73",
"oX c #BBBBBB",
"OX c #BCBCBC",
"+X c gray74",
"@X c gray",
"#X c gray75",
"$X c #C0C0C0",
"%X c #C1C1C1",
"&X c gray76",
"*X c #C3C3C3",
"=X c gray77",
"-X c #C5C5C5",
";X c #C6C6C6",
":X c gray78",
">X c #C8C8C8",
",X c gray79",
"<X c #CACACA",
"1X c #CBCBCB",
"2X c gray80",
"3X c #CDCDCD",
"4X c #CECECE",
"5X c gray81",
"6X c #D0D0D0",
"7X c gray82",
"8X c #D2D2D2",
"9X c LightGray",
"0X c gray83",
"qX c #D5D5D5",
"wX c gray84",
"eX c #D7D7D7",
"rX c #D8D8D8",
"tX c gray85",
"yX c #DADADA",
"uX c gray86",
"iX c gainsboro",
"pX c #DDDDDD",
"aX c gray87",
"sX c #DFDFDF",
"dX c gray88",
"fX c #E1E1E1",
"gX c #E2E2E2",
"hX c gray89",
"jX c #E4E4E4",
"kX c gray90",
"lX c #E6E6E6",
"zX c #E7E7E7",
"xX c gray91",
"cX c #E9E9E9",
"vX c #EAEAEA",
"bX c gray92",
"nX c #ECECEC",
"mX c gray93",
"MX c #EEEEEE",
"NX c #EFEFEF",
"BX c gray94",
"VX c #F1F1F1",
"CX c gray95",
"ZX c #F3F3F3",
"AX c #F4F4F4",
"SX c gray96",
"DX c #F6F6F6",
"FX c gray97",
"GX c #F8F8F8",
"HX c #F9F9F9",
"JX c gray98",
"KX c #FBFBFB",
"LX c gray99",
"PX c #FDFDFD",
"IX c #FEFEFE",
"UX c white",
/* pixels */
"MXxXyXT.P.#X*X`.j.e.x.I.$X:X8XhXsXpXaXCXVXKXPXNXcXDXCXNXCXhXMXBXmXVXvXnXzXqX~.8XwXgXeXL.4XtXuXqX3XpXaXmXxXMXAXlX9Xh.#XrX0XMXsXbX",
"LXGXgXwX).E.+X/.m.r.K.6XaXsX0XwX1XOX7XpXVXVXDXGXnXZXSXDXHXAXCXnXBXNXBXZXlX6X;XkXZXnXdXoX(.5XhXaX%X8XkXmXnXZXVXbXgXW.i.].,X0XeX9X",
"KXSXBXNX6XZ.{..X{.e.M.-X9XlXuXwX6X$X#X,XsXZXVXGXxXbXZXFXAXCXbXbXNXNXCXBXdX(.tXcXvXxXvX3Xn.!.;X=X$X8XlXbXxXnXBXjXeX`.Z.:XeXjXlXiX",
"DXBXFXvXaXP.S.|.}.%.h.&XaXgXiXhX7X@Xf.Y.:XrXxXgXvXVXCXFXFXBXnXSXbXZXSXBXhXS.pXzXbXjXgX,X_.).K.7.h.>XaXMXZXvXlXdX/._.qXhXxXBXcXvX",
"SXHXFXSXgX5XG.).M.<.V.M.^.-X9X<X/.I.D.#.9.T.[.1XsXCXNXVXJXAXZXSXVXDXLXHXMX].,XlXNXcXcXaXbXhX X,.w.(.rXMXgXMXtXU.oXfXNXNXGXNXbXHX",
"HXPXJXUXmXxX XA.F.d.`..X-X=X<X<X*XeX+XP.{.8XwXoX=XuXMXvXCXCXFXAXLXDXUXLXxX1XJ.0XeXsXMXMXbXmX0XM.I._._.*XfX7XQ.1XuXNXvXFXMXnXxXAX",
"IXPXLXAXNXiX).8.P.A.{.3X*XuXhXkXzXpX#X5XyXjXjXbX,X[.fXkXNXDXLXKXIXHXIXDXfX@XM.4XvXnXAXAXNXMXtXG.-XfX0X}.{.W.%XjXbXzXAXUXMXHXCXFX",
"KXUXFXNXMXgXL.w.G.N.A.|.c.#XrXmXlXdXhXsXNXBXbXbXgXb.&XrXNXPXLXJXJXUXUXAXxX~.).jXNXNXBXvXGXxX5XZ.eXdXiXhX1XF.cXbXnXAXFXDXJXLXIXLX",
"UXJXDXvXzXqX,Xb.J.T.V.8.B.=XjXmXvXkXkXNXNXAXNXSXcX>XR.cXbXJXUXLXIXHXDXZXiXk.@XaXCXMXKXcXmXmX`.D.uXkX,XyXeX}.iXNXNXSXKXUXIXIXUXUX",
"JXCXVXvXfX3X0X.Xm.n.G.u./.iXvXcXxXbXMXCXAXHXVXnXCXcX|.%XxXbXHXDXGXSXVXzX=XK.<XuXxXCXcXNXCXzX5XP.iXpXdXhX,XR.qXsXcXNXGXIXUXUXIXIX",
"IXSXDXAXnXtXjX0XL.m.D.f.}.7XcXcXNXcXvXNXAXVXCXZXBXVXhXW.XXmXnXNXzXsX*X#XY.C.~.9XzXAXZXSXZXBXgX|.*XtXuXrXZ.R.1XlXvXNXFXPXUXUXIXPX",
"FXGXHXBXxXfXzX9X'.1X3X^.~.R.wXpXpXaXjXcXAXBXFXSXAXcXsX5XJ.<XiXtX4X@X,.f.#X[.h.E.&XdXCXmXbXZXnX0X[.oX[.H.R.yXNXnXDXFXHXLXIXUXUXUX",
"NXDXDXzXaXsXzXuXwXdXhXcX3XZ.P.OX:XeXiX0XsXcXSXlXhXlXuX#Xw.N.'.[.~.R.B.&XeX6XXXF.V.9XnXZXBXcXcXwXtXD.M.+XvXZXBXUXUXIXPXPXIXUXUXUX",
"CXVXNXvXxXcXvXhXsXlXxXkXfX0XY.F.N.L.Q..X<X6XiX0X4XtX;Xy.c.OXqXyX8XqX&XqXjXhXzX5X/.1XhXfXsXjXjXcXrX).(.fXcXJXHXKXUXUXUXUXUXUXUXUX",
"MXvXbXNXZXZXbXkXxXxXxXcXvXsX!.].-XW.v.U.R.S.W.+X9X;XV.y.|.0XmXdXcXlXfXmXCXbXbXuX.X~.3XaXkXMXaXdX4XY.S.>XbXDXUXPXIXUXUXUXUXUXUXIX",
"lXmXSXSXAXHXDXFXmXMXdXbXvX:XF./.{.C.r.G.V.3.=.3.Q.K.~.{.'.dXzXvXBXAXZXZXLXPXVXVXfX'.^.0XpXsXmXsX:XL.;.].hXLXGXUXUXUXUXUXIXIXIXUX",
"mXZXGXHXJXLXPXJXCXBXnXnXjX;XE.K.Y.T.^.^.D.*.4.a.G.2.H.4XsXjXNXNXBXZXHXPXUXIXPXLXBXxX&XU.pXhXhXpXR.p.k.@XCXJXIXIXUXUXUXUXUXUXUXUX",
"gXVXIXUXPXPXUXUXUXJXDXDXbX2XXX$X3X0X:XoX'.P.|.>X@XD.@XgXnXNXAXZXDXHXLXUXUXUXIXPXIXnXyX`.>X5X1X}.H.+X3XeXhXLXIXLXUXUXUXUXUXUXUXUX",
"tXnXPXUXIXIXUXUXLXLXDXAXCXjX,X|.dXyX9X>XXX!.8XhX9X@XeXnXVXZXAXZXKXPXUXUXUXUXUXIXUXDXMX^.J.^.@X-X5XaXaXcXAXPXJXUXUXUXUXUXUXUXUXUX",
"sXnXGXKXPXUXUXIXKXUXPXNXnXnXaX1X<X1X7XqXE./.rXxXjXpXnXAXDXJXKXLXPXIXUXUXUXUXUXUXUXFXfXoX8XlXdXtXpXdXfXuXvXVXPXUXIXUXUXUXUXUXUXIX",
"bXVXGXLXIXUXUXIXUXKXSXBXBXVXnXgXXXiX0X>XN.1XfXMXAXSXJXJXGXIXIXUXIXUXUXUXIXIXUXUXJXUXSXzXnXlXrX1XyXsXvXpXpXmXUXGXIXUXUXUXUXUXUXIX",
"CXZXGXPXUXPXPXUXIXDXMXcXbXCXnXiX|.7X1XH.R.tXkXVXGXLXKXKXDXKXKXIXUXUXUXUXUXIXIXUXUXLXGXKXBXbXcXrXmXlXbXVXdXVXUXPXIXIXUXUXUXUXIXIX",
"GXNXMXFXIXLXKXIXUXUXPXcXyXgXbXlX{.F._.j.>XfXBXJXKXUXLXUXHXPXPXUXPXIXUXUXUXUXUXUXUXIXUXUXCXnXyX5XzXCXGXBXyXnXPXIXIXIXUXUXUXUXIXIX",
"UXnXhXNXIXUXPXIXIXGXHXDXzXdXfXsX@Xt.F.N.;XcXVXDXLXUXKXUXJXKXJXKXHXJXPXIXUXUXUXUXKXUXUXKXHXCX-X;XcXmXDXMXMXnXHXLXIXIXUXUXUXUXIXIX",
"LXGXZXzXHXUXLXLXUXPXPXPXNXnXtXqXW.'.yX,X2XgXJXFXPXUXIXIXUXLXUXUXFXHXLXUXUXUXIXIXUXUXJXUXGXjX}.1XjXDXJXJXSXbXBXJXGXKXUXIXIXUXKXPX",
"LXLXHXbXxXHXIXIXLXKXUXUXGXMX$XR.Z.tXyXhXxXAXDXGXJXUXUXPXUXIXUXLXUXUXUXUXUXUXUXUXIXIXUXUXGXuX>XzXNXFXSXGXHXCXZXFXBXzXGXLXUXPXUXGX",
"UXPXJXCXhXGXIXLXUXLXUXUXAXsX.XR.a._.wXcXZXNXAXDXIXIXUXUXUXIXPXUXUXUXUXIXLXPXIXUXUXUXUXJXMX-X<XnXFXGXCXDXHXVXBXZXBXiXCXHXIXHXUXZX",
"UXPXPXSXcXAXHXUXUXUXIXJXzX$X<X9X>X_.).pXzXGXFXHXIXPXUXUXPXUXIXUXUXUXUXUXUXUXUXUXIXLXUXGXMX,X0XNXFXJXHXPXGXMXZXHXFXjXmXNXBXVXCXxX",
"LXUXUXcXcXNXFXUXPXUXIXDXpX~.uXcXnXaXT.=XvXNXFXHXHXFXIXJXJXUXIXDXPXIXUXUXUXUXUXIXIXPXDXDXBXtXyXnXMXZXFXLXAXbXZXHXHXZXnXzXfXcXsXiX",
"PXUXZXwXzXFXKXJXHXUXJXMX<XE.gXhXqXlX3XXXiXhXBXVXAXaXmXSXIXGXCXBXAXJXIXIXPXUXUXPXUXIXCXVXvXiX7XhXbXMXVXFXVXnXVXNXSXJXVXvXpXzXyXpX",
"DXNXlXiXbXPXLXDXKXUXAXjXW.K.wXdXvXbXhX8X'.fXdXgXsX+X6XuXMXlXjXhXdXMXKXPXKXJXKXJXMXVXmXlXiX>X XeXhXkXxXMXnXmXCXbXvXMXVXMXiXgXdXkX",
"kXpXzXDXNXDXGXUXLXJXVXfXl.v.$XdXxXlXxXhXW.'.2X1X@XQ.@X'.4XpXgX3X%XeXmXAXBXnXnXnXpXfXkX0X$XH.k.`.:X2X9XyXuXgXnXjXaXtXvXcX0XeXhXxX",
"FXHXJXHXHXKXLXLXIXHXCXhX[.4.K.9XgXfXpXgX;X XwXiX9X9XuX=X$X3X+XXXC.%X9XsXlX4X%XT.T.).=X=X[.A.e.h.S.V.Y.Q._.>X5X=X6X5XuXuX>XyXhXgX",
"JXPXIXLXLXPXIXIXHXPXmXqXN.5.9.G.$X)._.4X,XS.7XuX0XwXgXrX}.L.P.E.m.m.M._.%XI.Q.XXrX7XhXkXdX6XOXM.l.y.X.s.J.H.C.D..X6X;X&X,X3XgXfX",
"LXIXUXUXIXUXUXIXUXnXyX%X{.;X=X8X9X:Xv.U./.P..X8XxXfXyX9XU.s.P.`./.C.0.y.A.C. XdXzXhXkXZXcXxXeXG.G.I.b.~.W.*X&XQ.L.'.j.A.,X5XsXqX",
"KXPXIXUXUXUXLXFXlXaXbXdXkXxXiXiXfXuX!.z.c.V.T.1X8XrXtXsX&XP.W.E.(.I.x.M.*XrXiXiXlXMXbXmXcXlXdX;X=X.X~.`.Y.%X}.~.m.P.c.J.(._.=X8X",
"KXLXPXIXUXPXDXMXdXvXVXAXmXVXMXCXzX<X/.,X^.>X*XeX7XyXyXwX-XY.b.b.(.(._.|.eXhXxXSXbXMXSXlXMXxXvXiX-X`.;XqX@X8XuX:Xt.a.E.R.b.m./.=X",
"PXIXIXPXKXGXVXbXmXDXFXSXLXGXAXsX0X'.{.eXiX4XkXlXnXcXpX:X[.Z.j.P.}.~. X,XbXCXzXcXmXnXcXvXlXMXpX*X].dXxXkXbXhXsX>Xv.3.Y.T.!.oX3X%X",
"PXUXIXHXZXVXVXVXFXLXUXSXIXCXDXkXgX<X{.1X8XdXzXlXjXzXnXjX8X{.I.`.P.W.;X>XyXnXMXVXBXBXwXwXtXeX5X>XhXmXcXNXFXMXMX0X).a.v.!.$X9XyX-X",
"JXPXLXAXmXmXZXHXKXPXAXLXBXFXMXVXcXqXaX8X`.8XjXBXzXvXNXbXrX#X/.Y.A.R.1X$X*XuXkXbXbXzX*XG.<XH.,XvXBXbXDXAXNXCXBXbX4XI.r..X1XtXrX0X",
"KXCXNXiXuXSXMXKXHXUXHXLXDXDXMXcXcX7XMXkXaX X0XcXfXZXxXcXdX'.Z.OX).=XdXkX9X%XpXzXkXiX>XU.s.S.hXVXZXCXBXZXAXSXVXmXiX:Xy.:XfXiXaXtX",
"UXSX6X>XNXDXKXmXUXFXHXUXHXNXAXhXrXgXxXnXvX:XoX2XuXaXfX9X-X#XuXtXuXlXuXvXVX-XI.5X6X0X%Xf.5./.iXmXZXZXCXCXCXZXVXBXMX3XN..XuXxXjXeX",
"nXuXQ.lXMXLXAXLXFXKXHXSXLXmXgX1X=XzXhXzXVXxX=XE.<X6X#X-XOX5XzXvXjXNXNXlXkXzX.XI.5X=Xk.[.OXI.8XMXmXBXVXMXMXMXBXNXMXjXiXeXdXcXlXgX",
"xX~.(.jXCXZXDXLXLXnXAXVXbXyXOXH.(.0XnXcXvXxXlX`.'.(.F.].`.yXxXnXCXdXCXMXkXjX2XM.E.I.!.=XiXfXwXcXBXCXAXMXBXBXCXmXcXvXHXnXbXMXsXqX",
".XL.tXgXHXCXIXSXVXmXlX4X XB.8.`.gXpXvXmXMXiXyXL.!.].Z.p.L.4XsXCXbXBXMXvXjXOX}.=XD.].2XuXvXvXCXMXAXCXCXzXmXMXVXcXmXvXnXmXMXVXgX8X",
"L.2XNXLXFXHXGXIXUXSXSXrX^.D.C.wXjXbXmXVXmXuX3X[.:X}.U.c.e.^.pXlXbXlXsXyX[.OXsXaX@X5XMXzXbXCXDXVXZXNXmXdXbXNXAXvXbXAXmXDXZXCXnXgX",
"iXSXSXFXPXCXAXIXKXHXMXsXgXiX*X2XzXVXxXxXvXgX#X!.>X@XR.`.v.Z.:XgXdX9XOX&X4XhXkXkX8X9XzXmXZXAXnXDXVXMXMXsXbXbXmXsX9XnXbXSXHXDXNXdX",
"nXZXUXUXUXZXDXLXIXCXnXxXcXgXjX8XpXgXxXcXgX3X`.~.<X%X}.<X).k.=X4X].K.,XhXkXbXAXzX8XbXxXBXVXNXMXNXcXxXvXeXaXwX8X@X(.pXNXVXSXVXBXkX",
"MXAXUXKXHXJXUXKXLXFXCXxXCXvXxXVXlXfXrX0XpXhXeX@XR.;X>X+X~.M.D.l.].wXsXzXjXlXvXpX<XgXhXZXbXvXnXjXpXpXaX.XW.T.n.:.2.5XbXBXFXCXbXBX",
"kXKXHXJXUXKXZXUXKXNXMXdXfXnXVXsXNXjX8XhXrXdXdXwXJ.[. X;X=X-X{.K.*X7XuXbXvXlXbX0X X6XyXhXkXVXcXMXMXVXsXaX+Xa.D.[ 8.5XNXSXFXCXNXSX",
"0XfXVXKXKXUXLXHXKXZXjXfXCXkXtXsXtXmXaXzXpXpXuXiXR.(.4X&X1X2X0X'.].^.fXkXbXlXtX;XM.j.|.[.2XdXMXvXnXGXVXbX;XW.V.b.[.xXBXVXSXFXCXMX",
"Y.rXkXZXGXZXPXMXcXtX7XeXpXaXqXOXaXtXpXhXaXaXrX}.F.oX4X8XwX>X$X$Xd.C.2XtXbXuX7XR.&X+X&Xm.XXsXbXjXnXMXdXcX_.U.m.e.[.uXvXCXNXBXMXnX",
"V.Y.pXbXbXCXzXlX0XXXE.'.OX&XXXH.=X8XpXyXqX-X#X4X3X).P.*X3X;X8X>XA.k.E.8X8X9XY.{.=X2X0X-XH.[.5XxXlXVXdX:Xc.h.+X>X,XpXjXbXlXnXBXSX",
"8XC.;XdX0XkX7X5X/.F.0.e.u.0.6.5.N.E.+X2X'.@X,X5X6XW.S.!.~.U.<X|.#X_.E.~.].C.}.3X,X0X2XqX3X.X^.&X5XrX9XS.e.I.%XgX-X4XyXNXAXFXBXmX",
"kX1XL.oX)._.[.].9X6X%X[.A.Q.}.M.;.W..X-X(.'.;X3X%X/.6.l.J.[.!./.`.pX-X(.0.U.;XeX7XwX0X{.4X6X7X{.L.~.XXT.4.b.,XaXfXhXcXZXMXnXbXFX",
"hXrX2X*Xm.;X<XdXrXfX6X6X2XwX7X_.L.<X5XgX9XOXrX=XY.u.c.%X#X*X;X$XP.4X0X4XI.C.8X8X9X4XOXD.-X4X>XOXa.n.XX:X`.w.W.2XdXrXrXzXmXBXvXAX",
"tX<X*XL.j.>XaXzXkXjXhXaXpXzXjX5X'.yX%X8XgXiX&X|.n.+X].-X3X{.rXrXuX4XyXtX:Xj.I.%XXXqXXXB._.$X*X[.Y.;X4X&XOX.X^..XtX3X;XyXhXvXkXxX",
"9XK.h.).$X0XzXfXlXbXBXbXlXbXxXrX^.yX3X;XeX9X[.XXOXiXqXqX,X=XaXfXxXdXuXaX4X).b.A.W.R.~.^.n.8.h.OX}.2X$X=X].2XaXnXsXnXjX7X$X5XaXxX",
"vX2XT.B.:X8X6XdXvXmXVXBXVXAXvXwXC.*X8X@X$XP._.:XfXcXkXaX>XaXjXiXtXtXrXfXiX7Xh.r.`.>X=X2XXX8.Y.8XtXtX}.,X1XhXmXnXxXCXVXlX9X7XeXfX",
"vXhXgXU.@XuXfXuXxXbXmXMXCXAXlX8X7X0XuX$X!.3.>XxXMXMXMXlX XrXdXiXdXaXvXbXvXwXC.y. X5X`.*X&Xn.4XfXgXjX-X1XfXlXvXDXLXVXbXVXNXzXlXMX",
"DXmXdX=X,XdXnXlXhXnXVXNXMXbXhXyXNXkXBXBXiXG.8XpXvXZXAXzXA.`.5XgXNXnXAXBXvXeX{.x.&X<X~.%Xn.[.yXvXCXlX*X{.<XlXbXAXPXKXFXZXSXDXGXFX",
"AXJXMXkX5XhX9XhXxXNXBXMXBXMXzXhXNXNXZXJXCXiXqXcXmXVXcXjXJ.}.8XhXcXNXmXCXvXlX5XV.^.{.*X/.}.(.tXaXcXmXsX;XJ.1XkXVXFXIXUXPXIXPXIXGX",
"CXVXPXbX.X7XfXcXcXMXbXcXBXBXvXxXZXKXHXGXVXZXsXAXSXNXgXgX].9XsXzXnXSXNXSXCXMXuX(.T.|.'.2XdX&X).hXlXvXkXiX^.1XbXVXUXLXUXPXUXLXUXUX",
"bXKXAXVXdX[.9X5XdXvXbXzXcXzXzXMXCXDXFXJXDXVXCXVXmXnXlXrXT.>XqXbXnXMXbXbXCXlXkXwXwX0XyX9XaXwXA.wXfXzXfXaXOX XhXKXPXLXUXPXUXKXUXIX"
};
