/* XPM */
static char *c5b463d9c16f4877ff0e5ded88711e271PTD6nnX9MUErEb0[] = {
/* columns rows colors chars-per-pixel */
"64 64 145 2 ",
"   c #1F1A16",
".  c #291E17",
"X  c #2A1F19",
"o  c #25211C",
"O  c #2C231C",
"+  c #2F2A1F",
"@  c #32261D",
"#  c #34281D",
"$  c #2E2521",
"%  c #2F2923",
"&  c #302721",
"*  c #342B23",
"=  c #3A2D25",
"-  c #352E29",
";  c #3B2F28",
":  c #3B3027",
">  c #36312A",
",  c #3C332B",
"<  c #3D3631",
"1  c #3D3932",
"2  c #3D3D3A",
"3  c #402E26",
"4  c #41352D",
"5  c #43382F",
"6  c #49392E",
"7  c #413730",
"8  c #443B33",
"9  c #493D35",
"0  c #453E39",
"q  c #493E39",
"w  c #4C4137",
"e  c #46423B",
"r  c #4B433B",
"t  c #4B483D",
"y  c #504337",
"u  c #51463D",
"i  c #54493E",
"p  c #4D4641",
"a  c #4E4A44",
"s  c #4F4C49",
"d  c #514641",
"f  c #534B44",
"g  c #594E46",
"h  c #534E4A",
"j  c #5A4F49",
"k  c #565146",
"l  c #5A5246",
"z  c #55524C",
"x  c #5B534C",
"c  c #5D584E",
"v  c #565551",
"b  c #5A5652",
"n  c #5C5A54",
"m  c #575A58",
"M  c #5E5D5A",
"N  c #605146",
"B  c #62574E",
"V  c #62594E",
"C  c #685D4F",
"Z  c #635C54",
"A  c #6A5E55",
"S  c #635E59",
"D  c #685F5B",
"F  c #5F615C",
"G  c #656056",
"H  c #6C6256",
"J  c #65625C",
"K  c #6B635C",
"L  c #6F685C",
"P  c #716557",
"I  c #71655C",
"U  c #73695E",
"Y  c #656562",
"T  c #6A6662",
"R  c #6C6A64",
"E  c #646669",
"W  c #6D6D6A",
"Q  c #726662",
"!  c #736C64",
"~  c #796F64",
"^  c #726E6A",
"/  c #7A6F68",
"(  c #757064",
")  c #7B7366",
"_  c #74726C",
"`  c #7A746C",
"'  c #7E796D",
"]  c #6F6E70",
"[  c #786F70",
"{  c #6F7070",
"}  c #747472",
"|  c #7A7672",
" . c #767876",
".. c #7D7A74",
"X. c #7C7D7A",
"o. c #81776B",
"O. c #837B6E",
"+. c #887E6D",
"@. c #827C74",
"#. c #897E73",
"$. c #827E7A",
"%. c #848176",
"&. c #8A8274",
"*. c #85827C",
"=. c #8A847D",
"-. c #8C887E",
";. c #92877C",
":. c #928B7E",
">. c #7F8180",
",. c #858582",
"<. c #8A8681",
"1. c #878984",
"2. c #8C8A84",
"3. c #84898C",
"4. c #8D8D8A",
"5. c #938D84",
"6. c #928E89",
"7. c #8E918D",
"8. c #959086",
"9. c #9B9485",
"0. c #95928C",
"q. c #9A958C",
"w. c #9C988E",
"e. c #8F9294",
"r. c #969592",
"t. c #999691",
"y. c #979893",
"u. c #9C9A94",
"i. c #9E9D99",
"p. c #A0978D",
"a. c #A29B8D",
"s. c #A29D95",
"d. c #A29E99",
"f. c #A89F9D",
"g. c #A5A095",
"h. c #A9A395",
"j. c #A5A29C",
"k. c #A9A39C",
"l. c #AEA89B",
"z. c #A6A5A1",
"x. c #A9A6A1",
"c. c #ACA9A4",
"v. c #ADACA9",
"b. c #B1AAA4",
"n. c #B0ADA8",
/* pixels */
"<.2.<. .f 4 n %.2.9.q.8.q.w.8.8._ t e W u.z.z.z.j.z.z.j.z.z.x.z.j.z.z.d.e.4.4.^ M d 8 - x <.r.y.s.i.d.d.i.d.k.j.d.u.u.t.t.q.0.1.",
"<.6.<.X.l : G %.8.0.8.q.t.w.q.1.J 0 f } i.z.z.j.z.j.z.z.j.f.d.0.*.2.*.$.^ J h d g K Z 8 e ..e.u.d.u.i.d.d.d.j.k.j.d.s.i.u.t.t.6.",
"4.*.*.X.i , J -.0.w.q.s.t.5.-...a , b { u.j.j.j.f.f.i.4.*.=.$.! T J x q - * j H K J n g , T 4.r.u.i.i.s.s.d.d.k.d.h.s.s.s.d.t.r.",
"0.X.*.| 6 1 R 5.8.8.w.s.g.8.-.L < w n } 7.y.u.i.r.6.@.^ ` ! K S k 8 @ = : 4 , : , f x l 4 f <.0.u.d.s.d.d.k.d.s.j.f.d.d.d.h.y.r.",
"0.,.*.T , a } 8.w.s.k.s.g.6...n 4 f v W X.X.*.*.$.^ D Z B Z B e = ; 8 y d f k f q 5 3 9 9 w  .2.u.s.d.d.k.l.f.k.k.j.j.h.k.d.u.t.",
"0.>.*.d w M ' 0.s.k.h.h.g.0._ a - s m n Y Y W K b d 8 > : , * = 9 f b b M T T L K x C i * = T X.2.u.j.k.j.k.h.k.k.j.j.j.h.j.j.y.",
"1.1._ 4 z Y *.8.s.h.h.j.h.6.E a * s v n z z a < O - p p 0 @ @ r x D R ^ ` ..$.` ! J n Z u # d R ` *.g.j.s.f.s.k.k.s.j.j.j.j.j.0.",
"*.*.z < n _ 2.9.a.f.l.l.w.$.F t * s a e 9 , 2 0 < < m Y S , 8 Z R ! ^ ..=.5.2.<.*...) Z f 9 , x J ` 2.d.s.h.f.s.f.s.j.h.l.j.i.2.",
"1.R < e J ` 2.t.h.s.w.5.2._ v r - : - 8 t h J R ^ D e s g = i J ^ ..@.$.5.8.8.8.5.$.#.o.D g 8 4 k G _ 5.s.j.k.k.l.x.j.k.x.u.0.1.",
"_ z , 0 M _ $.<.2.5.2.$.K x f 9 O 1 p v M R ..*.X. .R e * , g B / @.#.<.8.8.0.8.0.8.2.@./ D b 8 : x Z ! 2.u.j.x.c.x.z.k.i.u.1.*.",
"n f - % w z T R _ T x w , * - * , k n n J $.0.0.2...R b > 4 f G o.@.@.<.q.q.q.q.0.q.8.<.@.[ R Z 2 * z Z U *.8.i.d.k.c.z.j.4.,.| ",
"p , 8 e , - 7 0 w : * : < w 2 O a n z Z 2.0.0.0.0.=.R z e 8 g D | $.;.8.q.q.q.q.p.q.q.5.$.@.` T n e # r x ~ X.8.0.t.y.u.4.,.X.M ",
"> e s s h s q ; O X 7 f g f & - x n x $.0.t.t.q.0.2.^ v p 7 j D [ #.5.p.q.q.p.t.t.p.t.q.5.#.o.^ J n r * e k n _ $.$.*.<.X.^ m q ",
"s F W Y E Y J b p 4 * 7 x q X s n n Z 5.0.r.t.u.0.6._ n f , h M / $.2.p.q.q.q.t.s.t.p.q.6.<.@.o.! Z b e O = 1 r f M Y R M h , 4 ",
"{ r.y.r.6.,.,.X. .Q B 7 - % < h M _ ` 4.0.r.q.y.r.0...J x , q n ^ @.#.p.q.q.t.q.t.q.p.q.w.5.) ~ ` ' n z , > w , : 5 e f r = w Y ",
"7.i.z.c.d.i.r.r.y.0.2.^ ,   0 v Y | 1.q.r.t.u.y.t.q.%.! n 5 8 x R @.<.5.8.5.8.q.q.q.u.u.u.0.$.) .._ J z e 1 c J G k w * * s Y X.",
"y.i.f.i.u.d.e.0.j.z.u.*.Z , e v R *.0.r.y.u.t.u.t.y.;.` J u 4 k D [ $.5.5.5.<.5.8.p.t.d.p.0.0.=.=.@.R b s , J *.*.( J c , c  .7.",
"y.i.i.u.u.e.6.0.j.j.j.4.Y 0 e m _ 1.0.t.u.u.u.u.y.q.w.$.R b 4 t D o.@.;.5.5.5.5.5.p.s.p.s.t.q.5.=.$.! b n , H 8.8.5.*.L 1 z >.r.",
"y.y.i.i.d.6.<.f.j.i.i.,.M 8 p M  .6.r.u.u.u.u.u.y.u.8.%.} Y 0 4 Z o.o.@.5.5.5.;.5.5.t.s.d.r.0.5.<.@.^ v b w x q.t.w.8._ t 0 ,.r.",
"y.i.y.y.u.t.6.f.j.i.u. .m , p M ..5.t.u.t.u.d.u.u.r.w.*...T h = j ^ o.o.5.5.5.5.5.5.5.5.p.d.p.6.<.<./ v z g w =.q.g.t.%.c < { e.",
"e.y.j.i.i.i.f.f.j.i.q.} v , s M ..5.y.y.t.d.f.d.u.u.w.-.$.R F : 8 Q / ! 2.5.2.;.5.9.9.5.5.p.s.0.5.<.| S s x 9 ! -.w.w.-.J e J 3.",
"3.7.e.f.x.x.z.f.j.y.6.{ a : z Y ..1.5.q.y.d.d.u.u.t.t.-.X.{ J 0 4 D / Q o.5.<.5.<.5.p.6.0.8.p.0.5.<.@.D f b 8 Z -.-.-.' k , 8 R ",
"S  .,.4.d.x.v.f.j.w.7.W e , z E X.8.=.w.s.j.s.5.u.u.q.7.*._ S 0 4 Z @.` o./ o.5.5.<.5.5.8.8.p.0.6.5.$.Q h b 8 7 k u i y w l 9 , ",
"< S E ,.r.f.z.z.j.y.1.E 0 , z T %.5.5.g.s.d.t.5.g.u.y.q.2._ z : 8 Z ^ @.<.#.o.5.5.5.9.5.8.5.5.0.t.5.@.@.S b = , l P P P &.P l , ",
"; q F _ 8.j.z.j.u.y.1.M < , f ( 9.-.q.g.w.u.u.h.i.u.t.0.u.( t : 9 n _ &.*.5.<.=.5.8.q.8.5.5.8.p.1.=.5.$.H t : l ) 9.a.a.a.&.N l ",
"g = z W 2.j.j.i.i.y.X.v 0 * p K ..-.q.u.u.y.u.u.u.y.u.0.1.Z r : r D | 1.=.6.5.0.8.-.q.8.8.5.8.<.@.w.*.U G = t C &.a.a.a.a.:.U l ",
"x 5 2 R 2.u.i.i.i.u.| n a * d c %.*.8.g.g.i.u.u.u.t.u.0.G k r 3 d J ..<.1.5.0.u.u.w.w.8.8.8.q.#.9.=.L ! t , C L :.a.a.a.h.:.' i ",
"g r < Y >.r.i.i.i.i.R M v * w Z W *.5.w.s.i.y.y.w.u.k.` G m 9 : g D ` =.=.2.8.q.s.h.j.u.p.s.;.#.) I T C , l ( &.9.a.a.9.a.:.&.c ",
"u : , W X.7.i.j.j.z.,.E v - @ f n ( -.5.u.i.t.q.0.j.8._ _ v 9 # x A H U ~ ~ #.5.p.q.5.#.#.o.I Q ) ~ Q q t P ) :.a.a.a.a.h.:.) l ",
"> 1 1 W *.7.i.j.z.i.1.} h q x = x n } 2.8.u.0.t.4.5.X.*._ c 5 3 V K H A H I H ~ ) ~ ~ ~ ) ` ) o./ K g 8 H ( &.:.a.a.a.:.a.:.P w ",
"n p 2 F  .3.0.r.e.4.1.} g 8 ~ i , k J $.7.9.y.u.6.<.2.1.W c , O 9 g Z A D H D H I H A D I / ) ! D B 4 B ( %.:.a.h.g.a.a.:.) , + ",
"E 2 2 m {  . .W Y T Y S e u U H # 9 x J *.1.1.6.*.5.0.X.Y u # , # = 5 u j B A Z A I ! ~ Q T J D K 5 f U ' :.a.h.h.h.h.:.&.t + F ",
"F - > v v h f q 7 8 8 8 * , 5 : * O q x Z  .$.<.w.-._ W A * 7 r q 6 = = 7 w r d f g x B B Z Z U u # B U &.:.h.l.l.h.:.&.t . a W ",
"e $   * - * 7 8 8 0 e r r r a a a 9 * q z Z } X.:.:.R ^ 6 = f K Q Z B d 7 4 < 9 8 7 5 6 9 9 u i O 6 G &.p.a.h.l.h.:.) c + : , t ",
": * o e f v S Y m n J Y T Y F M n v w - e k n R K L T N = q ! *.@...@.@.R j f a 0 0 < ; = @ # @ # i C -.w.a.a.9.&.) N # w t 1 = ",
"r q , z M S J T R { ` |  .` ( _ R J b 9 - w h k M M x ; 0 b o...| ^ | $.,...[ ! D S n h d r 9 O 4 x K ' =.:.-.' P i : y M J n k ",
"R n < d D W _ ..*.*.2.<.2.2.2.-.,.| J k r = 9 x x v 9 * h Q ..` @.2.6.5.2.5.<.#.@.| / K Z n v p : l G L ' ' ' P r * r ! *.1.1.*.",
"*.^ a 9 B R ..t.6.2.0.0.0.t.u.u.y.5.*.R x r = 5 x g * 0 Y ..o.` 8.s.f.f.0.5.q.t.8.8.5.<.....! n < 4 k V Z c x w : g W 2.0.8.0.1.",
"2.$.J < u T } 5.6.<.0.u.u.u.i.i.d.y.6.=.K z t * 4 i = g ^ o.o.=.q.s.x.x.f.f.f.p.s.s.s.u.5.=.@.D f O . : 4 9 , < M _ 6.u.r.0.5.2.",
"2.=._ e 9 b ! $.<.1.r.u.i.i.j.j.d.i.t.5.*.L Z f : O , z _ _ #.5.p.b.b.f.b.x.x.b.k.f.d.s.s.0.<.} x * O 5 , w f J X.1.r.u.u.y.r.0.",
"4.<. .b 4 y Z | -.2.y.u.u.j.j.i.k.d.i.q.8.%.L v f 4 4 z R ..1.5.s.b.x.f.b.l.d.f.k.x.f.f.f.s.6.<.Z 8 7 x J ^  .,.y.w.0.i.i.y.y.y.",
"0.*. .S 8 9 d ^ -.8.y.i.i.j.j.j.j.d.d.i.t.-.@.W S f 4 p M ! =.0.s.x.k.b.x.x.x.k.f.s.f.f.f.f.s.=.` d ; v X.<.6.i.j.d.i.i.r.0.q.q.",
"2.2.*.R h , 9 K *.0.u.g.z.j.j.j.i.j.d.i.k.u.8.2.$.R w 4 c K K =.p.f.k.b.x.b.x.f.f.f.k.l.s.t.p.<...b ; h } 3.t.f.i.j.i.u.q.t.y.q.",
"6.6.1._ n q 8 j | 1.y.i.j.j.j.i.d.d.d.k.c.j.i.0.6.*.J 8 r ` K ` 0.q.f.f.f.z.f.f.f.f.k.k.5.5.s.<. .D , p ] <.5.i.u.i.i.u.r.t.y.u.",
"t.0.2. .J h , q L %.7.i.i.j.z.z.z.i.h.z.j.j.i.w.4.<.^ a 4 A ^ o.$.<.0.s.s.d.f.f.d.d.f.t.0.q.p.$...S ; e R ,.6.,.u.d.d.y.r.q.r.t.",
"t.t.0.,.R v < 4 F ' 7.u.y.j.j.z.z.y.j.z.j.j.u.w.6.<. .n , q K ^ | @.@.2.6.s.p.f.d.d.d.t.s.<.2...^ j > < b ] 4.4.6.t.6.i.t.r.r.0.",
"t.r.0.2.^ b e 5 F ( 1.y.i.i.j.j.z.g.j.j.j.j.u.w.6.<.*.T q & h S D R [ ..$.2.6.0.t.t.t.d.q.Q ` T h 4 $ $ < b ^ <.6.<.0.d.t.t.t.t.",
"t.t.r.2.} n p 4 i Y %.7.y.y.i.z.j.j.n.d.d.g.w.7.<.<.<...b . X ; 8 d x K ^ $.=.<.<.6.0.5./ D Z d 4 * 7 8 $ q M ] ,.4.i.u.u.t.t.t.",
"r.0.4.$.R m a , g Z ` 1.0.r.y.8.0.q.q.r.i.y.0.5.*.2.$...u @ q f 9 5 * : q S ^  .$.@.` ! D B y = = 9 i u 6 * d S R ,.y.d.r.u.t.u.",
"5.$. ._ F z 0 * k n T } ,.6.5.` O.-.8.q.0.8.2.<.1.$.! g * u @.<.} J r , X = r Z ^ | K Z B q = 3 d B A A A 6 = j S [ 4.d.d.t.0.t.",
"} R S k w 8 * O 8 d g J J _ ! ! ( O.2.2.0.5.1.*.| D r 4 j @.y.y.y.6. .D f - X - d b x f 8 * 4 j A H I H A B 6 3 s D ^ <.u.y.<.>.",
"x r = = , 4 0 8 - , 9 d n n x Z G K X.<.=.$...R n 8 = c ..6.z.v.v.c.d.6.T Z d < & 3 r 7 & 5 d A K I ! Q Q A B 6 ; d S T ^ ^ T Z ",
"3 8 w z n M M z a 8 % % 5 e e f x z Y ^ } ^ S h 4 4 K >.0.i.c.v.v.v.i.u.4.W D S h 8 @ X 9 u B K I I I Q U U I B 6 - p b n j s 4 ",
"Z ! } ....X.*.*.W n p - w w 4 4 w f z n M b e : 9 ^ <.r.i.i.z.v.v.z.y.i.r.r...J Z b 8 $ 7 q f B A H ~ Q U ~ Q A g 7 ; p f 8 3 9 ",
"| <.2.4.0.r.0.4.2. .n 8 N U U C u 8 q a p < < x ` 2.0.u.y.i.j.c.v.z.k.j.i.i.y.[ Q b f > < - < < 9 d C I U Q U P B f < = 3 q V ^ ",
"<.0.0.r.y.y.r.q.0.2.J 0 V &.;.&.O.D 8 ; ; 2 n ^ 4.y.s.u.s.j.j.z.z.z.z.z.z.y.y.4.R D p < v v h p 0 ; ; 6 i A I P B g q - f Y | $.",
"2.7.0.t.y.r.q.8.6.=.^ s u #.8.p.;.#.U 9 = z M  .q.j.z.j.i.j.j.z.v.z.j.j.z.y.y.e. .D f 7 v m Y Y m v f < * = 8 r d d 8 * v J } ,.",
"*.0.t.u.y.u.r.*.<.$.R p 4 I :.9.:.#.o.u 8 z M 1.j.z.k.z.j.i.j.z.z.z.j.z.z.i.y.r.X.R h 7 v } } ] W J F M f 8 * * * - & O ; q b [ ",
"R ..-.7.q.t.1.1...J u = = 3 A +.o.o.U 5 e b ..i.z.z.j.z.j.j.j.z.z.j.d.j.k.i.y.e.<.R h 7 M X.X.,.>.W Y Y W J n a q 9 2 w q 7 ; d ",
"9 f n E ..X._ K w , 8 g g y 6 6 9 g g , a W i.z.z.z.z.z.x.j.j.z.j.z.z.c.k.i.y.4.1._ v 4 D  .1.4.0.*.' .._ | .._ ^ _ T T J b a * ",
"q = 8 a v h e ; , l ( $.@.O.` G g 4 O 8 h X.j.j.x.x.j.z.z.x.v.j.j.z.n.c.k.i.r.7.4.X.v , J 1.0.y.j.u.-.@.....| | $.*.%.%.*.$._ J ",
"^ c < < p < - 9 L *.2.*.5.8.0.5.=.G , w R r.j.z.x.c.j.z.z.x.c.x.z.x.c.c.z.i.r.1.1.*.h : K 2.r.u.u.u.s.5.$.*.2.=..._ ` | | X.@.X.",
",.*.R r + + r J -.-.2.9.q.q.5.0.X.g , h >.d.z.x.x.y.u.j.z.x.c.z.z.x.v.z.i.i.7.1.1. .k : J 1.0.u.u.d.i.j.u.q.t.8.0.-.%.` $.$.@.*.",
"2.1.<.W , 5 z | -.5.0.0.q.8.8.2.` r < M r.z.z.x.z.8.i.z.k.v.x.j.x.c.v.j.i.4.1.1.1.X.a - J 2.r.u.s.u.d.d.j.l.j.u.u.i.y.r.q.5.1.=."
};
