/* XPM */
static char *ac6ecd69fc6b4d42a9e381587d869482gTdI3OPNVxbzIgaP[] = {
/* columns rows colors chars-per-pixel */
"64 64 247 2 ",
"   c #1E141D",
".  c #270E1A",
"X  c #3B0E18",
"o  c #23151C",
"O  c #2B151C",
"+  c #251A1E",
"@  c #2B1B1E",
"#  c #351116",
"$  c #34141C",
"%  c #3C141C",
"&  c #341A1D",
"*  c #3C1A1D",
"=  c #3E241F",
"-  c #160E22",
";  c #1A1723",
":  c #231622",
">  c #2D1521",
",  c #251A24",
"<  c #2B1D24",
"1  c #251D29",
"2  c #2A1E29",
"3  c #331C23",
"4  c #3B1D23",
"5  c #331E2A",
"6  c #3A1D28",
"7  c #1D242B",
"8  c #2D2125",
"9  c #28232B",
"0  c #2D222A",
"q  c #322326",
"w  c #3A2325",
"e  c #322927",
"r  c #33252A",
"t  c #3A262B",
"y  c #35292D",
"u  c #3B2B2D",
"i  c #2D2431",
"p  c #2D2934",
"a  c #352631",
"s  c #352A32",
"d  c #3C2D32",
"f  c #392A35",
"g  c #3D3134",
"h  c #3E333A",
"j  c #39353A",
"k  c #5C0E0E",
"l  c #4B0D16",
"z  c #5A0E14",
"x  c #461716",
"c  c #4B1315",
"v  c #44151B",
"b  c #4A131B",
"n  c #431B1D",
"m  c #4B1B1C",
"M  c #521415",
"N  c #5C1414",
"B  c #5C151B",
"V  c #561918",
"C  c #551B1C",
"Z  c #5C1B1A",
"A  c #670D0E",
"S  c #72100D",
"D  c #7C130E",
"F  c #791A0D",
"G  c #640E14",
"H  c #740E12",
"J  c #631314",
"K  c #6B1313",
"L  c #691C16",
"P  c #641418",
"I  c #631C1B",
"U  c #731312",
"Y  c #7B1412",
"T  c #731A13",
"R  c #7C1B13",
"E  c #781C1A",
"W  c #49211D",
"Q  c #562517",
"!  c #54221D",
"~  c #5B231B",
"^  c #78240D",
"/  c #692617",
"(  c #64231C",
")  c #6A211B",
"_  c #7C2314",
"`  c #762B17",
"'  c #73241B",
"]  c #7B241C",
"[  c #64371C",
"{  c #7B351A",
"}  c #431C22",
"|  c #491823",
" . c #551923",
".. c #5B1C22",
"X. c #621D23",
"o. c #442325",
"O. c #4C2325",
"+. c #472C25",
"@. c #43242A",
"#. c #4B252B",
"$. c #422C2E",
"%. c #4B2A2D",
"&. c #542324",
"*. c #5C2424",
"=. c #562829",
"-. c #5C2B2B",
";. c #5B3728",
":. c #422D33",
">. c #442835",
",. c #4A2D33",
"<. c #522D34",
"1. c #592B32",
"2. c #433234",
"3. c #493436",
"4. c #44353A",
"5. c #4A363A",
"6. c #45393C",
"7. c #4B3A3D",
"8. c #533334",
"9. c #5B3334",
"0. c #56363A",
"q. c #533C3E",
"w. c #5A3C3C",
"e. c #642424",
"r. c #682725",
"t. c #612A2A",
"y. c #6B2C2C",
"u. c #732522",
"i. c #772A25",
"p. c #63322D",
"a. c #683328",
"s. c #773728",
"d. c #642D30",
"f. c #643234",
"g. c #6B3433",
"h. c #663B39",
"j. c #743933",
"k. c #764518",
"l. c #5E4234",
"z. c #73482C",
"x. c #734538",
"c. c #463A41",
"v. c #4C3D42",
"b. c #493944",
"n. c #513D42",
"m. c #5A3E42",
"M. c #653F43",
"N. c #4E4145",
"B. c #4B4249",
"V. c #534245",
"C. c #5A4345",
"Z. c #54454A",
"A. c #5A4549",
"S. c #55494C",
"D. c #5B4A4C",
"F. c #4D4250",
"G. c #554A52",
"H. c #5B4D52",
"J. c #5A4D59",
"K. c #5D5154",
"L. c #5D565B",
"P. c #684645",
"I. c #634A4C",
"U. c #734643",
"Y. c #634E53",
"T. c #674F59",
"R. c #635355",
"E. c #63555A",
"W. c #68545B",
"Q. c #655A5E",
"!. c #6A595C",
"~. c #785750",
"^. c #5E5561",
"/. c #645C64",
"(. c #6B5C62",
"). c #715D62",
"_. c #6E6164",
"`. c #746567",
"'. c #860E0C",
"]. c #8A140D",
"[. c #87180D",
"{. c #96180C",
"}. c #841C13",
"|. c #871815",
" X c #941E14",
".X c #A31C0A",
"XX c #8A240D",
"oX c #93230C",
"OX c #9B220C",
"+X c #962B0B",
"@X c #85380B",
"#X c #9B360D",
"$X c #842314",
"%X c #8C2414",
"&X c #862818",
"*X c #922412",
"=X c #9B2614",
"-X c #932C14",
";X c #8D3213",
":X c #873719",
">X c #973716",
",X c #A4250B",
"<X c #AB230A",
"1X c #A5290A",
"2X c #AA2C0B",
"3X c #B72606",
"4X c #A8380B",
"5X c #B83807",
"6X c #A52A12",
"7X c #A63514",
"8X c #B03F16",
"9X c #852C24",
"0X c #863827",
"qX c #963A22",
"wX c #A53A22",
"eX c #C62C04",
"rX c #C33406",
"tX c #C73906",
"yX c #D63902",
"uX c #934A17",
"iX c #A9450C",
"pX c #B64509",
"aX c #BD440A",
"sX c #A9580D",
"dX c #B8580A",
"fX c #A44718",
"gX c #BA4815",
"hX c #AD5415",
"jX c #954B30",
"kX c #AD4E22",
"lX c #C84706",
"zX c #D74704",
"xX c #C65807",
"cX c #D75605",
"vX c #C04D14",
"bX c #E44901",
"nX c #E45503",
"mX c #F15E00",
"MX c #C96908",
"NX c #D76806",
"BX c #D67709",
"VX c #CE6B15",
"CX c #E56403",
"ZX c #E97805",
"AX c #854E43",
"SX c #8A6546",
"DX c #F49502",
/* pixels */
"u t t r r t d t d 0 Z J : < u r r q y r v 3.v.4.7.v.Z.Z.7.v.V.V.V.V.v.2.u d 6.n / B.N.S.S.K.!.Q.K.7.7.@.3 0 } @Xa.6.6.y r u y y ",
"u t t q 5 2 r r 5 : / Y 3 2 d 5.u r 0 = 4XL <.C.D.D.S.6.4.3.3.3.V.5.m.Y.7.o.q V f.N.D.E.R.E._./.6.4.K.D.w.-.xXuXg 6.:.s r r r d ",
"r $.t w >.6 i 5 0 > oXJ 5 0 d d d r } @Xj.I.)._.(.Q.D.n.4.g d d 3.3.q.C.n.0.&.i.V.A.H.R.K.L.S.f f G.H.D.H.Z.qX9.4.d 2.f q q r y ",
"u u u u f ,.c.f ; ^ .Xl 3 0 0 q d 2.) %.j S.D.D.D.Z.n.v.:.r q r q a u q 3 0 ) j.v.2.u 5.l.B.g e 6.l.V.7.7.l.s.f f f d >.>.a a 0 ",
"y f d d t >.f : v lX].b q 0 2 0 a o.V g y t y r y 2.2.t t 0 y s r 2 < , 0 < R w.v.5.q q r g 3.d 6.N.v.7.h hX;X2 d f d >.>.4.a 0 ",
"r f f u t u 2 . ` zX'.| 3 , , , < G ..N.u f 6.6.d 0 q r u 7.n.n.V.v.4.u a v ' V.v.:.2.4.4.7.D.n.6.N.v.4.) cXR i >.d r u d 4.f a ",
"r f >.>.d q ; v ..0X<XG  .,.n.5. .2X^ a g y 5.3.5.6.7.N.Z.N.4.v.Z.b.5.4.2 K t.6.u $.3.4.7.v.v.5.7.V.4.` zXnXOX5 f d r y u >.>.y ",
"a f t a q : > E >.5.tX*X9.4.v.H.D.` 5X^ X O g V.d a d :.-.~ &.,.,.e./ J +XpX| u :.7.3.4.7.v.d :.7.<.>XBXcXcX2X| r q 8 q r a 4.q ",
"a a 5 r 3 : V OX| s.aX*.f d d h S.Y.g.0X&XI m ( ~ ` ` 8.x.s.3.H.H.A.C.M.9X5Xe.4.3.l.v.V.n.2.d v.v.s.fXw.w.z.tXG % < 2 8 r d a 0 ",
"0 0 0 q , 3 $Xt.m.m.-.X.r u e y g N.S.B.C.-X5Xg.` 5Xp.Z.F.l.k.y d v.n.Z.9.{.y.v.2.7.Z.v.t u 4.4.&.{ h i q 0 gX.XN n 3 3 y y < 2 ",
"2 8 0 0 , L ) v.E.n.,.U m y w q q d u :.6.5.s.) % @.h 4.p uXCXu.,.3.n.E.).9Xy.b.6.n.v.r 8 r %.&.E %X4 3 , - k.yX'.G M | w < , 2 ",
"0 q 0 2 L ' 0.R.5.2.d L {.! y y e t q 4.4.a b.U.%X~ 0 p y #Xu.c.6.a f 4./.M.%X&X .f r > * ~ &.C.n.I J M J C ^ zXeX].Y P m % & < ",
"2 2 6 _ s.w.I.2.y t 2.,.2XlXV 4 q 2 0 u b.@.4.T.j.h.u 8 :X$X0 d a d h b.c.m.d.+XlX-XJ ^ oX*.4.y 0 4 S {.&X:X0XjXlXyXeX{.'.D G 3 ",
"K R rXtX} S.7.8 u 2.g O.lXBXpX+X*X&XQ t @.1.c.>.<.f a ` :Xu e d d d c.V.G.b.n.>.s.x.jXkX` g y < 2 c _ -.y h G.G.P.jXcX5X7X7X{.D ",
"-./ pXlXl u g u 7.3.e r.x.l.P.~.0XeXyXxX6X XE {.}.p 1 o.w g u u t y g n.J.n.n.a N I ' 8XZ s 0 < 4 K r.:.$.u g s s g :Xx.R.I.U.P.",
"H.Z.>.$XR w g 4.2.y | C.B.h f l.(.SXbXZXDXjXAXjXqX| < @ s 3.2.u 2.4.7.Z.Z.b.Z.f ;XgXjXjXr.0 3 b H ].P t 8 9 8 = ! s.l.V.C.7.V.D.",
"I.`.B.Z 2X9.4.q y w &.7.6.2.2.7.V.5.hXNX~.^.G.J.n.u.] e.%.:.3.3.7.v.c.v.b.b.G.:.s.m.F.G.A.V.m.9X.XeX].z  .] ` r.P.E.V.6.4.4.q.A.",
"!._.h Q lX9.6.d y w #.g u g 6.u e 6.a.AX/.n.5.4.u 3.&.3.q.3.2.7.V.B.v.c.c.6.h ` t.h f t f T.).W.U.jXzXtXtX9XM.Z.Z.Z.A.H.A.V.C.D.",
"V.D.6.! 2X-.o.o.r } O.d q 8 8 q t V.m.T.v.d a q e u 8 8 r u $.w y h 6.6.v.b.3 4X&.i a a a 2 a a j c.kXZXi.h b.b.2.v.H.Y.Y.C.5.2.",
"7.V.Z.8.6XE Y I  .R  .,.$.y q t y :.0.4.u r 5 r y q e q r e u $.u r d f v.a O.vX| 1 2 i i 2 : 1 : 1 &.4X>.4.5.3.d :.n.H.C.2.$.:.",
"2.5.Z.,.{.E g.g.E {.P ..=.:.s p #.L y 8 0 q 0 0 q < + 8 y y y g 5.d 4.d >.2 ` vXy.| ..| 2 3 1 2 0 < B X.N.n.n.4.d u 5.v.2.:.d d ",
"a y t q #X.XX.X.<X3X].].}.] ) / %X*XZ } < 3 3 t 5 + @ * u y y d 6.7.,.d h } ) T.).I.M.X.5  .| | | | |.I Z.A.n.n.v.4.:.3.4.2.3.d ",
"K.H.q.d }.cX.X,XCXbXyXrX>X&XfXpXs.H.s.OXK N C X.P k S R e y y d g v.V.0.b.s.) b.W.n.Y.f.% ' 1X] *X5X5X..Z.b.n.b.4.:.u $.4.4.2.4.",
"n.q.4.6 |.yX X9XcXxX>Xg.H.n.6.8.9.Q./.g.y.m.q.P.g.r.:X7X~ e u y d 4.d n.0.9.j.6 Z.n.n.9.E pX! 2 t uXfXt 4.4.4.>.t t u u 3.4.2.2.",
"u 5 0 3 Y zXrX=X|. .c.E.C.2.u e | | d @.9.S.S.K.K.K.E.I.i.I y g :.4.g y 8 9 o.Z n.m.b.7.j.7X%     3 *.W d 4.4.4.4.d u y u :.2.u ",
"2 < r 6 {.VXgX$X3.v.D.C.$.u w 7.D.*.% n 2.N.D.K.V.Z.Y.R.5.XXT y :.6 & O M v 4 L r 6.:.r d =XY % > O n | 4.d 4.b.3.u y y q r 0 < ",
"0 t g | pXSX(.M.H.l.q.2.u u V.V.u @ q y g 3.7.V.A.V.Z.n.b.=.7X] e.&.9.9.j.d.f.fXF b b.%.} =XeXz $ . v %.d u 5.n.7.3.d q 0 8 < 8 ",
"5.4.@.-XMXR.`.E.v.7.V.:.2 s d 2 : q r e r y v.J.Z.n.Z.V.H.A.I.-X&.d g g 4.h 6.B.AXaX9X1.*XwXkX&XT k l 6 @.5.v.N.7.7.4.e q d $.d ",
"r ! 1XxXuXJ.).V.v.V.:.r < r r r q :.4.4.h n.W.E.H.B.V.B.V.J.s.OXw 8 @ 8 r 8 q w j z.pX4X>XI./.Q.9.OX5XoXt.c.v.v.7.2.u u d 3.2.u ",
"x tXbXNX;.c.).7.r :.>.r 5 r y d g 3.7.V.Z.N.S.S.Z.n.B.V.5.6.$.F % + 8 @ 8 8 w 8 q y u.iX8.r 2.N.B.p.tXi.d u d s y r r u 2.2.0 o ",
"/ &X].rXQ j C.#., f 6 5 d f f d 6.N.N.Z.G.B.S.H.G.Z.V.n.5.4.y V c o @ @ @ q q 8 @ < o.*XW , r y g j &X) 9 0 0 8 < 0 d 7.a : Q ^ ",
"g q.) {.+X+.-.n a r 2 4.f f y 6.N.Z.S.K.H.H.D.G.H.J.G.F.Z.v.d & N + < < = 8 < + @ < * 4XA ; e y y s -.E < 0 u u t g d 1 m sXMXa.",
"2.2.<.R <X1Xc a q , 1 d 5 r 6.v.S.D.H.L.J.Z.Z.H.J.E.H.N.4.g u & XX* q e e y 8 + o ; W F A + 0 y i e 8 E 3 1 r d g 9 % @XNXlXt.n.",
"3.$.3.*.Y {.% 1 2 3 B ..} a u N.K.D.K.E.L.Z.h 4.V.V.g y r y s x XXw @ @ @ q 8 @ + o m M $ # o 8 8 8   $X) l % i } ^ MXDXMX| n.5.",
"2.3.5.3.O.U R v > [.E >.s g a d 6.Z.V.v.6.d 0 1 r g r r y d d c k m n o + @ e q = O c N O 3 .       8 pX}.B M c R <XlXDXsXa 2.3.",
"3.5.3.$.2.,.*.T R }.>.h d f 4.s y y y 8 : , 0 0 0 0 e y w t r V OX' O.w 8 u q 8 < # K F u d 2 + @ Q ;X( 3 3 * @.r u  .tXuXy 2.6.",
"7.V.4.$.u 2.+.w C A 4 4.4.y f d u 0 8 0 8 q e e 0 : 2 y t e } g.t.T } d u 2.u 8 & K ,X! p 1 8 9 M 5X/ ; q q q g 6.d d {.-Xd e 7.",
"7.7.2.2.$.g 3.t @.] l a 4.f d d y e 0 r y d u u y r 5 2 2 < r.w.I 1X) t y u e q P ^ 4Xo.g l.4.. # XX= 9 q 0 e u g u g ` %X2.y 2.",
"d y t u $.y $.2.4.u.G : 2 4.4.a e y y g g 2.g 2.4.6.6.y < #XfX$.g.P.O.V v & e * K @ Z V p S.i Q #X` 8 8 r e t g g g g p.;Xe 2.g ",
"e d $.4.5.3.w y 8 XX2Xl > 1 f 4.w u 2.4.2.$.2.4.$.2.4.5.*XcXs.K.Q.6.g =.M O @ x K % $./ ^ W L MX#X2 e 8 q y g u u u g ! pXQ y 2.",
"u 2.7.7.4.6.) ( / 5X2X}.Y z X a o.2.4.4.2.2.2.3.2.g y ] 5Xy.G.L.S.6.g 0 n c 4 m [.k @.9.yX4XW { &Xi y e e u $.2.$.$.g } aXlX .y ",
"g e f h ~ J 7X5X=X|.9.C.9XE '.|.}.| j 3.2.3.2.2.2.g ~ tX/ N.H.B.N.u 8 @ c K n b {.oX% y +XW 7 ! _ 6 w u +.u u u e u d @.#XzXMXw ",
"& ~ { oX<X6Xi.y.&XU.w.o.$.d.u.6XcX#X# y 4.4.2.2.g $.-X` :.D.n.l.d 3 3 c G K z H 5XlXF ~ +X+ 8 = V o.u d 2.g u e u y g =.iXlXgXsX",
"Z :XlXzXeX=XK E i.K.R.I.9.-.E .XzXZX5XA n y g $.t ' ' h K.V.V.2.r 3 % c A H D 3X;Xo.L ` / x 8 + & o.8 e g 2.2.2.+.+.$.,.6X<XT tX",
"v.R.w.9.d.6X3X.X) 2.2.7.q.V.I.9X' ) ;X5X1XJ % % G oX@.V.!.C.2.u r n * b S 3X3XzX~ < < : , } m $ @ m q t g u 2.2.4.3.1.d.6X3X2X:X",
"V.H.H.Q.^.-.tXyX] r u 3.:.u n.I.5.7.N.V.x.{ oXoX1XxXm d V.2.u r 3 3 3 b [.iXjXfXW 8 2 < : < q w W n * g u w g u g d #...=XnX] f ",
"u :.7.D.H.,.lXmX%Xq q 4.5.4.:.5.m.5.S.D.S.b.s.NX,XtX~ s 7.q q q < < & b #X= p V.@.q q q < , < 2 8 o.C q $.g g u t %...D lX>Xg 3.",
"q d 4.2.V.v.:XCXR n q y u >.:.2.7.C.m.n.V.A.3.:XzXbX/ < 2.q < < < , O K _ 0 r 7.$.< y q 0 8 , q q , ( m 9 g 2.g %.Z ].rXiX:.d e ",
"r y f 4.V.Z.p.tX].E X.@.h 6.4.n.H.D.m.5.3.V.S.3.fXDX@X1 u w e < , , $ [.Z 1 < 0 v < 2 r 0 r 8 q q + * 4X[ 8 3 | z {.tX*X>.u w q ",
"u d e 4.Z.S.3.<X Xi.9XM.v.V.n.V.A.C.S.S.7.6.C.V.<.BXsX5 g t 8 + , < v ].R > 1 3 F 4 9 2 y e 8 8 8 @ O #XCX>X:XaXxXnX#Xd g q y w ",
"d 2.s d 4.7.4.+X.XK =.h.h.A.n.2.y a y V.R.R.R.R.N.a.iX@.< 2 < < 8 3 H 3X3XD Z y.>XE } 0 y r q 8 q 8 * }.y.P.0XgXVXsXu d t e q w ",
"g s y y 5.7.g iXeXH  .t 3.V.v.r y s q q 2.Z.D.K.N.W cXaX$ o < q 8 &.&Xi.s.j.U.I.^.P.&XJ m 2 < % % 3 B 1XZ t.:Xa.,.4 0 u t y y w ",
"d g s r 2.g 4 pXlX[.b 3 2 d 4.r e s u q q r u 2.d N 3XbX#X- - : q n.K.L.K.B.S.S.A.R.P.y.E N b l G D {.cXdX>XlXuX[ q q u d t y $.",
"u 4.6.6.g 2 Z 9.t.{.z % 2 y d u 8 y r t u r u u g Z lXcXcX#XV X :.N.7.S.D.V.V.V.d 5.7.N.Z.=.D ]..X1X` 9.V.S.g.hXDX+.u u u e d g ",
"0 y d d 0 $ C 6.6.$XU | 3 y d s y g u q u u u :.6.[ cX{.=.-XnXiXa y s d 4.7.3.6.6.3.3.2.3.h L ] g.f.2.6.V.V.S.D.jX/ y u e u g y ",
"u y a 2 4 / 3 $.:.4XY b 4 2 d y 3.7.V.4.r u u 2.g *.CX{.c ..5XxXv + < v * e @.$.t r 3.$.u 4.C W 9 u :.:.t u $.S.I.) w y q y d u ",
"u u , n MXsX0 2.:.aX2Xl v < r t q t 2.V.7.2.u 3 o ^ cX=XR ) x.U.h.w.q.h.u.# % O O   q :.3.4.x M @ 3 q 3.n.7.4.7.R.s.~ s $.t u s ",
"< n T 1XcXMXo.y t 6XyX*XC v $ 3 9 9 , < f r c F pX7X#.2.3.n.H./.K.S.C.S.D.j.$X{ = , < u n.g * J @ 2 r :.5.6.6.d f 9.&X+.i r q < ",
"q 4 #.1.r.>X` % >XtXeXtXu.y.g.1./ ` ` / / XXtXbX4X,.6.7.5.n.S.Y.D.V.V.V.V.S.x.xXBXQ t u 3., / K & & y y r 0 0 0 r g 9XdXk.n 3 4 ",
"u t f c.V.n.w.&.;XyX<XI @.d d 4.a.gX{ %XzXrXyXeXy.Z.V.A.v.7.l.D.I.R.!._.!.D.S.9.cXiX5 t < $ <XS * q q 5 y a r r t y ,.cXMXb 1 3 ",
"u u u $.:.3.6.j s u.{.v q 4.4.u y <.e.T rXeX3Xi.V.Z.7.4.6.N.V.D.C.D.R.!.`.).!.q.oX#X@ q , N 3XI o.u u q r y s r y s w dX` 0 r 5 ",
"r u t u u d 2.3.6.d Y Z w 2.V.4.r u 5.P.j.rX}.6.N.6.6.7.V.V.Z.q.3.3.5.5.D.K.R.:.oX@X2 q O F rX X% < u g q y d d y q iXuX4.u y q ",
"w w t t $.u u 2.2.y Z m r d d r d d t 6.c.}.E j N.6.7.l.V.A.7.5.5.5.3.q.V.A.q.> #XlXv q =.p.8.p.t.#.q u y u 2.7.f ` >Xf 4.y y r ",
"u u y w u u u d $.8 M * 0 y r r r r y u r &.l.N.6.6.c.B.7.7.7.7.7.l.5.5.5.V.v.3 4XhXh.S.S.H.S.N.N.C.$.r y 0 r 2 * { d u u d d u "
};
