/* XPM */
static char *_1b30cc5651f4868bdbd0d35d6959fc6papH9kyVCRSykrYi[] = {
/* columns rows colors chars-per-pixel */
"64 64 255 2 ",
"   c #040103",
".  c #0C0205",
"X  c #0D0308",
"o  c #130205",
"O  c #1C0205",
"+  c #140309",
"@  c #1C030B",
"#  c #190808",
"$  c #1D090A",
"%  c #1E0310",
"&  c #230205",
"*  c #2B0106",
"=  c #230A05",
"-  c #2B0B05",
";  c #23030C",
":  c #2B040D",
">  c #25090B",
",  c #2B0A0C",
"<  c #320105",
"1  c #3B0106",
"2  c #330B05",
"3  c #3A0B06",
"4  c #33040D",
"5  c #3B040E",
"6  c #340B0E",
"7  c #3B0A0E",
"8  c #28110B",
"9  c #33120D",
"0  c #3B130D",
"q  c #3B1A0B",
"w  c #250410",
"e  c #2D0311",
"r  c #2D0910",
"t  c #340511",
"y  c #3B0511",
"u  c #350A11",
"i  c #3C0A11",
"p  c #341311",
"a  c #3C1311",
"s  c #3D1A13",
"d  c #440107",
"f  c #4F0007",
"g  c #43050D",
"h  c #4B040C",
"j  c #430A0E",
"k  c #4B0B0E",
"l  c #550205",
"z  c #52040B",
"x  c #530B0D",
"c  c #5B0D0D",
"v  c #43130C",
"b  c #49190E",
"n  c #55120E",
"m  c #5C120D",
"M  c #581A0E",
"N  c #430611",
"B  c #4B0611",
"V  c #440B11",
"C  c #4B0B12",
"Z  c #510712",
"A  c #590710",
"S  c #530C12",
"D  c #5A0C11",
"F  c #441413",
"G  c #4B1313",
"H  c #451C13",
"J  c #4B1B14",
"K  c #491C19",
"L  c #541313",
"P  c #5A1313",
"I  c #531B15",
"U  c #5A1B15",
"Y  c #531418",
"T  c #541D1A",
"R  c #5C1D19",
"E  c #630D0D",
"W  c #6A0909",
"Q  c #6C0C0D",
"!  c #710A0E",
"~  c #64120D",
"^  c #6B130E",
"/  c #661A0C",
"(  c #71140E",
")  c #7A170D",
"_  c #640D12",
"`  c #6A0D17",
"'  c #720E11",
"]  c #631312",
"[  c #6B1413",
"{  c #631B14",
"}  c #6C1B14",
"|  c #60161A",
" . c #641D1A",
".. c #6B1D18",
"X. c #761512",
"o. c #741B13",
"O. c #7B1B12",
"+. c #47210D",
"@. c #4C2214",
"#. c #4E2719",
"$. c #542315",
"%. c #5C2315",
"&. c #5E2B13",
"*. c #5C2C16",
"=. c #552419",
"-. c #5C231A",
";. c #562A18",
":. c #5D2A1B",
">. c #632416",
",. c #6D2317",
"<. c #662C16",
"1. c #64241B",
"2. c #6B251B",
"3. c #652C1B",
"4. c #6C2C1B",
"5. c #742315",
"6. c #782714",
"7. c #72251B",
"8. c #7A231A",
"9. c #742C1C",
"0. c #7B2B1C",
"q. c #63331B",
"w. c #6D321D",
"e. c #6A381B",
"r. c #74341C",
"t. c #7B331D",
"y. c #743B1E",
"u. c #7B381C",
"i. c #5F2D21",
"p. c #6A2621",
"a. c #732D22",
"s. c #782B22",
"d. c #683521",
"f. c #743422",
"g. c #7B3322",
"h. c #753C23",
"j. c #7C3924",
"k. c #773829",
"l. c #7C411D",
"z. c #784327",
"x. c #861A0E",
"c. c #831E15",
"v. c #971D1A",
"b. c #A31F1A",
"n. c #832314",
"m. c #882817",
"M. c #842D1C",
"N. c #8C2C1B",
"B. c #992913",
"V. c #85361D",
"C. c #8B331D",
"Z. c #97361A",
"A. c #A82413",
"S. c #A63A1B",
"D. c #8E2F20",
"F. c #843422",
"G. c #863925",
"H. c #8C3D23",
"J. c #953620",
"K. c #933922",
"L. c #9C3C22",
"P. c #A43D23",
"I. c #88471F",
"U. c #92401E",
"Y. c #A5461B",
"T. c #834322",
"R. c #8D4424",
"E. c #8C4C25",
"W. c #85452B",
"Q. c #8C4329",
"!. c #854A2A",
"~. c #8C4C2B",
"^. c #934324",
"/. c #9B4324",
"(. c #934B25",
"). c #95462A",
"_. c #99442A",
"`. c #934B2A",
"'. c #9C4C2B",
"]. c #975225",
"[. c #95512B",
"{. c #9C532D",
"}. c #864932",
"|. c #8C4B33",
" X c #964B32",
".X c #8F5338",
"XX c #945432",
"oX c #9C5534",
"OX c #9C5932",
"+X c #995B3B",
"@X c #A24322",
"#X c #A64B27",
"$X c #B94721",
"%X c #A6562C",
"&X c #AA552D",
"*X c #A55A2C",
"=X c #B6552B",
"-X c #A35231",
";X c #AA5632",
":X c #A45A34",
">X c #AD5C35",
",X c #A55B3B",
"<X c #AA5D39",
"1X c #B45C37",
"2X c #A56029",
"3X c #B4632E",
"4X c #AC6234",
"5X c #A66339",
"6X c #AA633B",
"7X c #B46233",
"8X c #B66739",
"9X c #BB643A",
"0X c #BC6C3A",
"qX c #C3562A",
"wX c #C26433",
"eX c #C76937",
"rX c #C36C3A",
"tX c #D16530",
"yX c #CC7236",
"uX c #C4723C",
"iX c #CD733D",
"pX c #D3793D",
"aX c #AF5E40",
"sX c #AC6743",
"dX c #B56C44",
"fX c #BD6C43",
"gX c #B86A45",
"hX c #B7734B",
"jX c #B87753",
"kX c #C47443",
"lX c #CC7644",
"zX c #CD7B44",
"xX c #C67649",
"cX c #CD7148",
"vX c #C6794A",
"bX c #CC7D4D",
"nX c #D47542",
"mX c #DA7B46",
"MX c #D47E4C",
"NX c #C77E52",
"BX c #DA8246",
"VX c #D4824C",
"CX c #DA824C",
"ZX c #CD8354",
"AX c #D38453",
"SX c #DA8957",
"DX c #E5884C",
"FX c #E68C55",
"GX c #E5925B",
"HX c #F29558",
"JX c #D78D63",
"KX c #E89968",
"LX c #F79D6C",
"PX c #F5A06C",
"IX c #F5A26F",
/* pixels */
"6 6 @ $ k F k i N W S.tX* i 6 ;.M : e j x S I @ : ; - m.U s.j.* 7 & @ F 0 o o ; ; o & o r.zXy.4XeX*XpX#XX v P ; V : @ u t w + q.",
"D 7 + ; x.6 i C t g &XDXj.V < / } j D 5 V V i i @ $ & #XH.k 2.: @ > @ H ;.9 > = %.~./.Y.pX$.  @ +.y.].uX> @ e $ : + + @ @ w : @.",
"y i m $ } 4 t t : } mX9.'.rX#XO.7.- 6 ; + @ > > ; o * @XJ o p p o @ . '.CXrXlXVXFXuX].e.I & + +     $ pX=.  e @ ; + > u @ $ t u ",
"[ [ ] y V ; g p.@X1X7X* 4 U 8XL., . o @ , o $ p @ @ X 9.I & O <.j.G R.].b 9 q y.u.o     . & @ > + o o {.zXO X > w : @ w : @ X $ ",
"A.) ! ! 1 U iXtXN.Z.V.< N w * 1X3.@ , > ; o ; K @., O T.iX<X8XrXkXbXzX=.    . F W.o > , : i : $ + & ; 6 SXOXo & @ @ + + : e o X ",
"v.S.S.qX&XzX#X[ E _ ^.-.5 , @ t.4X& : @ @ o , 0 p ;.r.lXh.q.z., O H v d.o o . $ [.$.X 4 : : N : X > e X b CX'.o + > e + + > w $ ",
"S.tX9X`.;XP.B D ` A [ 0.V t G { iX;.+ r ; , J @ + o <.Q.o o o > o @ O -.p X O   0 %Xi : : : : : y e : @ & 0 zXu.+ @ @ @ $ + + + ",
"7 ) h : 5 c A B Z _ [ F.7.F G V H.vXj * ; : k.u + X @.+Xo > ; : ; 4 @ , a . $ O v zXM.e w : : @ : t : : u * u.lX: w > e ; + + + ",
"` B i w V 6 , N D S D m.>XS 4 : : `.CXz.; o -.I @ o : j.> o + > : , > ; ;., . H ).-XoX< [ S t : + > : @ + @ v VX;.  + w w X , E.",
"Z t $ > N A V u ^ i N K.2.5 V ; 4 & d.bXeX<Xj.*XT.=.H F.G o @ 4 j 5 4 @ F J a `.J ,.vX, ; u 4 u t i @ @ > @ w.uXOXf.$.o w : #XwX",
"Z D N X + > : : S N ] #XV : > : 7 : o = $.w.0XFX{ 4 ~.*Xd.@ @ 5 x.~ : 4 4 g.`.0 o & oXOXk > @ : N ] g 7 ; * 9XDXKXIXLX^.  , =XQ ",
"w r 4 > y > X @ k B 5 Q.;.g S , j : : O     J SX;X:Xr.L 2.; ; ; 4 x g I j.-.7 ; N 4 7 ).R.2.t : e w 6 : ; OXMXM H q z.mX%.z.qXc ",
"V ; w i N i : e : G N x `.F N $ O @ @ ; + ; 4.7XR.J ; P 0.& : 4 O <.@XH.x @ ; ; j j 7 C } M.Y g t e : @ L uXJ : @ .   !.yX3Xm.E ",
"B y i ; t > 4 ; : : L f ^.d.@ @ ; ; @ ; o ; NX_.5 @ ; 4 W.7 + ; -.).L [ c 5 5 N ; > N N S j.J 5 j S t ; $.{.N j w $   e.DXeXg.y ",
"i i S N w e : : A C D N G XX, @ O O $ @ X & 0XeXF : : : k.G @ @ W.H & t 7 ; ; 4 4 4 } < 9.'.5 O + 4 4 : 4X8X4.7 + $ O 8 z.OXmX} ",
"i @ P C @ * : ; Z E 5 e O -XK @ @ @   & 2 z.FXn.R 4 e G XX0.>.j.XXu ; ; ; ; & e e w 4 g a.%X>XW.j.sXgX=XyXT.@ @ + @ o +   . nXK.",
": @ @ * ~.oXg.9.n 3.i.T f.'.j & @ * I [.bXMXP.h 4 g C Y p.4 V 1.[ i t e ; ; ; 5 g x t C B R G.kXIX8XXXr.!.a + + + @ X + X   sXnX",
": * :.8X&X>XSXCXGXGXMXGXCXVXZX.X2 [.MX-X4.k z 4 ; 5 2.).: y t t g D ..y : : : B _ A 5 5 B h <  XjXO   o X ; ; ; ; @ X X +   +.DX",
">X`.0X+X& O * M f.J 7 9.*X9.F.9XSXxXL f C C A k : 4 A L.T 4 G U h g P P 4 w & N C C j y 4 B h oXhXO $ ; @ w ; ; ; @ X @ #   o rX",
"8XHXN.1 w @ @ n 5 @ : g 8.7.< h 8XG & r V L x O.S t 5 /.g.4 p.g d : 4 N C 5 4 y N ] E C t : * ,XJX1 + ; ; y > + w w @ $ $ .   *X",
"@.FX4.@ k ~ k 4 V 7 g e A X.m.] dX Xh @ > N e 4 5 5 g 5.fXF.Y 4 P n.h L i 5 C x z 4 j [ C 4 0.kX;X[ @ @ @ N y % : , ; + . + X `.",
"q.AX1Xd 6 ] O.S L 6 u > t A N.[ L 1XeXL u s.g t g t t z =X;X< t C m.P S j 4 4 N c h B S D z hXF.h Z N t e w e : @ r , ; $ , + I ",
"o `.LX! y ; j ] ] ; : S V g Z.U 4 1 K.fXy ] ] : C ] N 5 { cXP & : < h 4 t S g N A y B t B f jXz.O 6 i : _ 5 : L > w ; r : $ @ X ",
"  3 JX1X! O.S 5 _  .7.V.<.H.#Xc 5 N z vXg.P s.{ 2.g.7.4 i 1XdXjX XF.Z.] 1 1 5 e C x e e C W gX.XO j : t G : : 7 e t y > r : + # ",
"X   e.IXM.B Z C 2. .a 7 4 ;.H.9.,.I 8.1XkX<.k.j.I C -.9.2.j 6XjXQ.hXbXMXsX-Xa.P 1 y w @ 4 W zXG.4 y : n C t y : ; w ; + r N F *.",
"X X . fXeXc ] D.I + ; ; @ C D { O.G i *XCX2.; & ; ; t I i o .XH o @ : 1.dXjXSXAX Xp.Y V.>XwXKX X4 ; y t : t e t : w w * , T p.9 ",
". o & 4XyXf y B N > 7 , + 6 N j o.C + <.wXQ.u : : ; ; u a : aX#.+ w @ + d d x M.aXrX0X0.M.P.mXG.; ; : y e : i ; ; O > 3.G.U O + ",
"# . 6.BXZ.h i k V 5 e > X @ 4 C k D : >.1XM.K @ 5 : ; r : 2.AXF ; 4 y 5 i g N 5 d g G 5 y D MX] @ @ @ { c.N 5 ; F z.f.$.G c $ + ",
"#   q.LX) k V { Y N 4 4 > : g y g ~ 4 7.fX] R ; ; @ * -.{.dXsXC : t : N : 5 N C N S 5 4 t P Y.F : w 6 >.] ).K.9.oXw.7 @ ; w ; + ",
"$ + - AXmXh V P V y y g : : C _ ] : O : 8X/...u 6 -.t.lX6Xg a.1.: e @ 4 i t t y N P V C 1 `.:XO o * O + y 0.Q.{.Z.: + + > y y @ ",
": u <.7X<XV N D 6.t 4 : V a C N } m : O f.1X/.6XdX,Xk.g.}.@ N p.t y 4 t S 4 y g t : 5 _ B.5.VX8X!.sX|.%.XX3.5 @ V V ; w : : t % ",
"@ 9.DX..O @ t : ] Z L V P i $ @ : 7 # o i <XZ.R { 4 : C gXp.5 7.C ; 5 e y y g N B i N N n.5.n Y.pX,XdX6X8X-.: V 6 i u t y : @ + ",
"  9.nXz N C N w c x.V 7 i r 4 C 6 i 6 i : '.F.f E C w : j.gX* #XaXp.p.y 5 h g C 5 4 c A ] tXB.] ^.; O <  Xk.: u 6 4 t w % ; @ X ",
"P M HX(.g x 4 y i j 6 i e 7 x S , @ 6 N R rXD z x y : t C >X}.5 K S |.S y 5 N c N ; 5 S h M.$XS.{.y & J g.i e t u : ; > ; ; + o ",
"a.t.GXyXiXfXr.4 t + , N D C E y 5 ;   %.7X8.S g g y 5 V  .>XsX* w t R N C h h N c c m g j i 4 ).XX5 -.W.5 i t X + > ; t % w > X ",
"3 BX!.2 =.OXPXQ.< 5 d e u k 4 w @ @ : NX_.f B y N x C S 1 ,X+X4 N V 1X| 5 x h g c ) ( S N C & oX X: -.XX4 t y i @ X + > w + @ + ",
"j.CX- t ,   h.KX1XVXW.: : e ; w ; ; G xX[ E g h 5 B y t 5 F.jX4 t & u.rX2.h E ^ c ) x.5 7 i 1 0.hX4 : 7.H ; $ P i o X X t + . + ",
"&X{.+ 6 t + 2 oX>XR.iX<.o > ; ; ; + s ,Xx k y 5 4 y h : B ) gX|.d : O G.<X7.x.z m c c g 4 V d N.MXJ $ I R 6 2 M.j.*.H 8 : ; + X ",
"3Xh.o , $ o ; 5 4 . r.CX4.o X * o   p '.h 4 ; 4 5 5 y S D t P vX}.4 L N S XX} ( } E 4 4 N m.c.lXw.I G J ; e % 6 6 s @.3.y.J $ +.",
"eXH + C C @ @ t V Y * `.mX:X+XhX,X5XbXnXg @ ; : N h S h x S g m.zXk * : < H.T N S g i 4 : / wXr.. O , O > y y @ o X + O s e.l.BX",
">Xo > C j % $ e t j @ 7 j.l.5Xg.C./.5.H.G : : : 5 c _ t B k i d gXSX|.}.2.Z.R.l z h g k j o.zX6 @ : u t t B N > ; @ + + X = 0XgX",
",X* u > 6 V C i w > > Y 6 O & & ; < 4 C f.y ; @ ; i O.5 u t 5 * vXSX'.wXwXxXKXJXdXZ...m l D.CX2 $ i N t t w @ + o @ # @   ;.Z.* ",
"J ; > X . ] [ N S N i 1.: t i 5 y 4 y g } P V 1.] > n D ; @ h 1XKX| < Q ( o.,.-XnXSXMXMX1X8XSXkX%.F , @ o + # # +       O ].0X>.",
"> ; o # > t C N [ B 5.p.@ e : @ 6 4 V S g l O.m.} I 6 u 4 ; - KX|.< y S A N & d z / ] C.gX9.] SXf.+ + X X + 9 F ; :.!.z.E.uXE.0X",
"@.# + O $ C ^ { 1Xm Z.@X: + ; + @ : 4 4 V c ^ ~ N G j i i 4 #.KXH : ; N S C S ] V t j k 1 5 4 8X!.. + + o X + O q.BXkXVXFX*.  +.",
"I F + 6 [ k ) G G y 3 5..., @ @ $ : 5 4 5 ^ ] [ N C j o s * 9.yX; 6 : ; ; > 6 6 S S g B V i * gXZX3 O O o     #.0X&.  . - - X . ",
"F U + + P N e : 5 y e : i R 6 : @ ; 5 7 4 x ( O.) < 4 U : %.FXz.: j V : 4 i i : 4 ] x i y t 4 :.AXVX0X0X<.w.b d.u.q   X X X + @ ",
"6 9.j @ X > N C N y w 4 ; + 4 4 r : ; : y y x o.J.Z.5.'.'.kXiX0 ; O ; ; : 4 : 7 > F o.i w 5 i @ 3 =.@.ZX4X^.(.k 1., # # X + + # ",
"+ G L i J H.5._ P N w ; @ + @ ; 4 y 5 6 4 k k { g.~.rX/.j.I q.~.: : : $ ; ; @ @ ; ; y 6 > , 6 $ X X   q kXu.#Xl.w.O > + @ w : t ",
"u ; ; > c.c.C t 5 e ; ; ; : : : 5 5 j : X ] Z.L.^ o 4X(.  . O OXG @ : : @ ; 4 j @ $ t & @ : u X X + o o 3X3X%.O 3.@.. + $ w e u ",
"` [ 6 m m.c.A t ; @ w u 4 4 : 4 g j t o ; 8.m.c ^ u.4X- .     !.p.M V 4 t ; @ $ o o j N @ e V w + @ @ q.&X3 V u 6 d.u ; : e @ ; ",
"2.v.[ _ S L _ N k ; e S 5 4 y g g N : > 7 4 g 4 k &XzX!.@.q o <.j.n N : y @ @ ; + + , t X @ F $ X @ o +.>X6 u t : F ..P V F G :.",
"5 R ` A V S N t > e t p.7 g j N t 4 e N e ; > P x 2 7.zXXXw.p.T.M.g N : 6 : @ t t : : t : X > o + + o - zX3.: i y w V B y i J R ",
"N v V.O.A i t y t w t 7.x B x 5 : 4 : @ : 4 & G i 5 # 0 T t a.9.Z.c z Z j S i w C > @ 4 w @ > @ : % $ o [.G.o > X.y : ; t e @ * ",
"i N C H...N i e e t N 0.S y 5 S 9.F , ;.9.{ >.Y * V > o G g.C V (.@XH.0. .C t ; t e @ : 4 > > X + r $ 9 2X9X, 2 D N B B N w t B ",
"A t @ U [ Z B y y t 4 Y U P Z 9.u.w.w.%.w.(.`.(.Z.#X(.= w.).V $ : L {.7.{ P : + ; 4 C : @ w > $ 9 v l.7X~.e.r.U Y t R D k i y t ",
"y r i p.: t t L i e i : N S } D.h 7 6 4 x C L 7 0 0 >X@X1.4.: + ; @ v R ; t G i y t B : + w F H 9 4XT.= . . a p 4.S e Z t e t e ",
"t , I K.5 t w 4 ; > 4 e 4 k L B N i S N 6 , C P ;   (.N.4 | 4.6 : I R./.U ; @ 4 @ 4 y @ @ k r.# q.*Xo X . + $ @ ; 2.S B ' t % r ",
"B y C.S.t y r : @ w > > [ S  .i > > 6 4 > ; $ 4 4 O 0X<.@ y R 1.R ;X5.>.R.r. .4.=., 7 F J ^.F   I.e.. $ , @ 0 u ; u Y B ] t w w ",
"y t ..O.N N 7 @ w + o r C L i y , + > j i 5 k k >.(.9.I $ 4 ] N -.F : ; & J 4.r.;Xu.r.u.0 F J H l.8 X + $ + p r $ # , U F C C i ",
"% e t i k N 5 > > X $ u L { C D S C k : g C./.6.&Xz.  , : @ i R I O X # + + + + , e.,.>.C + > f.b     + + X $ 8 . : i p 6 p t > ",
"$ r t [ | { F e t > H , i 2.} k Z _ t ; 6.(.9 > U G   0 %.@ > F > , + X O 6 : o       . + > > :.8 # X X + + $ > @ $ 6 r + , u o ",
"X , $ + p G L | P L 6   %.b.v.T @ 7 > > V.0   $ F y , 9 F.R F @ o @ # X @ , $ @ X # 9 6 X . # @.# # 8 $ $ X   # X X X + X , S w ",
"F F X     X a ..{ C V I ..Q k  .a @ + > 0 . +   + + > 9 2 I H.u.V $ + .     # + X # $ H o 8 <.9   X X $ 8 p # , >   $ $ + + > w "
};
