/* XPM */
static char *_e01f21c12834fd1a012769d64bebfd8pxk0T6oxHqXXdRkG[] = {
/* columns rows colors chars-per-pixel */
"64 64 130 2 ",
"   c #1A1D25",
".  c #1F212C",
"X  c #24252D",
"o  c #28272F",
"O  c #2A292F",
"+  c #262631",
"@  c #292630",
"#  c #262933",
"$  c #2C2C35",
"%  c #272C38",
"&  c #2D2D39",
"*  c #312E36",
"=  c #312F3A",
"-  c #2F3037",
";  c #2E303B",
":  c #343136",
">  c #383437",
",  c #34333C",
"<  c #3A353D",
"1  c #3D393E",
"2  c #40363C",
"3  c #433A3E",
"4  c #4C3E3E",
"5  c #523F3D",
"6  c #4E403E",
"7  c #52413F",
"8  c #332F45",
"9  c #2D3643",
"0  c #2F304D",
"q  c #363441",
"w  c #3A3641",
"e  c #363943",
"r  c #3C3A43",
"t  c #35324A",
"y  c #3B3549",
"u  c #363A4B",
"i  c #3E3C4A",
"p  c #363453",
"a  c #3C3752",
"s  c #353E57",
"d  c #3A3C55",
"f  c #373A59",
"g  c #3D3D5A",
"h  c #413740",
"j  c #423C44",
"k  c #4A3E43",
"l  c #433E49",
"z  c #4A3F49",
"x  c #423D53",
"c  c #453C5B",
"v  c #3D4346",
"b  c #3D4049",
"n  c #364253",
"m  c #3B4857",
"M  c #3A4259",
"N  c #3E495B",
"B  c #3C4E61",
"V  c #444046",
"C  c #4B4244",
"Z  c #45414B",
"A  c #4A444C",
"S  c #43484A",
"D  c #4D484D",
"F  c #524344",
"G  c #554947",
"H  c #52464C",
"J  c #534A4C",
"K  c #584E4B",
"L  c #5E524D",
"P  c #464352",
"I  c #4A4551",
"U  c #434B55",
"Y  c #4D4A53",
"T  c #43415C",
"R  c #4D435A",
"E  c #4F4C59",
"W  c #524751",
"Q  c #524B54",
"!  c #594D54",
"~  c #534E59",
"^  c #4A565E",
"/  c #5B5253",
"(  c #55515C",
")  c #5A545D",
"_  c #625754",
"`  c #645956",
"'  c #645858",
"]  c #695F5D",
"[  c #414065",
"{  c #4D4562",
"}  c #4E4568",
"|  c #45486F",
" . c #524364",
".. c #554C65",
"X. c #5A4D64",
"o. c #544468",
"O. c #534A6D",
"+. c #5C4C6D",
"@. c #445B63",
"#. c #5B5462",
"$. c #5E5C64",
"%. c #57516C",
"&. c #565D6B",
"*. c #4A4D74",
"=. c #4B5173",
"-. c #4B5B72",
";. c #615C65",
":. c #63566B",
">. c #65587E",
",. c #46616F",
"<. c #466273",
"1. c #4D6471",
"2. c #526074",
"3. c #5A6E77",
"4. c #526B7E",
"5. c #52707F",
"6. c #68646C",
"7. c #786A6A",
"8. c #665A81",
"9. c #566185",
"0. c #5A618D",
"q. c #527481",
"w. c #636386",
"e. c #6D6485",
"r. c #71648D",
"t. c #706E8F",
"y. c #657889",
"u. c #626996",
"i. c #687798",
"p. c #638993",
/* pixels */
"< < l < r j < : & = i A V w * q ; , , q w q q q q q q q q < q q D J Z q r < , r q & < w w q w 8 , w w < A < q q < < l I j z l l ",
"* r i : r r # % q 0 t y I Z q * V j < , , A e q q = = , < l i * A A h : w w q q : , i , h q * q w < 1 < A w q w q < l i & w j , ",
": Z r < i , + q g *.*.p P Z l : V D 3 i q - e < , r i = A C $ i l r : w w q * e , i : & q * q , , < * : Z * < < r Z A : o * r < ",
"r Z r r r : % 9 *.u.0.*.g i < q Y i $ ; r $ < e e Z r w r < l Y Z i r i w , h r q q & q & # # , j w : , A $ 3 < i Z l % : r r < ",
"i A w i r X & t f | [ B | T & : Z - r < r = < i r i i i Z A I < $ $ $ , < j j * w , , & # & , q w w = w R * < i < < i < w w r , ",
"w l 1 4 1 + # q t % 8 u 0 g + i j $ r r r , , * : ; < A I A < $ : , q q i l & , i q % # % q w < < h l q R , $ i r < j Z < < j , ",
"h 4 4 5 4 ; # : = , q ; : i + Z r # j 1 A : : l i q w e < r % = q q w r w Z w w j y % % & w < w w l 2 # D q # w Z i r < r r i < ",
"F 5 4 k 2 : & # = h j : q i & A 3 < F j r < i ; $ > < q i 8 y q q r r w * l l w h q % & e w i l 5 k + , Z r $ j j q q ; > < < j ",
"7 k k : # = & % * : < w < j , k 4 4 4 < j < : q < i w h w #.:.i i e q q q i i , < w & e w w C k 6 3 e ; r V * l j < 1 , * H C < ",
"F l : ; i = = , q w q w w j j j F 7 3 H j 1 r i < l h k H 6.;.Z , : = w r Z * $ i e % w i r j k C j j < j 1 $ # * , : $ w K 6 r ",
"h : , r j r q q w q q w i Z k 3 7 F I A D 6.K q Z r * j h w , , , - ; l Z I w y o.t w i , 2 < C C < > r i 1 1 < < q q < < 1 - j ",
"q w l < < q l Z 2 j l x l < z j 3 H D 1 / ' K > w : W H z w $ * , r A Z w * A Q o.a l < 2 l > r j > 1 r < $ # - : : w i r i q - ",
"i , i w > < Y Z w z l i , , w l A h h : v 6 3 r * I ! k ! , > j Y S i r 1 e w l l i w h j J h r r r w r v , - ; - + X # & t o.t ",
"r : r l i r i w Z < < # # < q w V j 1 , ; < / L , A 2 : < # * l j r j Z A Z l j w , , r 1 r 1 1 w < r v U < 1 j q * , & # i +.x ",
"i w * w l Z r * i $ , % r r r Z i j > O - - 1 : : * : * ; e ~ r , 1 : # X $ = , r r i r w < < 3 , q v S Z v w w i r i w i q & w ",
"w r r q - A ;   q : ; ; i r Z & r E i $ % e e , < r , < r Z ( , $ $ : > , w & % : : < Z q $ r : , q e r e q , q < w q = : = w * ",
"r , # & % Z # + i : + e r q r , E Z % # ; : , ; e , e e < E U O : w < 1 r , # P w $ $ , i : * < r ; e r < ; < , e w , w r , i e ",
", < , ; Z Z X ; : * , r r < , r Z # # t s M q , e , e w ( E r < q & : 1 & q r r q & : : : w & , : q q q e q & q i i , : l q i i ",
"C j : : A l e w > < q V 1 < i j : # ; M q.9.s q < < r P E r i V q q q # & r e y q w r , $ r j < : r < , q < w i < * & , Z & 1 V ",
"l w < , h j l l j 1 q r > b Z i q & i 2.y.-.u , , i b ( Z r j $ q r q & e q , q , i , : q D j h r r j w r r w , < , , j A 1 6 C ",
"3 j w , : * $ : < r r r l j , e q & i &.N d Z < q h l ~ r Z > - w q e q , q & : r - : r I < < < < w q r < * r : q < C C C G 7 C ",
"1 w r , , q , : $ $ - , > o # , , , A ~ I W A i , q P I < Z e < r r i w t = < 1 i , V A * & , : < ; = = ; q 9 u q 1 k l A F C F ",
"i < = , , & q q , q ; X & e r , ; % : * < w * w , , Y i - v < , r l q w , q w j r < > ; : Z w w , ; q e i m ,.<.n i l l x C C C ",
"q V ~ w q q q h I i : + q e i w # $ * , w < 1 < * r W : < l A ~ A j i q j C j w , , , I Z r D : , q q , i B q.p.<.n i i A C j 3 ",
"= W ] j = q q x z r % : % % l * O < r < < r < r w E Y * A Z Y ~ I Z V w w r j r q q I 7./ w < & r w , , e n N 4.5.n r j r l j 3 ",
"q , > * q , j Z w < $ : r q j # : r , < r q l l , I l + j V Z Z < e l : , w j : q q Z G , q q q q , q j < e 9 M N b h r w i w : ",
"q h k < : r l w * , i h < : < 1 V < q r < i V V C Q j , i A A i , Z < < i r $ $ w A * i J A < w q q < l r q i i u r , , q < q , ",
"8 w k z i Z , , 1 w < $ # : k C 6 i e < r j 3 G J C r w r I q q i r , r < e - & = : , j / H w : * q i r r q P i r i < , , w w , ",
", < : j l i & < : q , * , e h k < , , q j z l j l l w * = l > ; w = < l j A w # < = q = j : j w i j l : r q i i l w ; , w w w w ",
"q q * q l l < < w = q w r q r r w w , , q , $ i l l i w q i i # $ * q q $ < z * : , w l i q r l j , q j j < r b w # , i w w q , ",
"q w w : I ~ 4 3 < w w , q q , q , w , q i r l l , * * : , r A , , w q < q < w j : j A E P A Y A < t = q i < q q : r j < = q * q ",
"w i i t P ) < , = l i q w < q < , q i , 1 l l * * w < * : i Y Z w < q = = * l l h I I A l Z I ~ Q Y j j q , < q < e < j , * w q ",
"i l i w , < q & # r r < q , w q q j i & & , * 2 1 r r < < < i r j l Z l w j A l j i h < % - < r e l j l Z j < r r r : < : q q r ",
"i i q w e q q , - e q q q < 3 w w w # w w < j i , , ; V / $ 1 1 * $ , $ * l h < $ : : X # : < & # $ , < j j , r r r & q = 8 , r ",
"q w , = , * q , $ < i , < q i j j w & q i w j , = q ; 1 1 r r r < < = w w , $ & r * * : w l y i w * O , v j < r q i : q , Z l : ",
"q r q i q e q : r A Z r < : * : < w $ r : $ < : e i < < q : ; < q j = : < h A l r j r r R O. .x l w < * r h 3 r i w & , w j V l ",
"q i < j Z Z < e b r Z < + @ # $ r : & & - l 3 < q < ; ; : : q q w * $ 1 3 3 z k : 3 3 x c e.8.O.c A q $ r r k H w = & w q q q r ",
"q w A l r < Z : - r Z X $ q q w w : # # 1 < < 1 < r e < e < q q > X * w < k H < r 2 h r i ..>.r.c w , j r j k 2 , : q i q q , , ",
"r l l r : Z r > V E # : r i r 1 * : * w j < Z > r r q < > : $ r & , l T l z h , r , , q , t { } x = l i j l * # , < w h < q q , ",
"Z j w < r ; , , I r $ i h j j C w < < * i j A Y V q q r r : X i w l l w l 2 > $ , i Z A Z A I I i w i q j 1 > h A F k , j q q q ",
"i i l l * r e l l O 1 j l C C k A , & i < , i j j l Z l Z , & i i q q : w < @ & , A A r < $ : A r x l i j , j ! h < = e w q q w ",
"w 9 9 q w w & r $ $ w < 1 4 k h i l , w * , q , Z w & , q i , w l , ; q w = # i w w Z < $ # w k j Z 1 w l * h 2 h 2 h < q q w w ",
"i g =.*.i & : : % r q b / G < l w = = , , , w l i $ , q , q w w r r r P w * r < r < l C j 1 r h V A h = l * , z k 2 < w q q q w ",
"w *.i.9.=.x l % & < < L 6.` , C 3 = w q q q w l * , q w q q w w , v < 1 * $ > * 1 j , l 3 j 3 4 C / ( P z w w * , : * < , q q h ",
"l g w.w.t.%.l + e l j V K G < q , r w < * q q w ; , r e q w r w * r < > 1 ; & r 1 1 * j H C G 4 r q : # A j + * * . = = < q w w ",
"w q ..e.e.X.w & I Z : : 3 > j w i w * w i : , < < q e w < q i , ; < r 1 $ - q < , * < j k G 7 , : , r I D w w j X & c w q , , , ",
"w w w x x z l , l < + r > D L w q q w w < r < * , < r w w r * * w < > $ % e r q < , r - C G 3 r q < q , * w h * , q  .l w = w y ",
"i , q * , w j < r < $ I r 1 : 8 e w * w < * , < e < w q r * & w w w j < r < l : < w w , V A C i , * * , w j * < k = 8 w q q h h ",
"w $ , = r l < w Z , q i < H , t l = + = , , * = q , q w < < A l h = , < w q & w , ; ; : - j r r w * , , l * , h * w < q w q q y ",
"l = = , , < < < i : , , k A j w = + = = , , , & q q w w r A C i t w < < h l & q ; , v r r 1 - e j w * q i * ! ' 1 w w 3 h w Z r ",
"q w w w q : , , r : q H W : w < @ , q , & # & % e w z w w , r j h j w j w l = & , , r e q - v A < w < q q H ` J 1 , , k 2 i j r ",
"= w * & < < 2 < > , w < * , l * q q , i q # # , w w w l P i l , q q j w : l & , < ; $ < - : e r w < w w q j C C : , r r : q ; q ",
"i Z h l l P Z j : , * , w w i : * = w q q r , i y w w i Z ~ t i y w w w * V : : < ; 1 Z # & $ < j i < : q q < h - < j I A q q w ",
"l I l w , $ # r < $ < , w q w q & w w * e r q l 1 r j i D D e x A ! l w r i + : , , r v r = , w : < r r , < q l , q A ) I w w A ",
"$ X X : * = & , < X i r h q , i & = : Z ~ Z l : * j A I ~ I q l L _ C < Z $ @ , , $ v ^ @.r , e < r , l r * < w , i R Z * * * $ ",
": i $ h l l y , w # $ k F k $ r = # = l ) Y < & q i j J J Z : w 1 r 1 h , @ * q , v $.p.1.e r > < : 1 3 j , w = $ I A @ $ O $ $ ",
"l R q = q , q & q : > F 5 k < j r : w q w l $ * , r r Z * , w H V < A w $ : i < , U 3.@.B Z # < $ r 3 j k w l : r I @ % < : < : ",
"w z w $ , : 1 w i r : 3 C * * * q j Y j j r * r Z I i A l w * * O V A i Z j r < w V u ; v < # < * r * < l , i 1 Z , X i h e w * ",
"q < < & j D : w : w * $ < % % # O O < A C < 4 A ~ A h 1 < i h , l Y $ # < r j l < k < q ; = & q i * , w j , < i r # , q ) $.~ l ",
"l < h = < * , : e w i X % % & < < * < C G C C Z r # . X X * @ $ r < X , = # $ i A z : * e r a i i r w < i < l l : : , I ( ~ ~ l ",
"< w j w 3 1 w < < ; , * < < & q j 3 r 3 C k * : $ o $ # # , < = # X & b w , # , 3 2 * % , < w Z < * , < j V A * w > 3 A A < e Z ",
"w < , w h , : * * r h k 4 < = y i , * w , , & & % C A < < # < * # ; q q i w & & r < , , , i E Z # , : 2 r I & = < r 4 4 < < w Z ",
"3 l w j , i : $ , Z < < h * q q q , , r 1 & ; < & Z V r w q & * < w r , w r i t q i Z A D W A q = , & < w j # q V 3 < * * < w z ",
"< w r w < x : * i : q h w = q q , & , r r , % : < ; 1 < q w * w < j C w 1 w q q , w l q q , = = , & , , Z w , r 1 : * r l < r l "
};
