/* XPM */
static char *a171a906b9284ef7a2e14da059fd04dcRGVxwRLA07cZ45Dt[] = {
/* columns rows colors chars-per-pixel */
"64 64 256 2 ",
"   c #08013A",
".  c #7D3933",
"X  c #050247",
"o  c #080352",
"O  c #170153",
"+  c #110448",
"@  c #291251",
"#  c #330D70",
"$  c #251B5F",
"%  c #4B3554",
"&  c #532964",
"*  c #564658",
"=  c #6F5170",
"-  c #665664",
";  c #883B31",
":  c #984638",
">  c #9B543B",
",  c #8D4434",
"<  c #A74A3A",
"1  c #B34C3B",
"2  c #A9543C",
"3  c #B2553C",
"4  c #853C4D",
"5  c #8B3C68",
"6  c #924D4C",
"7  c #A74E42",
"8  c #A85746",
"9  c #B75947",
"0  c #B25651",
"q  c #8B6C56",
"w  c #876A59",
"e  c #916A58",
"r  c #8B7357",
"t  c #94735B",
"y  c #8E664A",
"u  c #A9664B",
"i  c #B7654A",
"p  c #AB6758",
"a  c #BA6A55",
"s  c #B87458",
"d  c #AF7451",
"f  c #94506E",
"g  c #A85A6C",
"h  c #8A6A64",
"j  c #997667",
"k  c #8E7072",
"l  c #AA6768",
"z  c #B76C66",
"x  c #A5786A",
"c  c #BB7265",
"v  c #BB736B",
"b  c #B67565",
"n  c #AB6875",
"m  c #B97476",
"M  c #B36E78",
"N  c #C25B4B",
"B  c #C46A55",
"V  c #C87759",
"C  c #D2795C",
"Z  c #CA7050",
"A  c #C77867",
"S  c #D37C65",
"D  c #C47778",
"F  c #CA7173",
"G  c #C05E6D",
"H  c #9C8271",
"J  c #A7846D",
"K  c #BB936C",
"L  c #A88876",
"P  c #B58977",
"I  c #B69679",
"U  c #B68A6A",
"Y  c #B7A977",
"T  c #A28258",
"R  c #CB835B",
"E  c #D1835B",
"W  c #C98566",
"Q  c #D38363",
"!  c #D58768",
"~  c #CA966C",
"^  c #D6956A",
"/  c #C79979",
"(  c #D69677",
")  c #CE8675",
"_  c #CAA97B",
"`  c #D8A577",
"'  c #D5B176",
"]  c #E5AF7A",
"[  c #E1906C",
"{  c #DAC57E",
"}  c #38108F",
"|  c #5B1D9A",
" . c #581A96",
".. c #48198A",
"X. c #5B229C",
"o. c #582298",
"O. c #522B87",
"+. c #64289D",
"@. c #653A81",
"#. c #5E23A5",
"$. c #4E32B0",
"%. c #6324A6",
"&. c #7034B1",
"*. c #601CA0",
"=. c #0C6FB9",
"-. c #2D78B4",
";. c #1E5FAF",
":. c #6E518F",
">. c #5258AE",
",. c #7547B7",
"<. c #5373AF",
"1. c #606D99",
"2. c #6E34C7",
"3. c #6C3BEF",
"4. c #085CC9",
"5. c #056AC9",
"6. c #0573CC",
"7. c #026CD4",
"8. c #0668D9",
"9. c #0273D4",
"0. c #0174DC",
"q. c #0879D8",
"w. c #1578D6",
"e. c #156DCF",
"r. c #2874CA",
"t. c #056AE3",
"y. c #0C72E4",
"u. c #2A6FED",
"i. c #7C4ECB",
"p. c #646FD6",
"a. c #823AAD",
"s. c #91508A",
"d. c #A5588C",
"f. c #8E6A8D",
"g. c #B26C8E",
"h. c #9156AB",
"j. c #9572AE",
"k. c #B372AD",
"l. c #A75CB8",
"z. c #C877A2",
"x. c #8A52CA",
"c. c #B472D7",
"v. c #A16BDE",
"b. c #D47DCC",
"n. c #73A7B6",
"m. c #6690A0",
"M. c #2984D9",
"N. c #398CD8",
"B. c #3A8FD4",
"V. c #1481E2",
"C. c #3A98E7",
"Z. c #338CEB",
"A. c #1386D9",
"S. c #4A91D4",
"D. c #4B95EC",
"F. c #4AA3EB",
"G. c #58A8EA",
"H. c #58ABF6",
"J. c #52ABF3",
"K. c #64B0F4",
"L. c #61A5CD",
"P. c #39C7B0",
"I. c #939095",
"U. c #A68B86",
"Y. c #BB9884",
"T. c #B28B91",
"R. c #BAAA8A",
"E. c #B691AC",
"W. c #90B4B2",
"Q. c #A7A2AF",
"!. c #C69B85",
"~. c #CB978E",
"^. c #C7A786",
"/. c #D7A786",
"(. c #C9B386",
"). c #D9B789",
"_. c #D8B796",
"`. c #CDB194",
"'. c #E5BA89",
"]. c #E7BA93",
"[. c #E6AE87",
"{. c #CF88B4",
"}. c #D0B1AC",
"|. c #E2B9B4",
" X c #B4C8B2",
".X c #9FC9AA",
"XX c #DBC898",
"oX c #D9D697",
"OX c #D5CD8D",
"+X c #E7C899",
"@X c #E7D798",
"#X c #F6D697",
"$X c #ECCA8E",
"%X c #F7E39A",
"&X c #E8E499",
"*X c #D6C6A7",
"=X c #DAD6A6",
"-X c #CFCFB0",
";X c #E8C9A6",
":X c #F2C8A7",
">X c #E8D8A8",
",X c #F5D7A7",
"<X c #E5D9B4",
"1X c #F7DBB4",
"2X c #E5CABA",
"3X c #D5E4A8",
"4X c #EAE7A9",
"5X c #F6E7AB",
"6X c #F9F8AB",
"7X c #EBE7B7",
"8X c #FCEDBB",
"9X c #F8E8B6",
"0X c #FCFDB4",
"qX c #FDF5BC",
"wX c #F5FCBD",
"eX c #FDFDBC",
"rX c #F7F5B6",
"tX c #E9F5B1",
"yX c #DEE296",
"uX c #BA91CF",
"iX c #B490F3",
"pX c #9F90DD",
"aX c #CFB1D3",
"sX c #CF96F3",
"dX c #D3AEF5",
"fX c #E4A6FA",
"gX c #E6B4F3",
"hX c #D290D6",
"jX c #A4CEE9",
"kX c #D9D0CE",
"lX c #EDD7C6",
"zX c #F6E9C5",
"xX c #FDF5C3",
"cX c #F5FDC3",
"vX c #FDFDC4",
"bX c #FEFECB",
"nX c #F8F7C8",
"mX c #F9E9D4",
"MX c #FEFED3",
"NX c #FEFDDC",
"BX c #F8F7D5",
"VX c #EAECCE",
"CX c #E6C8F8",
"ZX c #F3C9FA",
"AX c #E9D7FC",
"SX c #F6D8FD",
"DX c #ECD4EB",
"FX c #FEFCE3",
"GX c #FDFDEB",
"HX c #F8F6EA",
"JX c #FBE9FB",
"KX c #FEFCF3",
"LX c #FEFDFD",
"PX c #FAF7F8",
"IX c #F0EAE8",
"UX c #DDE0CC",
/* pixels */
"< B 9 < < 8 < 1 Q #XvXvXxXvXbXcXcX).2 1 i Q V i ! @XW 1 N ].eXrX&X0X6XcXeXvXeXvX5X^ 6X%X%XyXOX6X0XGX_.] 0X&X] 6X0X0X6X0X0XbXHXLX",
"0 0 V 2 2 < : : i ` 5XvXvXvXvXbXeXqXI u 9 B ! Z E ] '.1 7 ~ 5X0X4X6X6XeXeXbXvXeX0X] %X%X#XyXyX0XeXLX;X$XeX$X] 6XeX6X0X0X0XbXKXLX",
"mX~.a Z 3 < 8 < < a /.5XeXvXvXbXbXbXvXI 2 9 V C i ^ @XB 1 i $X0XtX6X6X6XxXvXbXeXeX] ] %X{ &X&X0XvXPX:X5XeX] $X0XvX0X0XeXeXFXLXPX",
"BXBX~ B Z N < < < 1 C [.>XtXvXbXbXbXbX7XJ 3 9 R Z B '.).3 1 ( 9X6XyX6X%XvXeXbXeXeX%X^ #X&X{ yX6XMXPX1X0X0X[ { 0XeX6X0X0XvXGXLXHX",
"4X$X^ i Q ! B 2 < < 7 V ~ ).5XvXbXxXnXcXrXR 3 s ! i ^ @Xa 1 i +XeX&X6X#XxX0XbXvXvXqX! $XOX{ oXeXMXHX1X0X9XR #X0XeX0X0XeXvXKXLXBX",
"%X%X] s 9 S ! d 9 < : 7 N Q ).=XcXbXbXbXnX9XR 9 B S Z ]./.N 2 ^ 0X6X&X#X5XeXcXvXvXbX` ^ OX' yXeXNXmX,XeX@XR 5X0X0X0X0XcXMXLXLXcX",
"^ ] OX%X^ B V Q V i 7 < 9 N V ~ XXrXeXeXvXvX5XV 9 S i ^ :XB 2 B $XqXyX%X$XqXvXbXvXvX$XR ' ' 4XeXbXmX5X0X'.R #X,X@X6XqXcXBXLXLXvX",
"'.^ Q ^ XX_ d C R C B 7 < 2 9 B ~ '.9XtXwXrXvX,XQ 9 Z i [.U 1 3 ~ qXyX6X$X5XvXvXbXwX4XZ ' { tXvXMXzX0X5XR Z ^ ' #X6XbXMXHXLXKX0X",
"^ ! E Z a [ [.d s ! ! V i 1 < 9 B A _ >X4X0X6X5X,XW 0 B B [ 9 7 N :X3X&X#X'.cXbXbXvX8XZ _ { tXvXBX9X6X$Xs B u R ~ [ ] 6XNXHXNXeX",
"R R R V B a a s i s A ! ! E a 8 9 9 a ~ XX4X7X4X+X/.S 8 i C 9 9 7 ^ 5XyX#X] 5XcXbXbXrXQ _ { tXvXbX).( Z < u 8 0 d u s [.bXNXnXeX",
"E C C C V i N Z Z i s S S ( [.` i 9 N i b ^.+X9X_.s a s ]./.V 3 9 i ].oX5X^ #XvXbXbXcX~ ~ _ vXbX,Xs 8 9 9 > : : ; 8 a a +XbXvX0X",
"Q R Q ! C Q Z i i a i a S ! ` ,X,XW 0 9 9 i A ( s a B K 8XbX,XW 9 9 W OXrX^ ! oXxXbXbX( K R.vX5XW 8 7 < : < > 7 7 7 u ( V #XeXtX",
"R V E E E ! E C B 9 i B B V ! ( 8X9X+XW 9 N a s b a B ].bXcXbX8X:X] Q ~ 4X).d Y wXbXbX/.d oX1XW 1 < 8 7 7 7 1 2 1 < : d ] ^ 6XtX",
"E ! R R E E E ! Q A B 9 9 V C Q [.8XbXzX|.~.l m m x b 1XbXbXMXbXcXvX9X,X4X>X8 ! 7XbXvX].y oX/.< < 1 < 7 i B a Z u 3 < : K ` #XxX",
"B S Q s V E E ! ! C C V N B V B B ].9XvXmX}.z.k.k.g.~.MXMXbXbXbXbXbXvXvXcXvXK R 4XvXbX].> (.s 1 7 3 9 Q ].zX;XW R V 3 1 y _ ` 8X",
"9 a S Q a s R ! E ! R S S 0 9 A S A ( |.1X{.fXfX{.z.|.FXnXbXMXvXbXbXbXvXvXeXqX>X5XwXbX+X8 Y > 9 0 C '.qXcXVXmX;X( V V 3 < R $X{ ",
"B 1 9 B B a p b E R ! S S S B 0 z F F [ z.fXSXJXgXgXJXPXLXNXbXbXbXbXbXbXbXbXvXvXvXbXeX1Xd u 9 a _ :XmX9X4X>X4XwXmX~.S Z < > (.] ",
"Q V 9 < i i u p l c A W S ) S A z 0 F z.hXZXJXZXgXZXKXLXLXFXMXvXbXbXvXvXbXbXvXvXbXwXwXbX+X/.( ` ' >XlX*XoX&XeXFXPXmXU Z 3 < d _.",
"! Q S B 9 8 8 8 6 t u u p z F ) F F G b.gXSXfXk.{.DXPXLXLXFXMXMXbXbXbXvXvXbXbXbXvXvXbXvXqXxX8X>X+X9XzXXX@X5XMXmX*X[.j 6 Z i > K ",
"V V Q ! A B 8 6 p u u z l l z F S F z.sXSXsXb.z.g.DXKXLXPXFXMXMXNXMXMXbXvXvXbXMXvXbXvXvXvXvXvXeXbXbXvXeXvXeXbXnXm y :.1.7 i > u ",
"V Z B B ! F a p l ; 4 4 g n l ~.S z.hXgXsXl.g.F ~.mXFXGXGXFXMXNXGXGXFXMXbXvXvXbXbXvXvXbXvXeXwXvXvXeXcXvXvX0XeXtXXXm.B.B.:.8 a < ",
"V B Z i B B p p 6 4 6 4 6 g g.k.{.{.{.hXg.d.D F _.xXMXNXNXMXNXNXLXKXGXFXbXvXvXvXxXbXbXvXvXvXeXeX0XvXbXvXeX0XvX4X.XS.C.M.S.w 9 0 ",
"S A Q B 0 8 0 p . 6 g f 5 s.hXfXfXfX{.~.g l m F <XxXbXMXMXbXMXFXLXLXLXGXNXbXvXbXbXvXvXvXvXvXvXvXeXvXbXvXeXeXvXOXm.N.B.B.M.1.: V ",
"! W A S ! a 8 l f . . 5 c.sXZXgXgXfXz.f f x b S =X9XzXbXbXvXbXNXLXLXLXLXFXMXbXMXbXvXvXvXvXeXvXvXbXvX0X0XvXMXnX XN.C.B.B.Z.B.f i ",
"C ! ! ! S B 8 b s l z k.sXSXsXuXz.g.g 6 z F s ^.`.`.9XtXtXvXMXNXFXKXLXLXLXGXvXeXbXbXeXvXbXcXvXeXvXvXeXvXvXvXvX.XC.S.C.C.B.B.1.u ",
"= l Z ! ) S u M b g.f v.ZXdXx.k.z.F n l v z U _.Y 7XNXBXbX7XxXcXMXGXLXLXLXKXBXbXbXMXBXNXbXvXvXvXvXvXvXeXvXbXvXW.F.S.C.C.C.B.m.6 ",
"4.= 0 a A ) z M M f s.sXDXc.h.M D v v v v v U R.(.bXnXNXFXnXrXrXMXnXGXLXPXPXDXKXFXGXPXGXBXbXqXvXbXbXeXeXvXvX7Xn.F.F.F.C.B.C.p.= ",
"8.4.>.f p F G l m s.c.CXCXc.d.D v v v b v v ) Y (.<X<XzXnXMXMXxXxXvXFXGXLXLXaXDXLXLXLXFXNXvX7XbXvXbXvXeXeXbXtXn.J.F.F.F.C.F.C.<.",
"6.t.t.;.= G g 0 M l.fXPXiXk.D m m A A z v b `.<X`.U y ^.<XUXnXMXqXcXcXNXHXLXJXCXDXPXNXMXMX>XxXvXvXxX0X0X6XrX=Xn.J.F.J.J.F.F.F.S.",
"8.8.8.t.;.:.g g g.c.AXgXx.d.g.z m m v z A b _.bXxX+XP }.PXUXUX8XbXBX7XbXFXGXKXQ.f.lXvXeX9X=XbXrX5X4X4XtX0XrX3XL.J.G.G.G.G.F.G.S.",
"8.t.8.e.t.8.>.g d.gXJXv.l.5 g A v v z c A b _.bXbXnX;X`.PXLXHXUX<XBXMXxXbXnXNXVX- /.vXeXoX,X5X@X{ >X0XrXrXbXwXL.K.G.G.J.G.G.G.F.",
"5.8.t.8.y.8.r.>.l.gXCXc.f f M M x c A z v v :XbXbXbXMX*XHXLXPXLXVXR.7XwX0XvXMXbX/.I vXrXOX8XOX' 4X9XqXvXtX=XOXP.K.K.J.K.J.G.G.J.",
"4.t.8.8.8.8.u.y.p.dXsXT.g 5 l n A l F b c A 9XbXbXbXnX<XmXKXLXLXIXP.P.VXcXwXcXBX8X_ qX4X+X#XXXqXrX6X<XL P m.L.G.G.K.K.K.K.K.K.H.",
"8.4.4.8.e.4.8.7.u.p.j.z.G * 6 0 v b c s c A 1XMXwXMXMX7X-X-XIXKXPXP.P..X3XcX0XcXwXtXqX@X5X6XtXtX4X-X}.T -Xn.K.G.K.G.G.H.G.G.G.G.",
"D.Z.w.8.8.8.8.y.t.u.x.n g.M n g.v v c z v A ;XMXMXbXvXxX8X7X=X*X-X XP.W.-X=XwX9XeXeX4X4X0XtXtX3X XIX*X=XW.H.F.F.S.G.G.G.K.G.G.L.",
"K.K.H.D.Z.u.u.t.y.u.u.>.s.M x A z D A z v c _.bXnXbXbXbX9X>X>XoXOX4X).*XkX2X*X6X4X@X5X4X4XzX.X.XVXDX*X XS.C.D.B.B.N.S.D.G.G.G.G.",
"D.F.H.K.K.K.K.H.D.D.u.u.:.d.s.d.d.n M v c s / qXbXbXvXbXvXbXqX7X=XoX&XwX7X1XoXOX,X>XyX_ XX-X X XUX X<Xm.y.M.M.A.q.e.e.w.M.S.S.F.",
"e.y.u.D.J.G.H.H.J.H.jXu.x.x.v.l.g.f M v c z A 9XcXbXbXbXbXMXbXvXbXxX<X7XrXwXeXeX4X>XXXXX+XXX7X4X=X@XW.=.y.V.w.0.9.9.6.5.e.M.N.F.",
"e.8.7.0.y.u.r.N.u.D.jXjXiXsXsXZXuXd.g z B v s ;XMXbXbXvXvXbXbXbXbXnXMXbXeXvXbXMX).(.4XwX&X4XOX#XqXVXm.6.0.8.y.t.7.7.7.7.7.w.w.M.",
"4.8.8.8.r.p.L.p.D.p.jXJXJXSXgXAXfXd.6 a A z z /.bXbXbXMXbXbXbXbXbXcXvXbXbXcXnX,XR ,XcXrXqX5X5X>X5XW.5.q.9.t.7.7.7.7.7.7.5.6.9.w.",
"<.<.p.W.E.}.{.|.|.aXAXJXfXv.c.c.{.~.6 g z z v V 7XMXMXnXbXMXbXbXMXcXvXbXvXnXvX'.i `.eXvXbXbXeXvX7X-.9.6.7.t.9.0.9.9.t.8.=.6.8.6.",
"T.E.E.E.}.}.aX}.gXZXSXdXl.l.g.g.g.lXh 6 z z v s XXnXbXbXbXvXbXxXvXbXbXbXvXbXxXK s ~ 4XvXvX6XwXcXn.6.0.0.0.0.6.7.7.9.6.t.t.5.9.4.",
"~.E.E.E.E.uXaXgXSXIXAXv.s.f M D }.mXP ; 7 p v d /.xXbXcXbXbXbXbXbXbXcXvXwXvX8Xd < s $XwXeX0XbX-X-.6.0.9.0.7.5.9.7.0.6.8.y.5.9.>.",
"dXgXgXaXdXCXSXSXKXLXgXj.s.d.g.A ;XxX_.6 ; 6 p s W ,XbXcXbXbXcXbXbXbXvXvXeXvXbX+Xi x +XvXBXvXwXn.6.q.9.6.0.9.9.7.0.9.0.7.5.7.5.U.",
"JXJXJXJXIXJXLXLXLXJXhXd.f g g.s ).bX<X6 ; 4 6 8 d / 9XbXvXbXbXvXbXbXvXrX4X>X5X9X6X7XvXvXbXvX.X-.0.0.9.q.0.9.q.0.9.=.y.7.=.6.<.XX",
"KXPXPXPXJXPXPXLXLXAXaXE.g.n z m !.MX9Xz 0 ; ; , 8 s /.9XbXqXbXvXbXvXvXvXvXxX9X4XvXvXvXwXeX7Xm.w.A.q.9.A.9.7.0.9.0.5.9.5.9.6.<.n.",
"JXAXdXdXdXJXLXKXHXHXlXT.d.T.Y.M ( xXxX( 8 : 6 ; . 6 p ).qXvXcXvXvXbXbXeXXX_ $XvXbXeXeXbXUXm.=.A.V.0.A.0.e.r.r.r.-.r.r.-.=.=.-.6.",
"pXi.x.aXHXKXPXGXFXFX1X6 = n m v ~.=XzX/.s p 6 ; , ; , u (.vXbXxXbXvXqXbX,X$X@XeXbXnX7XR.<.=.A.6.A.q.A.-.m.I.U.( / !.Y.P L m.1.-.",
"3.$.$.p.DXFXGXBXnXMX;Xl 4 g M ) >XzX7X).A b /.8 , ; ; ; > ).5XbXeXbXcXvXvXeXvXbXrX}.I Y I.<.<.I.I.m.1.T.^.!.!.!.!./ !./ Y.!.Y.J ",
"p.$.} #.,.kXnXbXMXbX;Xt 6 v s /.bXbXvX1XU s :X;X8 : , , . , /.7XbXcXbXMXcXeXvX3XI Y.~.^.(.R.T./.~.R.R.^.!.!._ Y.P L x P P I Y.Y.",
"E.I.f.:.&.,.aXeXbXbXxX/.p z s ].bXvXbXvX).s /.wX;Xu ; , : ; ; ^.9XvXrXwXbXqXR.k r j L I !.^.^.^.( /./.~.( / !.!.P j y w j J L P ",
"j.j.E.I.H j.j.-XnXbXbX1X) a p ].vXvXvXvXzX~ W 1XvX#Xi ; ; : ) >XXX>X4X=X*XY r r j t h h x ~.~.R.Y.Y.Y.!./.!.) !.!.I j y w t j x ",
"3.x.+.= f.U.U.T.`.7XnXzX/.s d ,XvXvX>XqXbX+Xs '.eXvX,XW u d 1X7X@XxXkX* % - w r q d t T L I P x j j j L Y.L L I Y.^.L e w j J J ",
"v.2.&...# O.:.k T.L R.+X'.d ~ 9XbXbX4X7XbXvX_ s ,X0XvXqX9X7XbX@X@XNXIX:.+ o @ % - - r H j r q w e t e q t r q w P !.Y.j q t e - ",
"3.2.x.&.# # } O.:.j.k.U.L / :XzXbXvXvX4X7XbX9X~ ' qXwXvXeXvXvX).5XMXFX X% o o o O @ - k k r y r q r r r w t h e w L !.I T y y y ",
"3.2.&.2.,.$ O #  .+.:.f.U.U.L Y.`.>XzX9XXX9XwX9X` +XxXwXvXeXqX_ 9XmXHXFXkX$ o   + X + % q r r e h w w h w h w q r x !.I x y - q ",
"2.2.#.%.%.X.# O ..| *.&.:.h (.!.) Y.R.`.L J 7XnX8X(.XXvXwXwXvX' ,X9XBXHXGXQ.$ o o o o X * h y t r w e r h r y w w k Y.!.m j h h ",
"2.%.#.%.%.%. .# @ ..*.%.*.h.aX1X}.`.L I I L R.R.=X<X).>XvXbXvX).(.9XMXBXFXPXQ.X X o o o X % * - w w e w r - w r q r j Y.I Y.I x ",
"$.#.X.+.%.%.#...O #  .| %.&.h.R.rX8X1X_.Y.I I L Y.*X<XlXnX7X9X<XY >XxXxXnXGXJX1.o X X o o X   @ - w r w r r w q r t h j / E./ I ",
"#.X.X.o.#.#.*.+...# # | *.+.+.,.f._.qXqXxX>XY ^.L L Y.`.|.mXnXUXY ;X_.^.XX3XzXlX=   o o o X X O @ * r h q q q k - t h t E.uXE.~.",
"X.| #.o.| #.| | *.& @  .%.| &.2.&.s.P >XqXBXxX5X+X!.L L P Y.R.2X2XJ j /.;X7XxX9X<Xk % X X X X o + @ * w t w w :.H :.k k iXdXiXE.",
"| | o.#.o.o.o.|  .%.# # o.#.| &.x.a.s.l ' 8XbX0X8X8XXX^.I L U.U.U.U.J P Y.(.;X9X8XnXUXI.% X o X O o @ % = h k j.pXv.f.f.uXCXiXE.",
"o. . .#.| | *. .*.*.*.# # |  .*.&.&.a.s.g _ 5XeXwXvXeXqX>X^.R.U L L L L H H L I XX>X8XxXkX- X o X + @ # = = j.iXAXdXI.k j.pXiXj.",
" . . . .| | | *...*.*.%.& # +.*.%.&.2.&.a.f _ 9XvXvXeXeXvXvX4XXXY.J L H L U.j H H L Y.*XxXVX*   X + O # $.,.i.jXdXv.= k H pXdXi."
};
