/* XPM */
static char *cd455301d5024883e8b256d1f6e73800w8HotbpEkse7nSks[] = {
/* columns rows colors chars-per-pixel */
"64 64 256 2 ",
"   c #080616",
".  c #3B0C06",
"X  c #0D0E25",
"o  c #162627",
"O  c #282528",
"+  c #5A1917",
"@  c #49120B",
"#  c #671617",
"$  c #522313",
"%  c #6A2E17",
"&  c #691E21",
"*  c #682625",
"=  c #742A29",
"-  c #6A3628",
";  c #75352B",
":  c #763C34",
">  c #6F3B33",
",  c #552E2B",
"<  c #3A4838",
"1  c #4B5231",
"2  c #754736",
"3  c #764E2D",
"4  c #596A31",
"5  c #6E7438",
"6  c #665F18",
"7  c #311F55",
"8  c #4D3052",
"9  c #4D2F73",
"0  c #57296E",
"q  c #77524D",
"w  c #6E7347",
"e  c #6F5373",
"r  c #767269",
"t  c #545A55",
"y  c #147C49",
"u  c #B40204",
"i  c #A90709",
"p  c #B62929",
"a  c #8D2523",
"s  c #8B5906",
"d  c #925410",
"f  c #A75D06",
"g  c #9B6606",
"h  c #946E0C",
"j  c #A76905",
"k  c #AC7303",
"l  c #A67606",
"z  c #B87805",
"x  c #AA7816",
"c  c #B87717",
"v  c #AC6D17",
"b  c #885336",
"n  c #937230",
"m  c #AA7737",
"M  c #B17729",
"N  c #BF423E",
"B  c #C67C04",
"V  c #CA7810",
"C  c #C66A31",
"Z  c #8F5448",
"A  c #AE4D4C",
"S  c #916D50",
"D  c #A56658",
"F  c #AD7352",
"G  c #8C7470",
"H  c #B87968",
"J  c #AE756B",
"K  c #815378",
"L  c #C84E4F",
"P  c #C67C59",
"I  c #CE7772",
"U  c #C33E41",
"Y  c #76843C",
"T  c #1A8D68",
"R  c #778654",
"E  c #678271",
"W  c #BA8405",
"Q  c #B78817",
"!  c #B18A0F",
"~  c #B99628",
"^  c #B89935",
"/  c #B28A2D",
"(  c #B9A737",
")  c #BBB73A",
"_  c #AFAC33",
"`  c #919337",
"'  c #C38301",
"]  c #C98804",
"[  c #D38806",
"{  c #CA9111",
"}  c #D4A515",
"|  c #CA942F",
" . c #C7A738",
".. c #C6B63A",
"X. c #D6B739",
"o. c #CFAE2C",
"O. c #E3BC3B",
"+. c #E8BE2E",
"@. c #E1AE14",
"#. c #C8C43B",
"$. c #DAC435",
"%. c #C7C22B",
"&. c #E8C639",
"*. c #F1D538",
"=. c #92904E",
"-. c #B1924F",
";. c #95A447",
":. c #A8A748",
">. c #B7A947",
",. c #B8B845",
"<. c #ABA758",
"1. c #B6A856",
"2. c #B5B64E",
"3. c #968B70",
"4. c #A9876A",
"5. c #B98679",
"6. c #A79574",
"7. c #AF9171",
"8. c #B5AA6E",
"9. c #98A06D",
"0. c #C89350",
"q. c #C8A947",
"w. c #C7BB46",
"e. c #D6B845",
"r. c #C7A854",
"t. c #C5B557",
"y. c #D9B758",
"u. c #D7A94C",
"i. c #E5BA48",
"p. c #E8B757",
"a. c #EFB655",
"s. c #C58778",
"d. c #CB947B",
"f. c #D6987A",
"g. c #D0916C",
"h. c #E29B7B",
"j. c #D9A778",
"k. c #CEB270",
"l. c #E4AA67",
"z. c #E8A877",
"x. c #EAB76F",
"c. c #BAC14B",
"v. c #C6C446",
"b. c #D5C54D",
"n. c #E8C749",
"m. c #EAD346",
"M. c #E6C756",
"N. c #F2D34E",
"B. c #D3C66A",
"V. c #EACC70",
"C. c #F9E14D",
"Z. c #BFC03E",
"A. c #491792",
"S. c #572996",
"D. c #552F8F",
"F. c #643999",
"G. c #653A8F",
"H. c #5A28A5",
"J. c #684989",
"K. c #6B4696",
"L. c #75528E",
"P. c #7458A0",
"I. c #886D90",
"U. c #8B68A3",
"Y. c #B89888",
"T. c #B09089",
"R. c #B7A788",
"E. c #BCA695",
"W. c #B6B18E",
"Q. c #BCAAA6",
"!. c #989195",
"~. c #C68B84",
"^. c #C89687",
"/. c #D4958B",
"(. c #DB958C",
"). c #D59B8B",
"_. c #DB9B8D",
"`. c #D89784",
"'. c #D59B92",
"]. c #DB9B92",
"[. c #D99796",
"{. c #D38F8A",
"}. c #E2978A",
"|. c #E39C93",
" X c #E59997",
".X c #C7A78C",
"XX c #DAA48A",
"oX c #C7A996",
"OX c #D8A797",
"+X c #C8B599",
"@X c #D7B89A",
"#X c #CCB888",
"$X c #E5A58A",
"%X c #E6A698",
"&X c #EBB497",
"*X c #DB9DA4",
"=X c #E599A4",
"-X c #CAB6A4",
";X c #D8B9A6",
":X c #D8BBB5",
">X c #D2ACAB",
",X c #E3ACA2",
"<X c #E5B9A9",
"1X c #F2B6AB",
"2X c #A0CBA9",
"3X c #CAC797",
"4X c #D5C698",
"5X c #D8D69A",
"6X c #CEC98B",
"7X c #EBD589",
"8X c #E7D89C",
"9X c #EACB8E",
"0X c #EFE499",
"qX c #DBC4AD",
"wX c #D8C7A9",
"eX c #DBD7A8",
"rX c #DDCBB3",
"tX c #DBC8B6",
"yX c #DDD2B4",
"uX c #DAD5B7",
"iX c #CCCCA5",
"pX c #E2CCAD",
"aX c #E6C6AA",
"sX c #E4DBA4",
"dX c #E5D8A9",
"fX c #E4CCB4",
"gX c #EACCB4",
"hX c #E4CCBB",
"jX c #ECCDBB",
"kX c #E6C5B4",
"lX c #F3CAB7",
"zX c #E4D2B4",
"xX c #EAD2B5",
"cX c #E4D2BB",
"vX c #EBD3BB",
"bX c #E6DBB8",
"nX c #F2D6B8",
"mX c #F4D4A9",
"MX c #DCE5AB",
"NX c #E7E4A8",
"BX c #E8E5B5",
"VX c #F7E5B7",
"CX c #F3E8A9",
"ZX c #DEE09F",
"AX c #DBD3C6",
"SX c #E8CCC3",
"DX c #EBD3C3",
"FX c #E8D7C4",
"GX c #F5D9C4",
"HX c #F1D4CD",
"JX c #D9E6D1",
"KX c #E9E6C4",
"LX c #F7E4C8",
"PX c #EAECD2",
"IX c #F1E9E8",
"UX c #6CA39D",
/* pixels */
"LXCX1.eXtXPXMX5XLXr.-XBXW.y.| 0.u.y.NXLXKXKXKXBX3XeXuXKXKXBXPXBXB.u.;XVXKXPX8.k.PX8Xw.-.0.0.4.^ -.-.u.0.-.-.>.0.u.r.B.B.V.y.8XVX",
"iXLX>.-.+XeXBX3X6X~ / LXW./ W v c z 0.0XeXsXeXsXuX6X5X5XeXeX5XZX| j 3XNXVXeXn B.CX( j g W g g g s j z z g g j z l x ~ X.o.#.V.B.",
"BXiX0Xk k.6XwXBX3Xe.k @XKX-.z ] v V ' | ZXuX5XsXMXeXW.6XNXdXBXKXo.Q dX5XeX:.6 V.x.l g z k j j s c k j g g l v j x ~ o.$.X.X.e. .",
"6XKXzX} l yX3X5XeX1.W / eX3Xm B z j B z | NXMXMXeXZX3X9.5X6X5XBX| | VXMXeXb V 0X^ d g l d k j d g Q C -.! h h l x  . .X.+.X.~ Q ",
"M k.KXV.k -.uX6XeX5Xr.V.zXAXhX| B z j V B / 3X6X6XZX5X5XiXuX3X5X| -.BXBX8.s V V.s g l g g j d m g.}. X$X$Xg.v g ! X.o.$.o.| ! Q ",
"z l #XnX| k k.LX6XqXcXfXAXAXSXaX9X| v v k u.4XNXBXMXuXBXVX4X6Xk./ k.NXNX` s { / d j k f g v f.h._. X}.`.*X[.0.z o.o.+.$.o.Q ! ! ",
"W B k k.e.' M eX5XwXFXAXAXpXDXrXAXnXl.-.wXBXNXeXeXeXVXV.~ k ! ! h #XBX5Xs j { j d z f d 0.f.[. X[.'.[.).).*Xf.| o.o.X.X.^ ! / ! ",
"c ] B x / W B / cXAXtXSXaXSXtXFXDXtX+XbXNXeXeXdXNX8X>.l g j f f h aXBX6Xs c W f g g v g.$X=X].'.XX[.[.XX`./.OXz.{ X.o.) ^ / x ! ",
"{ l B B k j z V qXcXhXhXtXtX-XwXtXE.8XbXeXeX5XNXV./ j f j k j g -.bXMXB.6 z V s j C }. X[.[.].OX]._.].'.).).f.j.b.X.....! / ! x ",
"V.] f Q ' c j | cXrXhX-X-XoXE.tX-XwXBXsXeXBXNXk.! g z B B z z j -.CXBX8.s { V F l.h._.|._.|./.[.].'.].(.].f.j.l.y.e. ._ / l ! W ",
"BXV.{ g x ] z 0.hXSX-XE.+X:XcXwX4XbXMX8XeXBXk.v g { B z c d % W y.eXBX9XM C l.XX_.]./._._._.[. X[.OX^.{.|.`.l.l.q.e.( ~ ~ Q W ! ",
"-XBXV.! j z ' 0.cXhX-XqX;XwXyX;XdXzXeXsXNXk.h z ] z z P [.f.j.<XdXzXyXGXmX&X%X'.OXOX[.]./.).'.[.]./.s.s.].f.l.p.&...>.^ Q W ~ ( ",
"rX#XiXM.B f k 0.DX:XtXSX-XqX@XwXBXdXbXBX5Xs ' ] z C [.,XOXaXHXhXuXhXAXuXSXFXSXDXhXkX'.[.[.'.]./.'._.s.s.(.f.l.i.&. .( ( W Q x.VX",
"NXzXeX6X~ B c -.DXhXhXhX+XwXwXeXeXsXVXeXn ] ] V D f.OX;XjXHXcXcXuXGXSXFXzXyXtXhXxXaX'.[.[.].XX(.).].|.}.{.h.l.i.X.o.( ^ Q  .e.( ",
"sXBXNXeX5X| v -.jXhXtXhX-X6.3XdXsXuXeX1.W ] v F [.<XkXvXrXtXcXcXuXfXSXHXH _.HXbXfXaX).].[.'.'.(./.(.}.(.I s.l.X.X.X...| x | @.W ",
"eXsXeX8XdXpX .| jXkXhX-X+X8.eXsX8XuXeX .B B 0.*XOXhXFXHXtXwXcXAXAXfXwXoXb =X:X+XFXkX/._.XX'.'.(.].`.}.~.J f.p.&.e...~ Q ] @.@.[ ",
"BXuXMXbXeXsXNXW.tXfXvXqX+XW.dXsXsXMXk.{ z P =X`.tXSXSXG 7.hXuXFXcX;XiXZ A A J tXGX;X/.].].(./.]./.f.].].D g.p.O.O.( ~ { ] @.} ] ",
"k.VXNXCXsXbXbX6X;XgXfXrX+XwXNXsXdX5X^ ' c s. XOXSXuXJ q <X-X:XSXE.;X+Xi a s.lXvXrXqX'.]._.'.[.).].).[.(.I `.p.e.e.| } [ @.&.} W ",
"z -.3X4X8XdXKX6X3XfXqXcX+XwXNXsXsXk.Q W F |._.;XuXgX'.:X5.J :XT..X;Xa i L wXuXgXxX;X).(.(././.].[.[.[./.(.z.i.i. .o.[ [ ! o.! x ",
"W h Y.-X3XeXBXZX+XpXxXcX3XyXeXsX5X0.B B f. X_.:XuXhXDXT.a =XI D g.a u p lXyXwXrXzX<X'.].(.(.'././.(.OXf.XXl.O.i.y.{ } -.M.m.~ h ",
"d <XLXLXwX-X3XCX3X;XxX;X+XBXsXdX6X{ B M |.(.].SXDXAXtX: 5.p i L p u u I bXqXFXDXpX@Xd.XX|.(./.).`.f.`.f.j.l.n.y.e.W r.jX7XM.q.h ",
"-.DX+XR.DXhX+XsXeX+XcXwX3XsX8XNXk.z B g. X(.,XDXAXHXE.D A i i i u u u mXyXfXuX@XY.;XjXlX'.`._._.[._.'.}.l.p.e.e.} r.HXfXb.V. .l ",
"3 wX+X7.5.SXwX3X3X#XfXzXdXsX8XNX .] c [. X_.<XhXSXAX6.D p i u u U U L nXfXgXoX.XvXxXfXkXOXXX}.(.[.f./.}.l.i.e.o.q.aXtX-.M.b. .k ",
"0 :X;X<X^..XFXwX6.R.zXfXeX8XNX6X] ] M *X X`.aXAXuXuX>X1Xp i u U 1XI _.BX;X4.+XnXfXfXfXxXOXs.s.H m c m -.i.i.u. .@X6Xb l.M.M.~ ] ",
"9 T.qX@X%XT..XKXY.R.rXrX5XeXBXe.B ] n ~. X|.aXuXSXuXuXLXL u P GXlX$X1XXXG :XSXzXaXgXnX.XP M k B ] ] l m M.i.^ -.&X7.D x.M.i.} / ",
"A.L.fX@XOX5.;XwXqXW.LX+X5XMXmX~ B B j v F ^.GXcXuXSXtXbXN L LXfXfXaX[.Y.dX8XeXhXFXuX8.n j B [ ] W ] { Q b.M.-.8.d.XXs.p.n.n.( . ",
"A.G.dXGX,XoXlXY.tX+XxX+X5XCX9XW ! V V B ' l d.AXFXjXFXiXp 1XAXHXfXaX.XtXcXdXpXbXXXn c [ ' W z z ^ d s ~ X.x.-.d.b J j.a.&.b.6 o ",
"H.9 +XnXjXgX.XY.E.wXwXwX3XCXk.z ] V c ] ] [ z m ;XGXzX;XI GXtXcXmX;XhXzXyXDXtXF h [ ' ' ' M k.FX>X@ 3 q.b.l.j.F - 2 g.M.&...4 X ",
"H.7 r nXDX@Xd.^.+XzXW.+XeXCXu.W W / 0./ c V { V h 8.HX<X`.uXvXeXzXaXgXvXcX^.m B W [ k m ;XJXIXIXq 2 g.M.i.0.&X5.- Z x.a.n.,.1 o ",
"A.  O uXGXrX7.%XGXGXSX8.MXNXq.] W @XIXAXtX<.x { [ c 4.>X%XKXkXqXwXxXcXqX-.M B ] ! 4 E IXIXJXPXQ.G %Xl.i.y.k.%X^.3 D x.x.e.c.1 o ",
"X     E.bXxX.X].^.+X;X9.yXdXq.[ M HXJXJXIXJXt 4 c B B M s.kXoX^.-X<X8.n z z M 4 T T 2XPXPXJXAXY.=X=Xz.a.r.S S - b XX$XM.) ,.4 o ",
"X     9 bXGX@X^.- $ @ r BXVXo.B / oXJXJXFXJX2XT T =.V z z / F OX.Xm V V Q XXHX2XUX!.Q.-X:XtXOXf.~. Xz.M./ 3 % > g.&Xk.( ) c.1 o ",
"O   9 A.e HXHX9Xb @ q S CXsX| B F D T.Y.T.oX-XW.UXJXJXk.c j m H 5.b d 3 iXAX-XoX~.{.H 5.~.D A a = D l.y.-.7.`.`.XX7.w ;.,.#.1 o ",
"< 7 A.H.0 8 -X7X9XoXGX-X8XNX{ ] % = Z ~.'.^.~.'.^.J Q.AX^.^.}.s.f.g.b s.~.J ~.^.@X;X>X>X1XT.H ~.[.d.x.0.$X%X$X_.s.w w ;.Z.c.4 o ",
"6 9 A.H.A.e XX-.7XHXvX+XMXNX{ z {.}. X1XjXkX%X).'.d.I I {.HXnXlXlXGXaXZ D [.<XvXcXDXGX;X[. X|.%X'.XXj.z.&X[.I s.$X4 w ;.) ,.t o ",
"5 9 A.A.A.I.,X9Xt.-XbX+XeXNX{ v (.}.'.hXfXaXlX@X{. Xh.f.`.;XnXwXtXtXyXfX:XlXgXzXvXfXjX,XA Z I  X,XXXg.s.I b H &X_.5 4 ;.c.) 1 o ",
"` J.A.S.H.e lX9XV.wXzX6.zXNX' P  X(.OXvXhXgXjXpX,X].}./.OXaXgXnXgXxXrXfXGXgXfXvXgXjX;X]. XI A  X].XXb 3 - % A &X&X3.4 ;.:._ < o ",
"w.G A.S.A.U.GX9XV.dXFXwXeX0X{ 0.=X[.1XgXuXFXkXfXfXkX,X(.1XgXE.tXaXlXaXvXqXfXGXkXvXaX'.[. X}.}.}.%X4.5 3 2 * b &X$X9.4 ;.c.c.1 o ",
"#.=.D.H.A.Q.lX8XN.dXnX-X4XCXz H [./.<XfX:XoX+XtXpXpXlXgXaXoX+XGX&X;XgXzXyXcXcXcXfX^.|.|.}.|.%X X(.S Z - - = b d.&X#XR ;.,.Z.1 < ",
"#.1.S.A.A.:XGXdXM.mXcXtXsXCXQ J =X].fXqXJ A ,XfXgXjXfXtXtXR.dXpX@XOXvXqXwXfXcXcXOX|.}. X%X'.%X XJ 3 5 : = = = ; g.&X9.Y ,.Z.< < ",
"%.y.D.S.A.>XKXaXC.7XlXaXeX0X^ J '.[.<XSX5.~.kX+X;XhXqXcXxXoX.XVXoX1XbX,X6.gXnXqXOXOX].(.|._.%X%X2 3 3 > = = ; : 3 F <.<.) c.< 4 ",
"w.$.e H.0 ;XzXjXV.V.mXaX+XCX>..X^./.<XDXOXOXgX:XhXfXxXrXiXwXW.G 6.;XR.b <XgXxX<X(.|.}.%X(.].,XS 2 3 Z ; = = ; : b Z S <.Z.) 1 ;.",
">.m.r F.I.lXgXvXN.N.7XqX-XCX<.rX:Xs.OX<XlXjXSXgX;XwXcXrXzX+X6.6.R.Y.oXH lXpXvXOX X(.|.].'.,XJ * : b b * * = = : 3 n =.;.v.,.4 ;.",
">.m.=.0 I aXDXmXV.m.M.gXQ.eXk.#XLX;XT.kXhX:XqXvXGX+XxXcXtXvXbXqXwXjXlXf.1XbXxX%X(.%X(.%X^.Z + * = 3 b - - = > : Z Z =.=.,.2.5 _ ",
"1.b.q.e D ~.:XdXV.C.m.dXtXwX4X-XvXvX-XT.qX;XtXtXrXcXvXrXgXjX7.S s.7.;Xf.d.cXgX X(.%X,XT.# + = & > 3 b % - * = : Z b =.;.v.2.` ..",
"<.b.,.G 8 T.pXk.e.*.$.7XhXeX@X-XcXhXOXgX+X5.;XFXrXcXzXcXxXgXoXOX1XlXnX~.J vX1X[.,X~.: + & # & # * 3 b % = = = : 3 b 5 ;.v.) _ v.",
"6...b.G L.9 Q.V.N.&.*.B.6.6.eXqXDXjX[.,XGX-X5.oXbXDXgXrXfXxXaXaXlXfXxX;Xs.vX%XoXZ @ + * + & & = = b n $ + * 2 Z S 3.S 2.v.,.:.v.",
"3.q.b.-.e 9 9 -.*.N.*.N.pXW.W.T.E.;X XOXrXSXOX5.J ;XDXbXcXqXfXgXyXbXbX@X{.%XD $ . + & + * # + + % b k.4.^.;XfXGXVX4Xw :.#._ 2.v.",
"G 2.#.:.G 9 8 1.*.*.*.*.7XxXR.@X;XY.Y.4.:XGX<XOX5.S oX+XjXgXnXcXwXqXGX;XG , . @ * & + + + > G 4.@X8X0XVXLXKXaX<X&X7.S 2.,._ v.w.",
"L.6.#.t.4.9 9 1.*.N.*.*.V.dX6.-XDXjXDX;X4.^.<X%X].5.^.5..X<X+XyXzXwXY.2 @ + + & @ + - Z ^.lXGXLXGX7X7X9X1XOXXX&X.XZ 3.<.) Z.,.,.",
"e 3.w.X.4.L.D.4.C.*.*.*.N.V.#XQ.DXkXfXGXhXoXJ J 5.).s./.`.~.D > - - + + # @ @ - Z Y.jXLXHXFXvXcXkX7Xp.XX X X&XH , t 3.<...w.w.2.",
"L.I.1.%.` K F.G *.C.*.*.m.n.dX-X-XaXhXqXhXlXOXOX~.F 5.H }.|.&XP + + + @ @ 2 T.GXGXGXbXeXuXDXjXaX$Xp.i.$X1X X$XO 8 I.!.<.) ) t.2.",
"J.L.4.#.` n J.3.X.m.m.C.*.*.7XgXzXnXqXqXvXlXlXOX|.%Xs.Z 5.f.}. XD + + G cXKXLXfXgXcXuXzXGXSX,Xz.l.n.N.$X}.&XJ t L.L.G <.) b.8.2.",
"K.L.I.w._ ` q =.#...$.N.*.C.M.qXoXE.+XfXoXoXkXgX^.D ^.).D ^. X X/.D aXLXuXwXxXgXcXDXvXxXkX,X$Xz.p.n.a.$X&Xf., 9 J.L.!.;.v.w.<.<.",
"J.K.I.<.2.;.=.n b.) ,.n.*.C.&.8.G ;XkXY.Y.wXqXGXrX.Xs.`.XXZ b D 4.xXVXrXzXzXaXxXpXDXDXaX&XOXh.l.n.&.a.x.%X, 8 F.J.P.3.` v.B.<.<.",
"F.K.K.-.2._ _ ` ....>.e.N.m.*.7.E.SXgXE.fXFXcXqXcX<X`.(.|.D @ + -XvXfXxXxXnXcXzXnXjXkXOX`./.f.p.a.+.&.x.S   9 F.L.L.G ;.) 1.<.<.",
"K.F.K.G 8.:.) _ ..( <.>.M.*.*.k.qXtXhX@XjXhXfXzXaX;XzXOX`.`.@ J LXzXzXzXxXjXgXzXjX<XOXXX[.H / i.+.&.n.1.  7 D.G.L.r R ;.c.1.6.<.",
"F.F.F.G 1.>.) _ ) :.9.<.y.m.*.y.;XDXSX+X;XhXcXxXxXpXgXaX%X).2 Y.nXpXyXzXzXvXzXxXkX,X_.}.=X}.u.i.+.&.n.n   7 F.F.K.e R <.w.<.6.=.",
"F.F.F.L.3.2.2.#..._ =.;.1.w.$.b.@XaX:X+X+XhXFXqXfXhXfXxX@X|.D -XnXzXxXxXzXcXzXaX$X/.`.}.}.z.p.O.O.&.$.6 o 9 F.F.K.t R <.2.7.3.=.",
"F.F.K.J.I.<.2...#._ R =.;.1.v.b.k.xXaXR.+XzXhXfXzXjXgXyXgX|.H @XzXzXxXpXzXbXaXOX).(.}. X/.z.n.&.O.X.#.1 o D.D.F.J.< 4 <.1.!.3.=.",
"G.G.F.K.I.6.<.#.Z._ R R =.9.1.q.V.sXxX+XwXqXqXfXtXkXgXwXpX`.H @XyXxXgXpXxXaX&X].[.[. X(.(.l.O.O.X..._ 1 8 D.F.K.9 < R 2.8.3.G =.",
"L.F.F.F.L.3.7.#.#.%.Y Y w =.:.,.>.6XmXR.wX@X-XxXfXgXaXxX<X`.H &XcXfXpXxXxX;X_.(.(.}.{.}.}.a.+.&. ..._ 4 9 F.H.F.< 1 R 8.7.!.r =.",
"I.K.G.G.J.e 3.,.%._ Y Y 5 w =._ ;.-.6..X;X@X;XfXgXtXaXaXOX^.J OX;XhXyXzX;XOX/./.{.`.f.`.l.i.$.O.>..._ 5 J.D.D.9 O < E 3.4.!.r ;.",
"+X!.U.U.U.UXQ.B.V.c.R.9.R E 9.6.t.k.4.oXOX+XkXqXtXtXkX<X,X%XOX,X,XDXFXcX<X;X%X,X<X,X,X<X,XV.V.B.B.t.B.9.P.P.P.e t r W.E.Y.!.!.8."
};
