/* XPM */
static char *result[] = {
/* columns rows colors chars-per-pixel */
"64 64 151 2 ",
"   c #2B291F",
".  c #33261E",
"X  c #322A1E",
"o  c #293D1F",
"O  c #2D2B22",
"+  c #352C23",
"@  c #392E24",
"#  c #213725",
"$  c #2F3C27",
"%  c #363224",
"&  c #3C3326",
"*  c #343A25",
"=  c #3D3B26",
"-  c #373028",
";  c #3D3429",
":  c #363C2B",
">  c #3D3C2B",
",  c #3F3C30",
"<  c #412F2A",
"1  c #413526",
"2  c #423A25",
"3  c #42362B",
"4  c #48362D",
"5  c #443B2C",
"6  c #4A3D2E",
"7  c #513F2F",
"8  c #463731",
"9  c #453C31",
"0  c #4B3D32",
"q  c #4E3D39",
"w  c #513F34",
"e  c #2D4426",
"r  c #2E452C",
"t  c #344223",
"y  c #3B4325",
"u  c #3D4A24",
"i  c #34442B",
"p  c #3C432C",
"a  c #354B2B",
"s  c #3C4B2D",
"d  c #3B522C",
"f  c #3C5C2E",
"g  c #2F4332",
"h  c #3C4531",
"j  c #344C32",
"k  c #3C4C32",
"l  c #3C4E39",
"z  c #365135",
"x  c #3D5334",
"c  c #3D5933",
"v  c #375338",
"b  c #3C543A",
"n  c #3F593A",
"m  c #444425",
"M  c #434C25",
"N  c #44432D",
"B  c #4A432E",
"V  c #434B2D",
"C  c #494B2E",
"Z  c #44522D",
"A  c #4B542D",
"S  c #41582E",
"D  c #49582F",
"F  c #444432",
"G  c #4C4333",
"H  c #434C32",
"J  c #4B4C34",
"K  c #444639",
"L  c #4D4439",
"P  c #444E39",
"I  c #4C4C3A",
"U  c #534434",
"Y  c #594536",
"T  c #534A36",
"R  c #594937",
"E  c #534439",
"W  c #5A463A",
"Q  c #554B3A",
"!  c #5C4B3A",
"~  c #445334",
"^  c #4B5435",
"/  c #445A35",
"(  c #4B5A35",
")  c #445439",
"_  c #4B553A",
"`  c #455B3A",
"'  c #4C5B3A",
"]  c #535336",
"[  c #595237",
"{  c #525B36",
"}  c #5A5837",
"|  c #53543A",
" . c #5B523B",
".. c #535C3B",
"X. c #5B5C3C",
"o. c #614937",
"O. c #634D3C",
"+. c #6A4F3E",
"@. c #63523D",
"#. c #6A523E",
"$. c #61593D",
"%. c #446235",
"&. c #4C6236",
"*. c #4B6A35",
"=. c #45643C",
"-. c #4C633C",
";. c #4C6A3D",
":. c #536237",
">. c #546D34",
",. c #53633C",
"<. c #59633D",
"1. c #536B3D",
"2. c #5A6B3D",
"3. c #53713E",
"4. c #63643F",
"5. c #606D3B",
"6. c #554E41",
"7. c #445D42",
"8. c #4A5D41",
"9. c #565041",
"0. c #5A5444",
"q. c #545C42",
"w. c #5A5943",
"e. c #634C41",
"r. c #665242",
"t. c #6B5442",
"y. c #655A40",
"u. c #695C40",
"i. c #735542",
"p. c #735945",
"a. c #7C5C41",
"s. c #406141",
"d. c #4D6342",
"f. c #4D6A41",
"g. c #546343",
"h. c #5A6342",
"j. c #546B42",
"k. c #5A6B42",
"l. c #566E48",
"z. c #4C7043",
"x. c #577145",
"c. c #5A7342",
"v. c #5A7E45",
"b. c #57724D",
"n. c #5C7C4D",
"m. c #636543",
"M. c #6C6344",
"N. c #626D42",
"B. c #746145",
"V. c #746248",
"C. c #7B6049",
/* pixels */
"W E ; + 2 3 L ( p 3 3 B B G G 5 % : F , h z n ' O.o.w 3 3 @ q 3 6 3 8 > J +.w 3 ; 3 5 1 J h.s 3 $.3 3 6 T % N J p j L p d ! q 9 ",
"; q e.W 3 ; 5 { ~ s h ~ H F N 2 ; 5 5 P l l d.v , 9 q E @ 4 0 4 U 6 > 9 w r.+ @ ; h ( ^ ..k Y $.<.: : ( / x s / ^ k G * E 3 > 3 ",
"% + q i.q 8 B ~ / / # z H ; B B 3 J h : P P h d.P p | 6 +.+.L G 6 B B G +.O.3 8 F ..^ <.:.> t.G x s &.' V H h d r 9 J H E 9 : 5 ",
"; G Y w ; 3 G _ k ' r ` H U T 3 5 R l i h 7.P ' ) } P O w ! 5 5 U 6 } 1.J ^ ' P j.f.h.{ | ^ ! J x i p Z H H &.z J > h ~ F , > 3 ",
"I P H J U G p i V d z n ) 3 * U r.W 6.8 k d.q.d.H <._ N + 3 B U U 0 C >.;.&.%.^ ' d.H ~ <._ _ 6.p i * / ) -.( s s k s ^ k > 9 W ",
"> p n ( Y U ~ ' 5.;.d z j P h T T % ) l n ) 8.K h.( ] = 3 6 Y Y G 6 Y | ,./ =.<._ j.H | ..~ _ <.N k / ) / / / d s / i B R Q W q ",
"0 : : G T [ J ,.~ s e j r ~ v v I l l 7.) ` 8.q.' ^ ^ N 1 T T B 5 > O.J p ~ =.g.I ` 2.' d._ _ ^ h h.( x / a a S / ~ l ! o.9 9 0 ",
"U U 0 6 ^ 1.2.k.) d a 1.x ~ d k K : 7.b h _ P 9.| H N 3 R R U 6 3 e.B.] h ' ' ~ ..-.( k.j.F L , ) ) p H S &./ p J H 9 W 3 1 6 U ",
"Y G 5 - k =.j.' ' ` ;.V p C M ) b ` 7.Q B p I q.V 5 B J ] R G 6 0 O.O.{ / ` ) -.J | _ ) _ 5 E L .. .; F / S k p > Q O.w & 3 0 Y ",
"T G + > H h ` g n n : s 5 0 3 ` 7.7.b.<.| ) ..k.~ H ) H B U T B 5 E w T -.k.( ( H h.&.G E G E E E L E 0 R R E q q W r.E @ ; 6 Y ",
"9 5 ; ; h h > d.=.k H F & V > z =.1.k.g.' q.b...N g.| 5 5 6 6 = 5 E 5 r.| k.P ..^ ..1.9.G B ; G U G I I G r.! 0 5 ; 3 E w 1 5 G ",
"U 6 3 & F ) x ^ ! l s + 2 A S M D { h.8.h.c._ 0 _ J 5 0 6 6 3 & E ! 5 q ( 2.^ ' | / ' _ G 6 B 5 B I ( J G F L G 3 ; N ; 4 7 0 9 ",
"6 6 3 V / F ` l T k a t o t u M M / <.q.h._ > K | P U ! U 6 0 6 E L ; 3 K ..( F ^ V > G ! E 9 ; V ' ~ H ( J B B V p C B 6 5 6 3 ",
"3 6 B G F l F % G { f %.S M ^ Z V / k.' q._ 8._ F G U R U w O.w 5 3 3 ; - , ) l H F F 9 G ^ 5 R | ^ ~ ~ D m J C ~ a N 5 U 6 3 3 ",
"3 G U Y T ; ; 5 > F b &.~ k A u ] ^ { h._ h ..J @ C [ 6 3 U q & U G 3 B G = F H V / ( G ] ..{ @.T ( ^ i s t M C A N V B 2 ; 0 q ",
"6 9 T T Y 5 J I I | / x V J H 2 5 5 J u.W L 6 V 2 U U 3 3 E 8 ; G U B 6 G 6 3 & F H _ { / ' ' }  .{ C : k y Z u a s m N V 3 U B ",
"0 7 U T G 2 G L I J / / s 3 6 G Y Y ! ; - 0 w T 3 % 6 U E w 9 L R R T 5 G ! T 5 3 p ^ ( ~ p ^ { :.{ ( B V : & > V u V m N N C N ",
"6 w 6 1 ; @ 6 G J F ,.C ( 5 0 5 5 G 9 5 ; 3 Y w O.t.Y T 0 U & R @.R G 6 B B L ; C | ( &.,.J J ( ( ~ m T 0 6 3 ; y % N m s s s N ",
"U Y U 3 @ @ ; B T B <.N } L 9 B ( G F 9 5 Y ; - t.W B ..} 8 3 E ! R L U R J ^ B B ..<.( ~ ^ 6 I ~ / ; 5 6 0 ; = N y : T ^ e d C ",
"G 6 w 6 5 5 5 2 5 6 6 5 6 + + 0 G B 3 9 G 6 @ 3 R F h.N.T 3 ; G ! [ | [ T G ] { ^ D 1.1._ ^ B 5 ^ { J 0 U 6 N C R J G R E * / 5 ",
"; ; 0 5 0 G T 5 + G 5 & . & B U E X.G 3 3 6 + w 4.:.<...Q U 5 3 U U J J J J ] <.:.( ;.&.{ ,.:.9 Y ] T Q ; 3 G ^ F T O.; 3 q T 3 ",
"3 + & ; G G G F ; J J + 6 U U L U X.X.3 < ; 6 +.G _ ( _ ^ L K 0 9 5 6 B ^ A A ( :.{ 2./ -.( / $.p.^ H H * & ; = ; R 5 3 3 @ w q ",
"W 8 & ; 5 5 5 B J ..H 5 T U U J  .| q. .T ! M.| F ^ s ^ ^ T 6.0.G X = { X.{ ,.~ ,.,.,.Z &.{ H G L F L 6 G H N = G 0 3 3 6 3 5 9 ",
"..Q ^ ( N 2 5 P J V B J T B E  .y.q...} 4.J | ^ | ..H _ F G 6.9.G 3 B ^ N.( / ( ,./ h y p B 5 ; 5 G G N H ^ ^ & 5 9 3 % @ E O.J ",
") / c H - B ~ ` , T ,.^ B 3 B ..<...:.^ ^ V | J <.H V V % 5 E Q 5 G ] 2.( ( :.{ 2.A + 6 6 3 ; I T 5 ( ..{ ^ > @ & 3 5 ; = R X.^ ",
"c k ' d.p ~ c h 0 ] ..( 5 3 G ..^ ,.{ ) V ; 2 5 N h N ; 3 2 6 G - R } { { ^ G J M = 1 B E G 6 E 0 B ] ( ,.^ B F 6 0 3 3 &  .X.k ",
"k ~ b v ` ~ s 5 E T ^ J I I ] ^ ,.( ~ P 5 5 5 5 ; 5 5 B 2 6 B 5 5 G R | ^ V G 9.T ; 3 6 T B 5 6 ; G R } J G { ] G { } ^ 9 ! <.k ",
"~ k c / F + - ; 5 5 5 F F Q ..( ..~ & N B 6 G G Q 0 5 6 6 Y Y Y U 9 J H ] ^ | ^ X.{ ] G A N 5 6 9 G U G E X.) N 5 F ~ ^ G F J : ",
"` x ) ^ ' 5 9 8 ; 6 L B 5 5 B D {  .+ ; 6 w U Y ! L R L U R R ! ! 0 > H p ; P C ( ^ V V ^ H B R Y O.Q 5 Y <.N G t.w 9 5 5 Y G _ ",
"~ / ~ ~ Z L E E 3 U U U T 5 5 V G 4 O.G 6 6 Y R T U Y R T R ! !  .F 5 G G w B ( ( I R F B B 6 R T R ! G G $.| ! 3 9 0 6 G U U ..",
"` i / ` ~ q 8 U 2 E Q  .X.B 5 U R 5 R i.O.6 1 6 U U R U R L E Y G _ T G H G T p T R B. .3 6 B B U ] ..G _ } U q 3 G 0 0 U U U P ",
"/ ` ' x h 8 0 E 3 R @. .T ; 6 T  .R 6 5 R w @ 6 B U T Y T W U 6 > 1.:...H | @.U R 4 6 R G 5 ; B ] ' / _ ^ ' N q 3 9 Y Y 0 U ^ l ",
"( / j J 5 3 E 6 U  .! U U 5 q [  .[ R 6 R o.; 5 9 G T T R ! U 6 ; / ,.<.&.^ O.@.3 5 ; U #.1 G 9 ^ ;.I 0 H ^ F 9 8 6 Y W G ; ~ / ",
"` ` ~ ( 3 6 E 5 Y  .R R  .L 5 T ! R R 5 w #.w O.U 0 G G T R 0 3 G ' 2.H ,.:.W 9 3 2 3 6 @.O.T ( ..} #.B ; Q J 8 3 + 4 3 ; G h.' ",
"( f 1.-.p R 3 5 L R G G U G 3 G T E 3 3 Y 6 @ O.w 1 0 3 0 R U U T <.1.' ) ' $.} ] G 5 B #.W B h.q.q.o.X.T 3 & 0 W Y U E L ,.;./ ",
"( H H x J U 3 G U B G 5 9 T G F G 5 3 t.T U U w 9 9 E E W U 6 6 0 ..1.^ ~ &.( ( X.T 6 #.4 U 6 ..' <./ ' J B % ; q 6 5 3 F _ h.( ",
"| _ E L L q ; 6 G 0 T ' .._ ) _ _ d.E E 9 ! W G G Q T E L E 5 5 9 C ] T J :.N V ( ^ @.R h G 9 ,._ ' ( 1.^ ^ T 5 + & ; F > k &.H ",
"E 3 5 3 3 * ; 3 G T G <.f.f.l.b.b.g.! Y 9 0 q E 9 E U 0 G U U G 6 5 ! 0 5 { = & ) ( ' ~ /  .6 F f.&.H / { $.! O.3 - N ~ _ x p O.",
"- + 9 U 5 ; 5 P H 0 _ f.x.=.=.f./ ) | I L ; 3 W 3 9 G U R  .E Y Y U U E 5 J N G N L ~ ' ~ R o.V ` ( J U W U @ 6 O.3 U ^ | G U G ",
"5 ; & 6 9 N ' ~ p J g.) / f.z.z.` =.` f...6 O.p.9 5 0 W U T R U R U U U ; L G G U B H 1.:.G p.X.P ^ U 3 ; G U % @.t.C.y.5 0 0 & ",
"E 5 ; 5 s ) j.^ -.j._ _ =.b.f.f.s.` c -.w.W q U 6 3 @ 0 5 0 G 0 6 G E 9 6 U G T E G T ..( / U O.p.9 9 2 U [ } R 6 ; W Y + 6 6 6 ",
"U L H ~ Z ~ / ( q.=.~ ( :._ f.n b =.~ q.> + T Y 6.W W O.U 6 4 w q ; 0 W 3 F I R R R Y C ( -.h ] U 3 6 Y !  .[ R 2 @ U Y 9 R U U ",
"U 5 C d / ^ ( / ' ~ / ' g.;.;.-.h x F ; 3 ! 9 @ ; 0 9 9 G 9 E 6.G ; G m.J ^ J R ! R 5 J [ 5 _ Q B B G @.! T R U 3 ; 5 O.G R Y U ",
"3 : * x %./ / ~ s 1._ _ ) =.;.J > & 5 5 0 G - 5 + 3 F 9 F L 6.P 9 5 p ` _ ' P G T L 5 5 T ^ | _ <.J G R R 6 G L ; @ 6 t.; 6 6 6 ",
": x ~ x s j k = p ` ` / h ) Q q @ @ 5 9 5 p ..q._ 9 9 ; P _ | ..F 9 _ k ) h N 5 G U G G U B 9 w 5 3 ; 6 B 5 5 3 1 6 5 #.6 ; 2 1 ",
"p ~ x ~ &.~ ; N ~ / ` c.;.s & F G F I _ J j ) _ w.G 9 G h ) ..P 9 F G P p & ; 3 0. .L U U ; U U 1 6 3 3 6 Q R 0 B 6 U U 6 O.6 & ",
"V s V s p Z H h ^ J p k.c.H 0 ] | ( _ <.=.` h.' N ; L R 9 > _ I B G G J ; ; B 6 R u.Q G 0 0 U @.w 3 6 6 U U ! w U 6  .! 5 r.B s ",
"y S ~ V V N L = V G F ' ,.J T L I ' ) / ` k.k.g.( N G 0 0 h H H B U @.R U B 6 ; U #.R 3 G E  .U O.6 5 E U U Y 7 7 U G 5 W Q d f ",
"H ~ H H 5 5 6 U Y G P J ] L ^ G 5 ( ' d.=.-.x x ~ ( ' F J ~ / ~ N G ! O.O.R 3 ; Q y.X.G G Y M.T 3 W O.! 2 6 U 7 6 E ; 1 w H c / ",
"&.J ~ p & ; 2 Y U 0 B U B 5 k ^ _ ^ _ ' ' > F N s H <.<.-.V H ~ ~ J Q O.R E B ; ^ ( ^ | V = Q 0 ; 6 U 5 6 B 6 6 6 5 3 1 G d Z -.",
"D J ^ p : N 0 6 Y U = U 0 : p H _ ;.) ^ I 5 : F ) P H x / k h , ~ _ = 5 G G 5 2 s ~ j / _ p V 5 I X.R U Y R R B 6 6 U 5 G 2.<.( ",
"( / ] V ~ = 2 3 5 L % 2 3 ^ k * p H H H B G N H H ) ~ j ) ' ` p ^ H U T H N ; B ; h d / ~ s / -.-.| $.O.!  .Y E w 6 6 2 6 T / d ",
"s 1.( ^ ) p * y * > N - & x %.H & : H ^ p ..^ ,.q.j.,.` ) H &.( h ( G 9.H N 2 5 s / S u A $ c ;.x )  .! R R Y E U 0 3 ; 0 L f &.",
"2.A V H P k H V J ~ a i A s / ( J 9 > _ > ^ x j.g.f.' ,.` V J _ d.` > p.6 X 0 3 * s ^ A u S x s / P U Y E Y B q ; 5 5 @ 3 $.v.f ",
"2.^ N / ( ( H :.D u a s Z i & H  .w.F F R [ ' ' d.` ) H , N ' h ) ^ u.i.p 5 0 6 % y A C u A d a -.] U U T G 3 ; = J ( ,.^ T ^ c ",
"1.p s / %.*.&.&.a u A i s / H U Q Q 0 8 ; G _ ( ~ ~ l s H h h G R r.R 5 > 5 5 B s ~ M M A d =.: y l 5 U E U 6 . F / 1.c.%.1.Q ] ",
"G q L H f ~ C u y M A t e s % L Q L & - ; 0 J ~ ^ ~ ~ _ p   Y t.] 5 2 0 N X : Z = u m a 2.A p ; w E q 5 U U 6 % - / ^ 1.' f.G ! ",
"0 3 3 5 p m = N m M t M Z F ; 3 ; & - G F E G ` h k H 5 5 W a.G c Z 6 2 H V s p 6 * N &.3./ 5 U w ; U 8 @ E 3 G J x ~ _ / n.M.! ",
"; 5 6 5 + = 2 2 2 M M y H V 6 U T 9 ; ; P N ~ k , F & @ Y 7 Y n ( p + 2 y d B @ ; 3 ~ / ~ 5 Q F + & 3 W & 3 6 R ~ h ~ x ;.k.V.L ",
"1 3 G T 5 5 T T 2 * Z M : & 5 R ! J ; > k ~ p & F p 2 7 5 @ w H f S Z A Z y N } 5 V ` k ;.~ p F G 6 3 o.U + 5 Y 3 s / / ,.H W 6.",
"q 9 6 B & U R G 5 s j y i & @ 2 9 9 5 I ) b 5 3 i F - & 9 ; 6 8 %.3.1.3.3.) s._ 4.J h V V 1.,.U U 6 w o.W + 3 ; H &./ H s ,.h.E ",
"3 6 6 1 @ 5 T 6 J p N B B - ; @ w t.9 , _ Q G ! 9 F 5 6 5 - 1 E %.c c ;.v.;.x.&.I 6 = J U 2 % U 5 Y #.q 3 3 q G ^ ^ ( F : k H : ",
"X 3 5 & B 6 5 5 = + & N 3 9 q q ; 3 Y 9 L 4 q O.L L L 9 9 ; 3 N j x =.c f =.%.| Y 3 6 B U B @ J 9 O.6 @ 3 G E G ../ s ^ H / f.: ",
"3 @ 3 2 B B 6 B 3 2 5 5 - 3 G - +   4 t.) k h Q U > 9 3 3 3 0 > X : s e a F G E @ 6 7 B B U J H ! w 6 6 6 0 0 9 F / ~ J k / h.W "
};
