/* XPM */
static char *result[] = {
/* columns rows colors chars-per-pixel */
"64 64 124 2 ",
"   c #142625",
".  c #142A27",
"X  c #152D29",
"o  c #163425",
"O  c #15332C",
"+  c #18322D",
"@  c #143A2E",
"#  c #183829",
"$  c #163730",
"%  c #183730",
"&  c #163C33",
"*  c #183D35",
"=  c #173F38",
"-  c #13412E",
";  c #154235",
":  c #194235",
">  c #134B36",
",  c #184A36",
"<  c #17443A",
"1  c #19453B",
"2  c #154A3C",
"3  c #194A3D",
"4  c #0F523A",
"5  c #0F5D3F",
"6  c #13533C",
"7  c #1E523F",
"8  c #125A3F",
"9  c #19583F",
"0  c #264E3C",
"q  c #25533E",
"w  c #174C41",
"e  c #194D41",
"r  c #0F5642",
"t  c #165442",
"y  c #1A5245",
"u  c #135C43",
"i  c #1C5942",
"p  c #1B5649",
"a  c #165C49",
"s  c #1D5B4D",
"d  c #1E5E51",
"f  c #205D4E",
"g  c #205F50",
"h  c #126344",
"j  c #196344",
"k  c #106847",
"l  c #14654A",
"z  c #1B624D",
"x  c #136B4B",
"c  c #0F734E",
"v  c #12724D",
"b  c #11784F",
"n  c #1E6253",
"m  c #136C51",
"M  c #1C6C54",
"N  c #1F6759",
"B  c #1E6B59",
"V  c #0F7E55",
"C  c #137452",
"Z  c #1B7453",
"A  c #117B54",
"S  c #1A7E55",
"D  c #1C745B",
"F  c #177D5B",
"G  c #187B58",
"H  c #22634C",
"J  c #216454",
"K  c #226857",
"L  c #226758",
"P  c #236C5A",
"I  c #286E59",
"U  c #25715E",
"Y  c #29745E",
"T  c #257462",
"R  c #287662",
"E  c #267A66",
"W  c #297B65",
"Q  c #277C69",
"!  c #297E69",
"~  c #0F8B56",
"^  c #0F8259",
"/  c #0F895D",
"(  c #128155",
")  c #1B8053",
"_  c #128A5C",
"`  c #0F9261",
"'  c #0F9D63",
"]  c #0F9868",
"[  c #119964",
"{  c #258167",
"}  c #27846B",
"|  c #2B846C",
" . c #2D886F",
".. c #318A6E",
"X. c #2A8570",
"o. c #2E8C72",
"O. c #318D73",
"+. c #2E9176",
"@. c #2E957A",
"#. c #2F997C",
"$. c #329176",
"%. c #339579",
"&. c #359B7D",
"*. c #399D7E",
"=. c #0FAB6B",
"-. c #11A46A",
";. c #0FB176",
":. c #10B972",
">. c #369D81",
",. c #389E82",
"<. c #37A283",
"1. c #3AA484",
"2. c #3CA887",
"3. c #3BA788",
"4. c #3DAC8B",
"5. c #3FB18E",
"6. c #41B38F",
"7. c #41B593",
"8. c #43B995",
"9. c #44BF9A",
"0. c #47C59E",
"q. c #47C6A0",
"w. c #4AC9A2",
"e. c #4FD9AF",
/* pixels */
"P B P T Q T T T T T T N y P U s s R  .J s s & & s 1 2 1 y s s J p e t j ) , . ; 3 2 < w p p e w p p d s p p d d d n P B P X.| P ",
"P P B P T P U E E Q Q n N X.L y K U P z 3 3 e 3 J e w y p s s g p w u =.( ; X & < 3 < w 6 w 1 2 e p d p y d N d d L P L P T | T ",
"P N P B L N B B T @.+.X.+.E p < y s s < O 1 p e L N n n p s d d d w 2 ' ~ > @ & ; 3 < w w 1 * , w a p a p d L n d n L n n T | T ",
"T P P P P N d P X.X.>.7.2. .E p ; y p f Y s < 2 n P K L J J J n d e 2 u =.v & , < = & 2 w 1 2 u u / m p s d L L g J J L J P P T ",
"y N L P T L d P E P T O.1.*.P P y & 1 P | R y y P U P P P B P L n n : = ( _ j 6 @ > 6 > > ; ; 6 h m A 7 t s L n J d d L L d < & ",
"w d P P P P L T E E T P R ! n  .s & 1 y y p 3 3 U U U P P P P P P K 3 & : ) Z 9 , > - # # # # o u 6 A h x s N N L J n n d < ; t ",
"] P Q T U L B E E E Q T T U n U z n y t p y 1 1 U R P N U P L P L p < & + 9 _ q 7 V C 6 > ; > & t h A v C t s n n L n d & . & l ",
"[ D U X.! P P E W E Q T E W K a L K p 3 y p 1 @ < n s e p y y w 2 < 1 : 3 @ 8 Z j C c h V / u < u a y v / h 3 y d s w $ & 9 u p ",
"] d L Q ! ! E E E Q Q U E Q g s g J f f p y = O 0 : O & O = w 2 3 : p P P B < w u 8 ; , 3 < ; < 2 t 2 a ( k ; = w w e f D C a G ",
"d y s T ! E U T W W ! T U U p w e e 1 3 1 * O - q 0   = O O = < < y s T Q Q T w = = ; X & 1 & X O O @ O v 8 & 1 d N T T T p v F ",
"w w s T ! Q U T ! E ! ! T E s = R H f y * O O j ; @ > > @ O O O O L T D B } } T n M E s = < & X . o X O h 6 ; 1 N P B P P s x l ",
"= w d T T T U d P d L U L f e O.%.W O.O.P O . : [ ;.A 6 4 @ O & @ < p E  .D n n y y n s 1 * w $ O O O + 6 > & & e N N B d s a k ",
"< s N T T U U g n O.H 1 = * E $.L P P P J + # 2 [ ] k 5 ; o & & & < ; Y W e 3 3 < 2 s p w t p & o O @ > h 6 & & J U N w = O u A ",
"= p N T U U U T O.| e + % e X.E P E E g : @ j k > > & X O - @ @ @ = : Y P 2 t t y p a d p e e $ O ; > u 9 , q e o.3.Q w X O 9 y ",
"w d N E R T R $.4.>.f e L y g R P T P s & 1 S 8 4 ; O - , , ; & O O & R s 1 y s n t s B n y y & X & 4 6 : , y s o.+.N y = < = ; ",
"y P T T E R P E | | e f K f * 3 3 p p y 1 s M b c k 5 ^ 8 , 6 ; & X y W J e e s n p t N N p y 2 O X < t 3 6 p B o. .T w O O O 3 ",
"d N ! ..W X.X.I U U Y P U p & : 1 & 1 L P R p u V ` c h > t , O & + : s U U L n L d p d L N d d < & y y t p p T %.o.T T 3 X 1 L ",
"d P %.,.$.>.,.6.7.3.&.%.1.8.J y y * | $.*.%.y 3 w w < & & O & + O : 3 s P P J T T P d N P P N d w 3 T n s s d | %.o.>.| y w w s ",
"d N ! X.O.| O.,.<.6.4.1.8.w.| 1 $ L 6.O.! P p 3 w = = w n s R 3 O ; e s J J J U T P L L T P g L p 2 {  .D E o.@.X.o.o.y 2 s p p ",
"N P X.X.| X...| O.<.6.4.*.| J % X J J p B L P p w w w w o.o.2...& p f s s H J P T T P P T U L L y p E U E #.@.o.#.&.#.y w p d g ",
"d P  .| | ! ! W | O.O.L 2 < 3 < O s a t s s P s s s p s ,.4.>.Q 1 p g p p d L J N K U T T U I P s s R M W +.o. .+.>.@.p w s g d ",
"n n P ! X.| O.%.| o.o.y w w 2 < $ a n d t s L N d d s d X.T N N d p p p p p s d n P W W R W T P n 3 3 n  .#.+.o.+.>.+.p w p p s ",
"v l M o. .| |  .X.| o.s w w 3 = $ s N z J n n s s s d p N d d d s s s p p p p s L P W E T W E P n y . : P E  .&.>.+.B e < p w y ",
"n d h { | | |  .O.! o.L < w w 3 $ s n s n n s w d d p w N N d s n o.| s d N p g L ! ! R W W ! U U J p : & y P W P p w O $ w a u ",
"D m t n ! ! ! ..O.! ..! p < < < O s n a N L p d g J = 1 N N d w | 1.o.! N N n d P ,.%. .O.%.%.| P < J L y = $ < = $ O O & w l m ",
"l / n u P E X.O.X.W ! %.U & < 1 O = N N s d n s p e & O L n y y N L n d y d L g R 4.1.*.! | 4.T 3 H | O.R N p N p = . ; r w N D ",
"t n l z M D | O.W P ! O.E t 3 e $ O w d L P P p w < $ X < e y d s y p p p s d p | 7.1.E f f Y e ! 7.4.W N P N t w = O $ t C B n ",
"x C v m D M P | | O.X.| } s 3 & O X X $ = 1 * @ = $ O ; & X w n N s d n d n d %.$.O.L n L g s e | ! B L N B N = X X $ & < r t A ",
"M Z B P L D M ! W .. .{ U E R t $ . X ; > 5 u : X O ; 4 u & O p s p s n L n J O.! p n P L d d p ! P T U B n B w & & = n s p t M ",
"d n N L P U R E ! | O.W s W J w w X O u / k k 9 O & > > k V 6 = = e p n N n L d n n P P N d d e W P T T B d N y = ; d L n B d d ",
"P P L T Q Q | | .. .o.P J { P w & X = x r > ; > & & 5 > > 4 h > $ < p d L L L N L N n n d J L = f T T T T N y & $ w L N d N B B ",
"Q T ! o.o.| X.Q  .o.O.K K W U w $ $ 6 k @ @ > & & & 4 r 5 h h k > $ w s d d d J N n L d n L g % % = w y p w < < = < N d d d N P ",
"W E | +.o.X. .{ o.o.+.B P W R n & & > > X @ r & $ e w @ & > 4 u h = O s s d n n n n N n n B L & $ e + 3 O.%.1.4.2.f y s y p w L ",
"E  .| X.o.} E |  .X.o.a s { E D ; @ @ @ O @ 4 O e B p < O X > > > 4 O w n n z N n d n B B N d = w e & ! 0.1.4.1.*.%.$.2.R , w N ",
"| | |  . .T R | { } P & p U B s O O @ X O @ & X 1 e w p 2 = 3 4 @ 4 & = ; 2 t B B U P o.! P N w s e % ..6.5.1.P K E  .1.%.1 p P ",
"E E Q } | R ! P s s 3 ; @ & & $ X O O X @ @ = X = e p p w 3 w k > > & 3 w = & s ! ! B D X.L w = e 1 g | $.O.P J P n K P n < 1 P ",
"3 J W R P P J = & & = & O X o . O ; 2 & & > & X O < p y 2 w w l > < ; y N J * 1 P W T T K , K  .| y K | K s z J J z K K n < = 1 ",
"@ 1 L L w $ O X X X . . X ; - O t n P w X 4 4 > X = e w w 1 m > - < = w n o.T = = y p 3 O H &.&.&.| L J z P J J K P P K n < < = ",
"s Y Y B s < = X X X . X o , ; $ y e p 1 X ; u k > 2 w l t A k @ > & < P J ..$.R ; < : p P ..*.*.&.#.E s J Y P K P P K L p = = 2 ",
"K J z s s ; & X X O O O @ ; @ 1 P P I K s = > > > u A C k u - > ; 2 s R L P %.1.Y e s 2.6.1.*.*.%.W n z J P K U K K n J p = = p ",
"H J d s p ; $ X O & @ & h x O : W W Y P z = @ > u c ] x 8 t y 3 w t P E U P W O.X.! R O.%...| | R H J L n P U Y P J P Y s ; 1 J ",
"J J d p y 1 3 + = u 4 & 4 V ; * J L n n s 1 $ & < w u 6 > s z t < s T U U U I P I E T L P K J J L K J s R  .Y P P s s K 3 = p J ",
"H J s p s < 3 = & c h ; 8 ` 6 < L P N N J s < * w = < w < 2 Z t s N P E U U U R P L L g K P J i p J H s ! Y J J K H s s e s H J ",
"J J s H p = ; & O 6 4 6 ^ / > 3 K n n L J n e 1 d e < w < 9 a n P N L T T R P U T P L J P I K J n H J n P L J J J J L s J K s s ",
"2 e s d e & f f * 2 x v ( y 1 f n L d n J g p w g g d p p p p d N L J L P L L I P P J H P U K K J f f H P J J L J J J p p J y 1 ",
"e s s w y O.9.*.J 3 z Z a f P y e J d d J p 1 p g d d d d p p s N L g d g J L L U P L U P P K J s p s J Y P J H J J d p p s e y ",
"<.q.3.Q 4.e.w.*.| f s s f f P 3 O 1 y p 1 X + e g g g g s y s g L N p J L L L L U L L R U P P J J L U U Y P z L J J n p e 1 e P ",
"o.1.>.3.5.8.7.*.1.| J H J Y o.f O O & 1 1 O = = e g E E ! U U g d N d L I L L L P L L P U I U H K U U U U P J J f J d s 1 p X.X.",
"! T | o.P K U U { | | U W O.$.U y 3 3 t w p | R W | o.| O.%.O.I g g L I P L L L Y L J P P I U L K P Y Y P L f g s d g p < J o.! ",
"! E P P K K L N L K K K K Y  . .P w < w L %.3.4.5.*.!  .! E ! ! U g g I L P I U U P H P P P P K K P K s s s p i s p p p = J ! T ",
"T T P P J K K J J J H J J J H P L 1 : n $.,.*.1.4.1.| o.$.! X.! Q L g g g P I L P E J s H p z J n J 3 & p s p e p w < 2 & s T U ",
"P T P P J J z n L J J J H J z J p O d O.,.,.,.>.>.$.| T E ! ! X.! T P g L ! T P P P P L J i 3 3 e t ; O = < 3 w 3 & $ * & t U N ",
"B P K n K J J K L K L H J J J J 1 . L <.,.%.O.$. .T U | X.Q | E Q E T ! $.,.O.! E U I I Y R y & $ $ + X . X + $ $ X X X X w N N ",
"N L J n n K K L n f J P J H s 1 O X L 1.*.O.! ! o.| T X.o.X.X.U g O.! >.%.,.,.O.O.! P U P Y Y 3 O & & 1 3 3 e * X X $ $ O y d s ",
"P P L K K L L L J P | W p 1 & + < 4 y R %.%.U | ,.O.E E o.! Q J I ..X.$.,.,.%.| O.! R I Y R Y * 2 e w e L ! I e X O X X X w s d ",
"d P N n n z i e 3 f f 1 < ; & , k h : O f | W W X.| E U B p P E R ! %.....%.,.! E X.W R ! Y 1 ; e w w w e f 1 1 $ $ X $ % X $ w ",
"& e 1 1 < & O O O O O $ & = ; A _ ; O * = < U ! U P n d < = p d g P o.1.$.,...f L ,.6.| R y + : 2 y y e y < = 1 $ $ w 1 p y O X ",
"3 3 ; & O O O O ; > O & ; V _ h ; + @ o @ = 1 y e = & $ & $ $ = 1 1 = y e e $ . & g I f e @ O * 3 3 3 3 2 < & + = P P p 1 * ; = ",
"s i y y w = + O 4 4 2 h h / v & . + 6 3 e & X + $ X . $ < 2 $ $ X + + X X .   . . X O O + + O & ; : 3 e y 3 e 3 p L d p p : & < ",
"L f s p < O & e > 4 4 r 2 O   o o 2 M *.<.O.K @ O O $ < e e w 2 + + X X , < + X X X . + 3 f s 3 1 ; 2 y 3 e p y p g g J L p J P ",
"%.*.*.$.L d P L 2 , = @ X O X O a x N  .| &.4.f O ; ; < p y w 2 ; O O < l 6 @ X . . . J W R K p 3 e y p J I P s J s g J s T 8.<.",
"&.%.$.| T T | n y 3 & O O @ O 6 v & 3 z f s f : & ; ; > t p p w 3 & & 6 6 r & . X O % f P K J s s s i L | %.6.,.O.| P L H *.8.1.",
"L N n n B T T E P d w = O @ > 6 & O 3 J H p y : : 3 ; < w p p y w = 9 ^ x > O O 1 = * y y 7 y p g g J J J f J K W $.o.o.E &.1.| ",
"L B P P E T T T T P P p < O X & : y U L n s 1 , H 1 : 2 3 s f s t 1 m -.:., X < w 3 : y i f y p s s s f s s f s s L E T W o.X.B "
};
