/* XPM */
static char *_9b9157ef1494948cebbe736c6085841VQ0TGWSKSN0Zl6Co[] = {
/* columns rows colors chars-per-pixel */
"64 64 256 2 ",
"   c #081119",
".  c #101C29",
"X  c #2D2F33",
"o  c #36383B",
"O  c #413A36",
"+  c #604B39",
"@  c #2B3746",
"#  c #363B43",
"$  c #403F42",
"%  c #3B4346",
"&  c #3C434B",
"*  c #354C51",
"=  c #3A4954",
"-  c #2C5479",
";  c #375A7A",
":  c #33706A",
">  c #47484A",
",  c #574F49",
"<  c #444C53",
"1  c #4A4C52",
"2  c #464E59",
"3  c #4C5255",
"4  c #4C545B",
"5  c #48585C",
"6  c #535354",
"7  c #5A5857",
"8  c #53565B",
"9  c #555A5D",
"0  c #5B5B5C",
"q  c #685649",
"w  c #725C4B",
"e  c #645C59",
"r  c #69625B",
"t  c #786758",
"y  c #4B5964",
"u  c #545B63",
"i  c #545B67",
"p  c #5A5D63",
"a  c #465E79",
"s  c #476666",
"d  c #516262",
"f  c #566566",
"g  c #5C6265",
"h  c #5B646B",
"j  c #50776E",
"k  c #4B647B",
"l  c #5A6A76",
"z  c #587777",
"x  c #636364",
"c  c #6B6765",
"v  c #62656A",
"b  c #64696C",
"n  c #6C6C6C",
"m  c #786C64",
"M  c #736E6A",
"N  c #706F6F",
"B  c #78726C",
"V  c #636B72",
"C  c #6B6D72",
"Z  c #636D79",
"A  c #6C7273",
"S  c #6C747B",
"D  c #667978",
"F  c #747473",
"G  c #767677",
"H  c #7C7A75",
"J  c #747A7B",
"K  c #7C7C7C",
"L  c #9C673A",
"P  c #835E4C",
"I  c #88654C",
"U  c #976D4C",
"Y  c #866B58",
"T  c #88725B",
"R  c #997659",
"E  c #A6764A",
"W  c #AE7649",
"Q  c #A57A5A",
"!  c #877769",
"~  c #997A65",
"^  c #947C6A",
"/  c #857C76",
"(  c #8E7972",
")  c #A57C64",
"_  c #B17F60",
"`  c #48837E",
"'  c #5A827A",
"]  c #67847B",
"[  c #7A827B",
"{  c #9E8257",
"}  c #AB814B",
"|  c #A9835C",
" . c #B78859",
".. c #9C816A",
"X. c #8B8177",
"o. c #84827C",
"O. c #988777",
"+. c #A88669",
"@. c #B48A68",
"#. c #B9946A",
"$. c #A58A76",
"%. c #AB8B72",
"&. c #B28F76",
"*. c #AA937A",
"=. c #B69778",
"-. c #BAA27E",
";. c #C9946B",
":. c #C49A76",
">. c #C0A07D",
",. c #2A5A88",
"<. c #375E84",
"1. c #265D92",
"2. c #305D90",
"3. c #2E618E",
"4. c #396389",
"5. c #2A6498",
"6. c #366794",
"7. c #3D6A94",
"8. c #3C6C9A",
"9. c #3C729C",
"0. c #1F63A1",
"q. c #3B75A6",
"w. c #3171A8",
"e. c #486989",
"r. c #556D86",
"t. c #4D708E",
"y. c #58748B",
"u. c #456E94",
"i. c #497499",
"p. c #537593",
"a. c #577895",
"s. c #5C7B94",
"d. c #547B9B",
"f. c #5C7E9B",
"g. c #697987",
"h. c #767C83",
"j. c #647D94",
"k. c #627E98",
"l. c #4479A5",
"z. c #4C7CA3",
"x. c #567EA4",
"c. c #4079B1",
"v. c #817D81",
"b. c #3482BB",
"n. c #5B8886",
"m. c #5D928F",
"M. c #58859A",
"N. c #698985",
"B. c #7C8283",
"V. c #758887",
"C. c #7D838B",
"Z. c #6A938E",
"A. c #78938A",
"S. c #64839C",
"D. c #6B8598",
"F. c #768997",
"G. c #6B9795",
"H. c #789896",
"J. c #79A29D",
"K. c #5785A7",
"L. c #4C8AB0",
"P. c #578BB3",
"I. c #6789A7",
"U. c #768EA4",
"Y. c #6790AF",
"T. c #7C93A4",
"R. c #7895AA",
"E. c #6995B7",
"W. c #799AB5",
"Q. c #77A3B3",
"!. c #639DC4",
"~. c #838383",
"^. c #868686",
"/. c #8C8B85",
"(. c #848B8C",
"). c #8C8D8B",
"_. c #958C85",
"`. c #87958E",
"'. c #97938B",
"]. c #878C93",
"[. c #978F91",
"{. c #889696",
"}. c #939494",
"|. c #9C9993",
" X c #969898",
".X c #9B9C9B",
"XX c #AA9686",
"oX c #B59A86",
"OX c #A39D97",
"+X c #B49990",
"@X c #8AA39B",
"#X c #97A29B",
"$X c #BAA489",
"%X c #A8A39B",
"&X c #B8A797",
"*X c #8799A7",
"=X c #979DA3",
"-X c #849DB3",
";X c #A09EA1",
":X c #88A6A6",
">X c #98A6A8",
",X c #92B1AF",
"<X c #8BA6B9",
"1X c #96A9B6",
"2X c #98B5BA",
"3X c #A4A4A3",
"4X c #A8A7A5",
"5X c #ABABA4",
"6X c #A4ABAC",
"7X c #ABADAC",
"8X c #B5ADA7",
"9X c #AAB3AE",
"0X c #B3B2AD",
"qX c #BAB5AB",
"wX c #A6AEB4",
"eX c #B2AFB0",
"rX c #A9B6B8",
"tX c #B4B4B3",
"yX c #BAB5B2",
"uX c #BBBAB4",
"iX c #B4B9B8",
"pX c #BCBDBB",
"aX c #C29F8A",
"sX c #C6A78A",
"dX c #C3AB95",
"fX c #C8B49B",
"gX c #CCB5A3",
"hX c #C8B8A7",
"jX c #C7BCB5",
"kX c #BCC2BC",
"lX c #D2C1AE",
"zX c #C3C2BD",
"xX c #CBC3BB",
"cX c #C8C6B9",
"vX c #D4C7B9",
"bX c #E0D0B9",
"nX c #90B0C6",
"mX c #A7B9C6",
"MX c #B6BDC4",
"NX c #9EC1C1",
"BX c #ADC4CB",
"VX c #BAC6C5",
"CX c #C3C4C2",
"ZX c #CBCAC5",
"AX c #C8CAC7",
"SX c #D3CCC3",
"DX c #D5CCC6",
"FX c #CBD1CE",
"GX c #D7D3CB",
"HX c #CACDD2",
"JX c #D9D8D6",
"KX c #E4D5C9",
"LX c #E2DED8",
"PX c #E5E3DC",
"IX c #D6DDE1",
"UX c #E8EAED",
/* pixels */
"C +.cXb 4X*X<XE.nXW.iXg '.%.*.CXu ).C h.DX~ oX&.$.OX@.sXE qX(.< B.> #X8XQ oXR ].R *.$.O.wX& F l h qX..O.x n VXi.M.S.M.rXC.f X.Y ",
"JX+XZ ].:XQ.R.W.Y.Q.H. Xb [.DXhX%.PXhX) LXjX3 S ).b ^.2 qXJX$.XXJX..oXLX_.> /.p _.1 m vX&X~ cX%XR DX&XA G U.L.R.D.D.I.d.I.].p gX",
"hXzXh.VXI.].-XnXI.T.D.BXp 7XvXOXO.#.$.F jX:XA.C H V.D N.|.0Xr O.*./ H VXA.z A.^.A p D kX.Xm &.$.B %XlXV.C nXI.T.:X:XY.F.j.r.4 O.",
"*.l =XL.<X<X>X).kXW.D.K.tXh +.( y sXm y y.G.H.p `.J.>XVXA.N.h F XX= z ' T.VXR.J.z f H.N.z & ~ / y ~ w h -Xc.F.1X).o.1Xd.r.mXV.3 ",
"HXh. XW.R.BXV . S mXW.!.F.B.JXoX+XV (.h V.S F A.6XFX#Xo.ZXkXZ.S 3 A.{.FXuXo.uXVXG.`.r `.c b F F ^ 8XrX8 D.f.h.>X@ . `.U.R.K.8 #X",
"SXF F.!.D.mX X@ ].mXR.Q.*XJ DXoXO.K A.{.] [ V.Z.ZXo.4 A b qXZ.{.h.A.9X5X3 l 3 9X:XN.S A.s F D G ! dX|.u <XK.*X>Xy 2 >XD.s.2Xh.7 ",
"R i %XE.R.F.wX6XmXU.T.K.[.C Q c ; A.Z.VX9XH.{.2XuXb _.+.h >XtXN.' :XZXv N #.B x VX{.H.N.>X@Xj J & Y t l ^.P.-XI.2X1XI.F.K.a.x H ",
"hX7Xi MXs.*XF.R.I.U.P.VXp eXjX9XN.kXCXOX%XJX>X[ kXg O.%.! 9X=XD n./.MXp ) Q B A iX] kXiX/.%XiX:XD tXSX].o.mX9.*XI.I.D.M.Y.).d jX",
"vX'.Z [.F.Y.S.].a.W.-Xh.0 ) GXVXG.JXF l u o.uXs pX}.Y ) =.vXB _.XXx +XlX+.) M iX{.j tX0 y 8 _.9X' AX&Xt x D nXL.x.W.q.nXV.g C I ",
"O...XXC %Xh.<Xf.mXg.O.S HX$.e V.VX Xh =.O.g AX@XK eXjXXXgXyX@.&.} &X| FX*.qXCX7XC.9X).u %.O.4 0X:X5 q +XMXu o.F.nX<XwXh h F ~ n ",
"s +X;.v.h C 4Xx '.8 x OXvX#.u z HX~.J =.%.~.iXA A Y $XhXT jX8 C |.# }.%XR ZX~ e v |..X! %.$.u rX>Xf n =.vXr A A b 0 x V b ..( h ",
"B.i _.U vX'.v =X6 [.gXU ^ +.[.n.H.CX1 R Q dX&X$.:.O.F (.i 2 V h.u {.u l F ^.B &.$.~ 8X$.+.r S kX' V.O.( t @.SXr ~.rX, cX&Xt g l ",
"U.8Xv ZXJX@.&XPX%.$.LX[ #  X& ^.A.HXpX8XXXdXjXm M x h.i CX].tXAX|.LXh.HX].h.C./ H XXcXXXXXOXMX{.`.f d l % kXZXU $XxX+.%XHX]., wX",
"I.D.l fXoX< ( :.m [ kX[ =Xn.{.N.] h ^ gXvX! ).h ].K JXMX8X8X}.}.tX).eXtX;XZX4X~.].F '.^ zX*.F ] : A.' A.J.' ] # ! R = c ~ 6 l 7.",
"s.W.[.6 :.c F XX2 N.G.uXJX2X@X`.j =X@.~ 7Xp S S GXjX3X).[.C =XZ tXS 4Xf CX^.7XyX9Xg g o.OXY O.z j A.{.iXkX,X@Xu M H 6 *.OX1 3XI.",
"-XK.7 7XDX_ B 4 `.@XJX9XN %XGXh OXE $.y 1 h.JXwX.XG tXS HXtXwXwX*XmX=XjX4XC.3XC tXqX5X% # / E $.= tX9XF c 3XiXj Z y +.@.IXV z i.",
"s.nX/ F sX/ v. X' kXo.h ).3 .XOXQ +XB u HX7X5XA yX.XmXMXa.*Xe.*X7.D.S.g.].iX}.{.(.H '.0X}.> _.T Y uX1 B B p pXm.D C = T Y > 3X<.",
"f.D.n ( Q y 8 5 @X0Xg &XU *.) DXXX8 i S jX.X6X(.=X1XU.x.a.t.r.k.u.a.I.e.D.4.>X*X(.].}.uX}.S < / hXyX~ $.Q h '.VXs 2 l F &XV.8 Y.",
"1XOXp GXZX:XV.z H.zXp v.*.) &.oXjX> yXjXZXZ OXBX1X2.*X6.f.u.t.p.u.u.f.p.y.j.a.e.>X9Xl 4XiXJXv B.gX&.R Y h.% 5XG.z V.z AXDX/.h  X",
"g.p t sXCXJ.F.F H.BXyXf x +XSX$.h h.=XeXx CXrXP.c.k.7.x.i.7.e.<.<.<.,.4.<.D.4.T.,.*XrX].b eX^.Z e dXjX_.1 .XHXn.V.6 G.' ! ..F.# ",
"p MXvXt 9 H.h.M H.H.9XCXjX8XhXiXv LXiXeX7X4X,.-Xq.!.6.<.- r.r.r.y.k e.e.4.4.j.<.U.u.K.7X.X6XFX>Xv jX&.7XAX>XN.H.] g.f z % XXGXC.",
"t sXsXt V > z {.A.>Xs D ]./ O.p S 8Xh.J mXu.*X,.Y.w.l.j.j.k.e.u.4.a g.y.g.p.5.i.7.l.W.s.uX< 0XJ h.e +.6 V.s @XCX{.Z.< 8 ~.I *.U ",
"dXY ( O.H A.>XrXxXuXCX6Xy &...~.LX;X8X7X=Xz.u.S.,.e.D.x.x.l.l.f.e.d.<.- 8.I.d.2.i.K.- F. XeX(.jXtXp ;.m [ FX|.n tXVX' V 7 B.X o.",
"gX0 V / n J.2XjXx 7 h.MXt &.F G 5X^.J =X- D.d.,.e.g.l u.x.Y.k.*Xj.d.j.t.8.4.j.e.6.4.U.7.p.7X4 wXC v / t #XB.& b 8 9Xn.] c Y t T ",
"w oX%.^ `.n.VXA F XXc &XgX! S JXOXeXAXF.].e.<.a g.a <.r.k.<X*X*X*X].j.D.d.z.q.F.e.i.3.I.U.-XJX XiXiXi &XxXO.$.| 5 '.kX: 7 @.hXm ",
"6 IXvXt @ #XZXf XX) %.%.lX%X6 0X6Xp CXd.7.y.e.k r.<.a.h.].6XwXpXAXAXtX*XU.I.u.e.C.2.i.9.5.-X}.N pX0 n vXoXR @...5 ^.9X5 O $XZXV ",
"8 h.O.&.>X] iXG 7 [.Q &XR 7 6XtXtXxXk.I.k.u.<.g.e.a.k.*X6XZXjX[.^.5XDXuX=XD.d.i.s.e.1.i.R.e.6X7X'.pXZ + =.*.+ 5 b kXz @XXXI 7 > ",
"1XX.C KXUX}.#XZXh.G jXjXjXN 4XCX8 ].<Xz.2.<.r.r.u.k.k.4XAX|.e ^.^.c / ZX1XT.I.l.l.k.4.6.u.E.VXi '.xX8 }.ZXxX4X`.kXrXz cXJX}.3 iX",
"K.S g.oXoXu A.H.iXAX|.} ! e / %XpXmXu.i.e.<.r.l e.x.<XAXOXr 7XF c 5XF ^.cX1XW.K.q.s.7.7.z.9.T.jXiX}.g 7 R q #XkXj N.& q R 9 b L.",
"e.mXF m :.6 G {.m.B.7 :.7 7 PX.X4 tX].a.e.,.g.a a g.=XAX_.^._.v.H /.}.c xXiX<XY.q.d.4.7.z.U.wXS g GX3X& *.H 9 ] ] S 7 $.}.1 #XI.",
"g.e.> HXjX@.F < `.: @XU oXu / tXAX>X,.7.<.,.r.<.t.U.eXDXM OX1 &XgX7 ).M 4XAX:XI.i.y.<.1.8.8.i.CXMXB.& J } $.` : S % +.| IXH l i.",
"x.mXH v.sXT C (.A.] x dXn 8 HX3Xp MX-Xx.u.2.j.e.8.k.wXAX/ [.G ).^./ OXx yXCXR.z.8.r.<.8.x.R.rXJ N FX>X> $.M s ] ] g.3 ..T > 5Xl.",
"L.D.b ..@.> V.G.>XzXt W e u 5X5XeXMXu.c.q.5.a.e.u.x.>XxX.Xx yXG p %XX./ SXrXI.z.2.y.6.9.l.6.R.CXtX.Xn v R T .XiXH.G.* t $XF.4 W.",
"nX/.9 DXJX{.:XCXqX).ZXjXGXv o.zXv  XnXY.c.0.e.t.i.x.U.7XjX/ e |.|.B M cXpX*XI.x.9.g.,.2.x.U.eXx 0XtX8 %XjXcX{.(.CX9Xs SXxX/ n (.",
"S h r -.AXA rX/.6 n +.&X~ 0 jXuX;XjXl.l.K.2.2.j.8.x.I.*XiXHX0X_.^.OXHXpX>XU.s.6.p.e.5.d.x.,.=X4X|.pXl w +...t h 8 pXz V.( T `.& ",
"2 MXvXY # A.uX0 ..#.#.@.8X3X6 OX;XG yXf.<.u.6.p.f.i.k.F.*XeXpXJXJXHXzX1XU.j.t.7.g.u.u.8.u.wX].h.tX1 B jXXX+.%.R 4 / VXs 1 sXLXC ",
"q dXsXU 5 F.kX0 $.@.t fXhXX.A PXOX;XiXp.R.l.5.2.y.u.u.s.T.<XwXmXrXrX*XU.I.t.,.j.l.6.2.U.I.<XCX(.HX6X0 oXxXT X.O.3 |.:X] ! L XXP ",
"fXe Y XXF ] >X/.< p g CXY $.G B ;X).^.1X1.K.x.,.p.j.4.i.M.P.U.nX-Xx.k.k.z.l.r.g.b.L.W.1.s.3X3 5Xv v ( Y 4XC.o 4 H kXN.x x v o +X",
"hX, v ( 8 A.{.ZX7X'.ZX7X8 =.~ ~.JX).4XwX*Xt.2.K.0.t.D.e.q.L.i.P.x.u.x.6.8.s.j.2.K.P.w.nX*XpX^.cX4Xc :.G J CXwXOXiX,XV [ ! m I @.",
"^ sX%.) K # f n.,X6Xs D F ! ^ 0 [.eXG ).:X7.*X5.p.2.t.g.S.a.7.L.q.u.l.y.s.a.2.f.,.I.!.P.tX8 MXK c e ~ 8 A.: V.>Xn.z o 3 r -.fX, ",
"# CXDXY X D K h.G.A.(.CXjXXXfX}.F JXeXeXeX>X5.W.6.i.5.6.e.a.j.d.x.u.s.d.q.,.M.5.-X6.D.uX7X3XGX=XF jXO.9XkX:XA.' D M ] % + fX>X3 ",
"C v ^  . XG.[ 0 {.mXcXn n hXjX+.0 ).3X4Xx HX1Xa.d.x.c.x.z.6.5.3.8.5.1.6.q.d.u.R.3.*XiX~.G pXh.v r fXxXB % ).MXz b h n.6X$Xq u h ",
"-X_.e jXUXQ.m.).m.MXc 7 ..E &.=.tX0 JXuXCXG 4XT.R.5.R.8.i.8.8.u.q.q.l.d.x.Y.u.I.U.wXC tXyXJX0 ).jXR U Y F % 9XZ.d b N.ZXxXh F <X",
"E.r.v 8XoX4 u X :XjXv XXQ $.$.JXoX, B / yX{.6XOX1XW.e.I.z.k.q.K.z.l.W.i.W.0.=X:X|..X(.uX).S % ! lX+X| | =.2 '.2X* % = Y Y b D L.",
"z.nX/ e ;.q c (.m.VXF e +X7 eXoXL +X6 / LXjX3Xv CX4X*XwXu.R.7.k.l.K.E.t.*XmX6X5X(.K 7XCX.X# '.E | pX5 H 0 6 0Xm.A.F w oX^.p 1XU.",
"E.b.1 rXFXW X.> :X:XZXN 9 }.DX1 +XU O.& p ].JXVX~.(.7X=XiX6XwX1X*XmX1XyX.X).6Xv CXFXeX# X B W XX# uX=Xy n yXmXJ.y c @.lXMX3 e.j.",
"I.nXM C sXT / _.s H.:XVXpXiXJ.N.' XXQ ^ ).h (.[.JXAX~.}.C.K .Xh.4X^.OXp pXC tXCX7XC Z A XXE XXj f *X,XjXiXG.D.y _.F 8 =.c G >X4.",
"P.x.9 ( | & t  .4 J @XZ.@Xn.A.j n.u ) hXhXr v h.tX^.LXyX0X7X}. X7X).7X;X3XJX.X}.].S / %.vX@.f z j A.n.G.n.H.g.1 ~ Y & *.&XZ g.I.",
"!.%Xv DXHX#.fXSX .gXUXG % ~.o {.,XVXVXjX&.fXjX8 x C =Xg.LX(.kXpX=XJXh.PXK [.h.M c dXvX%.&XtXVXH.H.@ J % 6 JXjX .bXlXW cXjXv ~.a.",
"F.p r ) KX^ ].HXq jXgXP N T K D.,XeX8 R @.KX) +.:.! 0 S V % G C u ].2 C J K B &.XX) vX@.Q 0 3X:X' A ! B I dX8X>  XB.H jXI ( & H ",
"C ! _ / C.Z n x v Z M +XfXR i H.FXh n %.Q XXwXp M ~ gXhXm 5X% A K # |.B O.SXU F p  X X^ +./ g kX] u ! dXqX6 9 A 5 / b u G R ! y ",
"u ^ ) u o.C.>XF.wXg.b ].JX^ & N.VXb n +./ v CXV.h.jXjXXXgX$X .+.Q #.&.jX^ yXuXC.J ZXg.v @.x g VXm.% Y cX*XF S 1Xf.T.g..Xy t ! ! ",
"oXT f 4 nXK.e.p.4.W.D.9 i ~ DX@X@XuX5 h % #X6Xs HXh.T Q oXjXt O._.t hXdXR U S AXz {.6Xo y y tXH.A.FX^ 9 6 D.W.; N.y.p.P.h.2 Y &X",
"DX8Xb iXw.R.*XT.*Xp.P.>X4 DXSX.X@XVXzX^.tXAX[ @X=Xp ..=.t pX^.s s C MXm +.%.4 ).9XA.AXiX`.iXBXN.A.DXCX= |.P.i.D.<X<X*Xu.mX& _.qX",
"Q F S L.-XT.VXMX2X*XK.F.M n  .= f ' J.VX{.Z.A.AX}.x | O.< 5X:X] ' @XCX< O.| b [ AXH.m.J.kXZ.n.= > E x x d.K.D.<X}.3XR.p.; [ & R ",
"fXe 1XI.T.rXx X }.2XM.E.J N lX../ n A.f [ D N.] jX8 f 3 v.7Xj F A n.9Xh.1 n > 0XZ.' l ] 5 ] F M R hXJ B.P.s.rXB.. X >XR.d.y.6 qX",
"JXc k P.F.wXX   F 1XK.E.b ).JXQ X.3 H o B.> [ ' iXkX/ #XAX,X] 9 8 [ #XFX|.o.tXrX' [ > J o b 5 X.E JX].g l.j.nXh.  o >XR.K.S g CX",
"~ > 7XK.S.W.'.M wX*Xe.I.H ,  ., & +.# g m.@Xb > G.Z.rX2X' f # ..X.X f ' 2XrXH.J.5 f G.j f % $.@ < | > B x.u.{.mX).|.R.D.w.V.3 I ",
"fX/.1 1XK.U.<XmXI.s.Y.].1 vXcXX.$.=.R m VXN.l 7 n ] * z VX#Xq &.+.q 5XrXs j ] D 9 < ] cXo...$.{ B fXqX4 ^.x.e.y.E.U.y.; ,Xd %XoX",
"GXO.1 .XL.S.D.D.a x.K.H < ~ DX#.*.UX+.:.LXO.. ( 7 X.> q GXlXR JXZXI vXvX> 7 [ 6 [ X $.LX=.%.UX*.:.cX$.f p e.K.4.d.4.e.s.u < I lX",
"B | ^.> 0Xs.R.L.*Xg.[ < XXY OXn % B # C.|.E -.E }.R | *.T #X# b g 9 iXR -.#.R B E =.L 8Xh.% B.% A /.I *.f c N.R.L.U.k [ o %X+.o ",
"o oXLXF > g  Xu `.# 3 O.} G o 1 0Xl jX3 > `.PX*.X B bXFX% % '.h.J H > 0 GXvXt > $XPXJ % 3 5Xs 9X% > A } O.< # C 3 n 3 > r GX! o ",
"H R XXE cXX.3 ).% 5X$XU J % OXY.Y.L.Y.E.#X> b L O.E O.u F rXz.K.d.L.rX6 h O.| O.| J > #XM.K.P.Y.Y.>X2 h t =.%XO '.7 B qXL t w r ",
"> 9 . %XPX .=.LX .:.GX'.3 5Xw.s.s.F.D.I.9.qX3 &XFXhX> ! K.q.s.D.D.S.w.U.o.r lXSX|.p @X9.K.M.s.M.a.1.9X< '.ZX=.L ZX*.} GX`.. d % "
};
