/* XPM */
static char *result[] = {
/* columns rows colors chars-per-pixel */
"64 64 117 2 ",
"   c #1A0E1E",
".  c #1C121E",
"X  c #1E1322",
"o  c #221624",
"O  c #281726",
"+  c #251925",
"@  c #2A1C27",
"#  c #271B28",
"$  c #2C1E29",
"%  c #301F28",
"&  c #2C2127",
"*  c #2E212A",
"=  c #322427",
"-  c #33242B",
";  c #39272F",
":  c #36292D",
">  c #3B2C2E",
",  c #3F302E",
"<  c #342631",
"1  c #382731",
"2  c #362932",
"3  c #3C2C32",
"4  c #3E2F39",
"5  c #3E3133",
"6  c #3F3139",
"7  c #412F2E",
"8  c #42322F",
"9  c #4A362F",
"0  c #412F31",
"q  c #443432",
"w  c #493633",
"e  c #473934",
"r  c #4C3A34",
"t  c #43343A",
"y  c #493639",
"u  c #46383B",
"i  c #4C3B3A",
"p  c #513E35",
"a  c #523D3A",
"s  c #4F4035",
"d  c #554236",
"f  c #5A4536",
"g  c #5E4937",
"h  c #55423A",
"j  c #5A463A",
"k  c #5D493B",
"l  c #614B37",
"z  c #634D3B",
"x  c #66513D",
"c  c #6B543D",
"v  c #6F583E",
"b  c #72593E",
"n  c #463740",
"m  c #473A40",
"M  c #4C3C42",
"N  c #503F43",
"B  c #583C43",
"V  c #524242",
"C  c #5C4542",
"Z  c #5D4A42",
"A  c #52434A",
"S  c #5B4A48",
"D  c #614642",
"F  c #634D42",
"G  c #684E47",
"H  c #624D49",
"J  c #6A4F4B",
"K  c #665142",
"L  c #6B5542",
"P  c #6F5944",
"I  c #675248",
"U  c #6B554B",
"Y  c #6E5848",
"T  c #715544",
"R  c #745C43",
"E  c #785F44",
"W  c #745D4A",
"Q  c #785F4A",
"!  c #735950",
"~  c #766047",
"^  c #7C6244",
"/  c #776049",
"(  c #7B634B",
")  c #7D6552",
"_  c #826645",
"`  c #856945",
"'  c #81674C",
"]  c #84694C",
"[  c #8A6E4B",
"{  c #8E704D",
"}  c #90724E",
"|  c #806652",
" . c #856B53",
".. c #896E53",
"X. c #876E5B",
"o. c #8A6F5A",
"O. c #8D7154",
"+. c #8D725A",
"@. c #927554",
"#. c #967957",
"$. c #9B7C57",
"%. c #92765A",
"&. c #96795C",
"*. c #9B7D5C",
"=. c #896D60",
"-. c #967761",
";. c #967A61",
":. c #9B7D63",
">. c #9D7F6B",
",. c #9F805D",
"<. c #A1815E",
"1. c #9E8164",
"2. c #9E8268",
"3. c #A38363",
"4. c #A28569",
"5. c #A5896E",
"6. c #A88B6B",
/* pixels */
"x d # * * M 3 t a g c ] @.#.] R b f T p & o - d f x k s q > + X * q Z R  .#.2.&.O. .~ c d 5 : = * = 0 < $ $ % a z W K P l r : c ",
"E x # @ < 0 < 2 3 r r  .+.K k b E E ^ E r + @ e h s s i 3 = = > + * i L ( %.2.;...] P k e q q r 8 - q q = $ # r j f j W t f k b ",
"K 0 = 8 w p a 7 = - $ : 1 = d E _ ^ E R R - o $ : 2 : : 0 w f d , = 5 h K |  .O. .) P k , q d 5 p p q r 8 = O 8 F z k K F R ^ R ",
"= > r g l l d 9 q * * + o : z E E R L z z = = p & X X X O o j R x l > q h I Y W ( ( L d , r , s d j = : 8 8 O - L W W P ( / K : ",
"w d l c c l p 9 r > + $ 3 = r a K p : $ * , 9 R d X + # o o l ( E ` q 2 i i V Z Z x j 5 > r z f g d 8 , f c d = q Q ' ' L 5 o * ",
"f x x c c c R ] ( k 3 t t 2 @ O - X o o @ r z b / * = k Q ( _ G ] O.> 3 6 * q i e q 5 * : r d z x x f c b c l g : : q : + . * t ",
"x c l c [ @.:.Q c ~ k 4 t i i t * $ 5 > = d c E ] i o : w F ( W +.c . t 1 . < t 6 * @ o = q s x > 8 x c : 7 d 9 r > = $ @ - t p ",
"x l b 3.3.] T - * 3 f : r f u t < * x R k d b ' ] h X +   0 W  .@.- . 4 * o 4 t - + + + + = , q = 9 l r + 7 l 8 8 q e u 6 2 3 d ",
"l E 3.| F j 8 + + o : 9 > d > = @ 9 l j r 9 r q W f o O @ F  .*.W X + 3 ; = a w 0 = @ @ + 2 3 5 d x 9 - 9 b b 9 8 8 > 8 q 3 : r ",
"k *.) : * f c 7 @ @ > k w > : r 9 - : - - l v j d : + o 9 ] #.%.> o = t 9 p a p y > z 3 4 n * r k b 8 p ` ` b l d 8 > 8 e 6 6 u ",
"k %.q + * z | F d g E [ k = q z b l = o $ R $.R @ @ W L R ] ..( o ; p j l l x g d z q @ $ < 4 h = : l } ` ` ` ^ b l d f d , * 3 ",
"p K @ o 8 R i - r z x f 3 = k v v ] R f L O.<.] @ o ( *...] @.j % p l R ^ _ E l [ E r + o 2 5 q o 9 [ $.[ @.#.#.} _ b c z d : $ ",
": d = 7 E ^ q = w c r # $ : K R _ ] *.O.| ( +. .- d O.O.' W j 1 p l v ] } @.[ _ ] r g x q 2 $ = w O.%.O.#.,.*.<.*.@.[ ^ T F w O ",
"3 x ' @.@.^ f f ' d f : * 3 F ( O.,.O.W ] ] /  .r h i : $ # % y z b ' +.-.#.} [ f $ r ^ z = o * ' @.%.@.*.3.3.3.<.*.#.[ b ^ a $ ",
"3 Q :.| L ^ b E E R c r # < z ' +.*. .O.#.#.@.+.R r > 8 = # y L Q ' ....@.] ' @.3 O 3 f h $ : $ f [ %.&.4.6.6.3.1.,.;.%. .] C # ",
"@ N S O - v E E ' Q Q W : $ a ( O.#.@.@.,.2.&.@.+.@.' O.w - f L ] .. .@.#.#.( *.p + > p f p p : $ ( %.:.5.5.4.2.;.*.*.%. .( S # ",
"% 2 2 * = k W ( | W j 0 r * , K ) #.%.#.2.4.%.%.+.+.O.Y : * C W ] O.%.*.3.;.O.] ] b x k z c l h t q ( &.2.2.1.1.1.:.:.+.) k V * ",
"< t 5 d & r F k 1 % O $ t + & i J o.&.%.%.%.X.O.O.X.( h * # h W ] +.4.4.:.:.( P ] $.] k R ^ K E z @ * L X.&.+.( X.)  . .K u < - ",
"u t * i - o O * O @ @ 1 8 + o : a J ) ..| | ( ) ) / K h 5 # e P ( +.:.4.&.../ ..*.#.R z R W ] d o o o + 5 h s F k j k e $ - * $ ",
"u 1 $ i 3 ; i O @ @ O 0 K + O + 3 a H ! ) ) ( I Y k e = u 4 & k / | +.+.....K r 3 = : z R L r - + $ - # @ * h z K P x , X o t # ",
"C = & t 8 z D 3 - $ % t Q = + $ $ = y V C j h u u - o O i - o q P ~ / | .. .> * o O o $ = # X * + $ i o r K P ( (  .z * q z j w ",
"h > - t q ( h $ t 3 N n Y : + O - : $ = * - : 5 i > = 3 t o + O j K W +.O.| r K 0 z $ o o + r = # $ z = = L  .] ..@.] g ] *.T k ",
"d q i t 0 W U   $ t - 3 Q = + o $ 3 = > : * : 5 a v r y t $ + 1 t C K Y  .@.h h ] X.: o # + F : @ @ p = X q W ) L ( ] | =.) P i ",
"f d i t : z W y q y C G K $ o = r 8 * : q = $ * 0 x g p p w u 1 6 < : q y F : > (  .k @ + + W p X + * q # + j j : j ( ! y = ( k ",
"p k a : @ d P W ..( W W w O - w r = @ = : 3 w k x R z r p d r : t @ - 3 # # o = P ( ] P j h W W * r k r + 3 x k - h ( h O O b c ",
"p h d 8 # * K W / W L f * 9 d d 8 R r f r $ z R j s v b g z h t ; $ 5 u - < @ - q ( O.@.../ W | W ] F - X 1 h 3 8 ) ^ 0 o q ] R ",
"c k d e * * 5 F | ( K 3 9 E c L w R v v p f P r # : x ^ R v F u : $ M u t 0 3 1 # 2 a L ( ( | | ' ( x = X : : $ o a ' > : ^ [ E ",
"( x f q * * + 3 u i : $ > ]  .R 9 - l z T ( F = + : L { ^ W z e - $ V q t u : + $ + X X * V F W ) W e = : u $ # + o x d E #.Q ' ",
"~ x e $ < # 6 4 $ - $ % $ ! +.) c ( ] / ( ( ` r X > ] O.) ( D i # < 6 3 r u 2 - p q 9 r * n r > - * = q i a 9 = q h ^ ) &.| O.O.",
"h d r : * 4 t = 2 $ @ @ o a :.| Y W a / j k @.^ h R Y K / W G e * 4 2 * i V 5 r z r f r q H z f q j v d g l d 8 e (  .) ) | | F ",
"k x R r : 3 1 6 2 $ # $ # + Z %.( G : r & = +.&.( x K W W Y k 3 < m < + M t @ w l f z f k Z p > : ` ^ R b c x f , * s K L Y s q ",
"k ^ ( x r = 6 t 4 $ : > ; @ o r +. .k 8 k t K  .F K ~ / L k e * * u 2 o 3 $ + + r x K l p p ; o 9 [ _ _ ^ ^ b c j = & : , : = j ",
"i x v x , * u 5 $ q r w > q q @ h ( ~ P P r $ h s q > = = 3 $ + < 2 < + 4 = % O + 8 k q d z @ @ ( &.{ { [ [ _ b k 8 O o X X = w ",
"* - f d & & 6 < = d r x q o * : * k k r q - $ = q f d - : > @ + : * - q q : 8 > * @ 8 5 z ' P L ( ^  .*.#.O.' ^ x t = + r p > : ",
"g d f d - & * * p z f 3 K : $ * * : * + + : r w f z v v p r > + * 2 w w r P T c d - @ + d | ..L L ~ ( O.1.O.( ~ c r = r x t r r ",
"b g d j b r + q z R = o : t + o & & X + * q - : q > 5 j c > 3 = - i r k O. .K f z d - + * z R x E | ( ( 2.*./ ~ K a $ : * X @ r ",
"8 * @ + f x & d x z @ O O = w p : & + + > - 3 p - * * * r > 3 = q p d ^ ' r = $ O , 9 8 # & j x L / | | O.+.W W J a @ r p 9 - 8 ",
"k r - O r s - f c 8 X = f c T v s * X + @ @ > 7 8 3 > 7 w : > > q d .. .b > $ O = 9 b c e X * j z L ( ) / ) U Y D i : z ^ { _ c ",
"[ _ ^ L j - & r r r : p R  ...@.x - + # * : q - q a v E ! f , 2 8 ( X.k z p 7 : s c v x , + $ e k Z P / / Y U L Z 0 j T ` ` [ [ ",
"{ ] _ b e = o 9 d j q j v #...K h > + , > 8 p 9 8 z F W  .c e : w ' z = > z r r e f d # = - - 6 d k K L P I I S N < g ` ` [ } } ",
"*.-.] x s * o : z @ o : p ` ` q & , : - q h j h p d - 3 i z j = : ( d @ * s * = > > x 9 @ > : - q 7 w w h a V i M y k ' O.#.*.$.",
"3.*.O.R d & o + r : - g z b E R e > = = q o = u r z ; - 6 * h q @ x h + , g > f f d 9 g ; = = O O @ @ ; < @ u O < i K | @.1.>.6.",
"3.,. .P p @ = o o - v #.@.E z (  .k o * 3 $ - < $ < - $ u $ 5 r @ t h @ d d j c z l x P l w g p $ ; 0 0 : % : - $ : z ] o.>.>.4.",
"-.&...~ 8 * q q @ f ] 3.L @ % 3 ~ z o + O $ 2 3 * $ $ + 6 3 r w = * 5 c ( f r j k b b ^ x l f p - 0 y a w 0 a t o * k ( ..%.%.3.",
":. .) Y * * > 8 d c z ..f o O o 8 f = * $ * 2 2 3 3 # o t ; ; - $ * *  .) f x s c c ^ ` { c @ @ > p f f g f d 9 = @ h R  .o.| -.",
"+.) ~ r + * s k v x c c L 9 : > > r f c w A - $ t t o o 3 % O @ o $ * h j & x ~ W ] 1.4.Q - @ : r l c l l c z f q - t F  .o.) +.",
") ~ s : # * i l c v b x x [ ` ..@.] P v S A # # 1 1 O % q > 9 0 : 0 * X # 3 u L ( @.2.F O * : r f l r r l x x x r q * i L ( ) X.",
"j 5 * : # & e z x b E v c %.3.#.| ' ~ L V * & + - > 7 w a w y a i r - o 2 6 : 5 R ..a O : > : : 9 7 w x x f d f j h 2 2 3 i H S ",
"# + $ * & # 5 j x v ^ ' ( #.3.#.O.( P K e * * * q d d d h p d a j r > : 6 * * & Z K O t 2 - : - - d ^ ( ) ` P d d h N $ o * t < ",
"= : = * X # 5 h k v | ..O.1.5.1.%.) ~ K 5 - 5 r z l l l f g l g f f i 5 + + * + * = @ $ : 0 > g l c 1 - q K ../ s u 1 O % y t : ",
"y y t 7 & < 4 i Z L | +.+.-.1.%.X.) P i 6 2 5 v b b b b b c z l f f d > X + * r , $ O $ 3 2 3 R #.R @ O @ * K ^ i 2 - 0 0 a w p ",
"l a B a i t * - C Y R )  .) X.| ) c q & 5 3 s v ^ _ _ ^ ` ^ b v T c d > + + * r k k i 4 t t 2 G 2.-.f 8 > r x q : , r a j D c x ",
"c l Z G D u * + 1 C F K W W U Y j : # X @ 3 r c _ _ ` } @.[ ( ( ( ~ x : + X : k c c j r * + $ = I %.' v l l : + w a D D F E E b ",
"E G v K F i t + + : i q q q 5 : # X X & + = x ( ^ ^ [ } <.*.] / ~ P k = + + , ~ ( ( x x q = p q x E L f j z + > l F T v E _ ` _ ",
"R R R L K d u - X 2 t - - * $ & & & # + X : h P ` O.#.O.#.#.R W / x i * # = i k x ] ] z r d x c b b z : q q X q l l E ` [ [ ] ` ",
"_ E R T L C 2 4 u t y a r 9 9 q , = # + + = @ + x R h / 4.%.z ( P d u : q > : - j [ K e e @ z P ^ v z r t = $ z c x T E ] [ ] ' ",
"] ] ( R c Z 6 - h a C f g f p p 9 , = + # - @ + k c + $ u W k L k h 3 3 $ q q f R v r - * + : , v ~ v x e , & ~ ] ' %.+.{ / ^ ( ",
"] ..] L x d 2 : a d d k d p l l c ' ^ , + e e e ~ ^ r + X k L r d 3 $ 2 $ I @.K c c x l 8 # . , c ~ ( e * & + * 0 T r a ( ] v ( ",
"( ( L x x s * r v L z d f Q #.{ ~ F Z z + & , e q L P j h +.] z = # $ o 1 W R k i e R *.~ , . X r v k - X + + * - k ; O = P / k ",
"j z x k L , $ h k l R c ` &.U L k $ $ 0 = + * , # r z / -.-. .Z * 5 r = q f r - : * q O.^ d + + @ k , & + # + @ a ` k - o e [ r ",
"Y s e s k : = s z g f ' ..w @ 9 x 8 + = * - > > d r z K s t r , $ r ' c d r 8 - * * k / K h + @ = : 2 2 o O @ i d z ~ P p E @.R ",
"h , > K k $ 2 r k R p ~ a O @ p ~ ~ w % > , q e R ^ P f : & 5 - * r c v ^  .| Q R ^ ^ h d f : : - 2 < < % @ O > s = x / %.*.2.O.",
"x v > > * + : i j j 9 c w O w v x 5 r r v , : d k F P k - e e : = j c v E '  ...@.O.h x x d h 3 # 2 1 0 : - $ = r r j c W R K j ",
"L z # o * & 6 u d d w z b x E c g - > e e * , d j s L k e d q $ * r z R ] %.O...) ( x ~ L d 0 - + < 4 3 ; : = w h W c c z d : 8 "
};
