/* XPM */
static char *result[] = {
/* columns rows colors chars-per-pixel */
"64 64 253 2 ",
"   c #030202",
".  c #0C0404",
"X  c #0C0906",
"o  c #030509",
"O  c #0B0509",
"+  c #05080C",
"@  c #0C0B0C",
"#  c #150907",
"$  c #130D0D",
"%  c #0E100F",
"&  c #13120E",
"*  c #1A130E",
"=  c #1C1A0D",
"-  c #070F10",
";  c #0E0E11",
":  c #120F11",
">  c #1B0F11",
",  c #151312",
"<  c #1B1513",
"1  c #191815",
"2  c #1C1915",
"3  c #1C1A1A",
"4  c #221614",
"5  c #221B15",
"6  c #2B1A13",
"7  c #2A1C15",
"8  c #241D1A",
"9  c #2A1E1A",
"0  c #1F211E",
"q  c #2D290E",
"w  c #2C2215",
"e  c #25211C",
"r  c #2B2518",
"t  c #2C221C",
"y  c #342614",
"u  c #32251D",
"i  c #3A261D",
"p  c #34291E",
"a  c #3A2B1E",
"s  c #3D3715",
"d  c #3B331B",
"f  c #281F20",
"g  c #292522",
"h  c #2D2421",
"j  c #322622",
"k  c #392623",
"l  c #352923",
"z  c #3B2C24",
"x  c #362B29",
"c  c #3C2E2A",
"v  c #3E3125",
"b  c #35312D",
"n  c #3E312A",
"m  c #3E3433",
"M  c #432C1D",
"N  c #42341D",
"B  c #443B1C",
"V  c #4A391C",
"C  c #53381E",
"Z  c #412E25",
"A  c #412F29",
"S  c #433225",
"D  c #4B3525",
"F  c #453924",
"G  c #4B3B25",
"H  c #44342A",
"J  c #4A362A",
"K  c #46392B",
"L  c #4C3A2C",
"P  c #573C2B",
"I  c #523C2C",
"U  c #463832",
"Y  c #4D3C31",
"T  c #533E32",
"R  c #5A3F31",
"E  c #4A4517",
"W  c #6A591F",
"Q  c #4C4224",
"!  c #584824",
"~  c #55412B",
"^  c #5B422D",
"/  c #5C4B2A",
"(  c #554233",
")  c #514733",
"_  c #5B4433",
"`  c #5E4833",
"'  c #55453A",
"]  c #5B463A",
"[  c #5D4A3C",
"{  c #63452E",
"}  c #674B2A",
"|  c #644C2E",
" . c #645421",
".. c #63532B",
"X. c #6A572C",
"o. c #73562C",
"O. c #624532",
"+. c #644A34",
"@. c #6B4C34",
"#. c #644C3B",
"$. c #6A4D3B",
"%. c #744E36",
"&. c #665337",
"*. c #6C5334",
"=. c #6C523D",
"-. c #745234",
";. c #785835",
":. c #74553B",
">. c #7A553C",
",. c #755A3A",
"<. c #7B5B3C",
"1. c #7A622F",
"2. c #786139",
"3. c #584B43",
"4. c #674E41",
"5. c #6D5342",
"6. c #695647",
"7. c #725542",
"8. c #755944",
"9. c #755A47",
"0. c #7B5C43",
"q. c #7B5D4B",
"w. c #6A5B53",
"e. c #7B6449",
"r. c #796555",
"t. c #746950",
"y. c #7B746A",
"u. c #835D3D",
"i. c #895E3D",
"p. c #88663B",
"a. c #946A3A",
"s. c #91723C",
"d. c #A16A3E",
"f. c #825D42",
"g. c #825E49",
"h. c #836244",
"j. c #8B6444",
"k. c #8D6B43",
"l. c #83634C",
"z. c #8C654B",
"x. c #866C49",
"c. c #8D6A4C",
"v. c #936A44",
"b. c #986946",
"n. c #936B4A",
"m. c #996D4B",
"M. c #897348",
"N. c #987646",
"B. c #94724C",
"V. c #9C734D",
"C. c #866953",
"Z. c #8C6B54",
"A. c #926D52",
"S. c #926D5A",
"D. c #8B7559",
"F. c #957154",
"G. c #9C7453",
"H. c #9C755C",
"J. c #977859",
"K. c #AC7444",
"L. c #A3734C",
"P. c #A8784B",
"I. c #A47553",
"U. c #A47A54",
"Y. c #AC7C54",
"T. c #A57C5C",
"R. c #AA7D59",
"E. c #B37D54",
"W. c #897668",
"Q. c #987B67",
"!. c #937D74",
"~. c #A37C62",
"^. c #A97F64",
"/. c #968258",
"(. c #B0844D",
"). c #AE8E54",
"_. c #A4825D",
"`. c #AC825C",
"'. c #B48255",
"]. c #BB8454",
"[. c #B4855C",
"{. c #BA855B",
"}. c #B78A59",
"|. c #BB8A5C",
" X c #B5935D",
".X c #99846C",
"XX c #938577",
"oX c #A58463",
"OX c #AB8363",
"+X c #AA8869",
"@X c #B38A64",
"#X c #BB8C64",
"$X c #B68A68",
"%X c #A6936C",
"&X c #B79268",
"*X c #A78E79",
"=X c #B88E73",
"-X c #AC9476",
";X c #B79675",
":X c #BCA470",
">X c #CC864E",
",X c #C68B59",
"<X c #C48C5A",
"1X c #CA915D",
"2X c #D3955D",
"3X c #C28D63",
"4X c #C08E69",
"5X c #C89567",
"6X c #CE9B6B",
"7X c #D59B63",
"8X c #D29B6C",
"9X c #C59976",
"0X c #CC9C74",
"qX c #D39C73",
"wX c #CBA66B",
"eX c #D8A46B",
"rX c #C8A379",
"tX c #D5A474",
"yX c #DCA574",
"uX c #D8A77B",
"iX c #DDB178",
"pX c #E4A86A",
"aX c #E4AC77",
"sX c #E8B377",
"dX c #989189",
"fX c #A79888",
"gX c #B69A85",
"hX c #A79D93",
"jX c #B7A387",
"kX c #B5A496",
"lX c #BAAFA3",
"zX c #C19682",
"xX c #C4A789",
"cX c #D6A985",
"vX c #D9B289",
"bX c #C8AB96",
"nX c #CCB99B",
"mX c #D6BA9A",
"MX c #E1AB87",
"NX c #E4B483",
"BX c #E8B887",
"VX c #EDBC8A",
"CX c #E6BC99",
"ZX c #CFB9A8",
"AX c #F6C68B",
"SX c #EED997",
"DX c #F8D196",
"FX c #D2C5B8",
"GX c #EDD0AF",
"HX c #FAE5AE",
"JX c #F0DBC5",
"KX c #EADFD0",
"LX c #FFFFFA",
/* pixels */
"N I G S z z z z z J ~ j p z p l p v v K Q L F K J H H S z A S K K K K Y L n H v v K K n S u k z H J Y L Y L J H H Z H Y J Y Y l ",
"I z Z S S p u e e 5.L K K t 5 u p v F F L ~ L L v l l t u u k t t u S L _ ~ G L n v h j l z H Z L ( I I I L G L J J S z 9 u K L ",
"S i u 5 t 2 j e K 7.2 2 , 5 8 $ * = 1 * , , 2 8 8 9 e t A 0.5.I 5 , < * 9 7 t u t 8 9 j l n K ( 5.( Z J H S J Z u r z T ( t m Y ",
"z p 5 < v j 2 e ( ( , & $ 4 w 5 * & = 2 < 1 2 9 l u K z %.3XA.0.L 5 2 * 5 5 8 5 1 < h t K T g.m.j.R I ( T R L A k u H $.z < H J ",
"y r < , 9 u 2 p G v o @ < D g.G.7.L 9 4 e t v z S +.:.{ Y.[.L H R u < < 9 e 9 3 1 2 i z L p.].Y.b.@.7.>.:.+.T z t S :.z.t & S J ",
"w t 3 8 L z 8 G ..} F p S G.[.n.I.g.$.$ w S V.7X[.p.o...Y.P 4 r 8 k 8 4 9 8 e 8 < < ( L _ '.1X,Xj.:.n.f.0.$.T J I 0.z.S & < z K ",
"u 5 5 8 l S d =.L I <.f.f.j. .` $.$.S.L r >.|.wX|.u.W W o.7 < 7 8 1 t < 1 8 3 3 8 ] q.+.:.}.eX2Xn.u.].I.b.z.0.f.0.T L , $ 1 z H ",
"k K T T ( F E l.t p I { v.[.h.I Z S Q.4.y <.D 7 r P W a.:.F , * 1 u +.R < 3 8 , H g.T.OXf.[.sX7X,XL.8XuXqX4XR.f.$.=.#.x 1 2 l c ",
"H K e z v = ! p.I I k.L.I.yXP.G.D $ e l G O.t 4 < 5 { p.4 i -.S ^ ].K.<X-.3 9 3 v ( <.#X<Xb.vXtX3X'.DXDXrXL.B.n.R.T.OXZ.t 3 j H ",
"K 9 % , + 1  .p.>.*.}.wXI.#Xa.u.{ 4 5 p I z t 2 & 7 ,.D # z I.I.B.L.v.;./ e ; , e +.I G.VXI.G.5XR._.;X`. XiX'.b.,.| &.G 2 e x n ",
"u 1 , 3 + p +.;.b.|.wXwX).9Xs.b.f.z ; t J u 7 1 @ ^ ;.2.k.$X5XrX~.S S 2 8 1 % , 1 Q G +.wXVXu.u.,.} u.1XAXwXp.Q 5 r Q r , 0 l v ",
"t , @ & o v B.3XVX X@X X . XVX3XR.n.8.* Z p < , y `.cXrX X&Xb.E.k.G S t I l o @ <.+.j 9 a (.} V N N &XAX<XV.~ X @ X p p 1 e g v ",
"j 3 , @ 1 I G.G.%X&Xk.tX#X! uXHXcXxXuX=X~ B @.u.].iXmXM.u.C @.@.%.%.L 5 Z 9 & /.AX{.R < # #  .o.M y } u.P 5 $ @ &   e I e 1 e l ",
"x k t t O.#.! -.V.x.p.b.HXjXM JXlX6.m +XOXG P.yXtX*.M.Q :.c.T.BXU.4X%.L , 3 e tXDXpXi.M * 6 (.sXa.i.M y , # $ #   * +.h.~ 0 1 p ",
"9 x l :.l... .l.2.N.$Xm.&XLX!.U hX  @ , ( l.n.c.=.o.,.r :.uXvXHXcXCXQ.7.e 3 , F.NX<XP.} V a.HXSX3XK.i.M < * X < D I.v.x.z K p +.",
"8 9 #.T.=XF.G +./ e.i.uXOXXXlXX @ , < 5 p $.@.S ^ D z _ c.~.mXLXbXGXxX8.h 3 % K e.v.R.N.k.@X%XSXaX].K.} ;.2.x.[.sX5Xb.V.I ,.l t ",
"8 8 5.#XMX$X9 k Q J R.0XGXb & , % , , 2 j S ,.a ^ z p R.CXP kXLXlXXXZX] j g 1 , i I f.p.e.g o ) [.b.X.`.N.M.eXyXtXwX5X2XP.+.3 8 ",
"9 4 U 7.cXQ.9 o K S z.vX*X3.@ 1 2 2 , % v j.<.~ z K z G.HXW.y.LXy.f dX, 3 3 0 : 1 2 z 0.Q , e o R <.M.rX! G.5XU.2.,.[.}.F e , e ",
"e , 9 Y Q.7.H o 1 v `.zX' @ 3 w r 5 2 1 5 &.~ t < z #.8.FXhXj KXg @ 8 9 c Y &.e.D.) & +.h.p ` 8 B /.rXN./ | F r ! &.#.v 0 2 3 j ",
"h 1 , c 5.c 8 @ , & 6.CXK , t v S r t 8 , 1 1 % + 3 5.:.Q.w.  8 4 c _ f.n.oX`.%XjX( , K T.@.{ F s.wX5XB.&.&.e - g v t e 1 2 g p ",
"t 8 1 & < 1 @ , @ 1 #.+XC.S M ^ ^ G t 2 2 : j z 3 , U ] 5 & 4 S $.j.V.T._.%X-XnX.Xd 0 v c.n.,.'.aXiX:XX.0.` e 0 0 1 0 0 1 e v p ",
"2 t 8 + $ : @ ( L k H g.9Xl.Z @.:.O.p 8 , S V.` , 1 3 < , Z >.p.m.B._.oX;X-X-XnX&.! e z ` ;._.s.:XM.X./ K K g 3 0 e e e 0 2 l l ",
"w 9 #.z 5 ) 5 7.5.L T Z l.D.D f.-.G i 5 i h.c.H , 3 1 8 I u.b.B.J.oX_.+XjX&XmXjX/ / p 8.R <.>.>.2.2...~ p l e 1 e n p l t e p l ",
"z z J ~.$.7.] =.T ( #.+.( ( P @.S u < 4 ,.z 9 , , t z _ f.j.m.G.`.oX%X;XjX.XXXt.e./ p ~.q.:.#.z.` 8.x t t Y t 8 j j p x e t v H ",
"r Y j 5.J.#.#.L I $.@.<.z.0.D 9 4 6 u f.@.% , 1 t H %.>.u.c.v.v._.%X+Xr.Y m f x t.X.s q.GXQ.#.5.c 4.[ j Y [ l j g g t h e e z K ",
"k j 9 J F.] n L q.&.k.0XuX#X>.O.6 %.E.E._ , 3 h Y =.>.,.h.j.B.-XD.` A j x m x j K s.B x KX;X=X~.4.+X6.U T 9 v L h e t 8 8 e z K ",
"k x c 9 R ( T A.h.&.6X6X`.G z U.f.>.%.$.t < t D @.>.<.<.h.F.Z.3.x j j x j k k A x t.2.U FXW.ZXbXq.ZX4.l 9 x -.n.( j h t 8 8 j S ",
"z H T c c ] 0.T.&.A.6Xc.N   @ z.f.$.J u @ 8 H +.-.-.>.h.Z.[ x x c x x x j x j x g x K c T XXkXlX' ZXl 3 h c.h.( U g x x g e p j ",
"A A U R 4.4.^.T.@.I.tX,.& X * R.I.D r < 1 z ^ @.%.-.<.9.c u c H x c c x j f f J z j A T < Y 3.w.# f > 3 _ `.] j u 8 e j l t b l ",
"A L A L 7.l.zX^.+.H.9Xv $ $ 9 9XqX:.5 : u T +.@.@.0.6.k j H k j x A x f 8 x h Y L 9 7.I 9 Z Z O > > > f 5._ z z l < g h j p v n ",
"Z O.7.4.T 7.S.^.>.5.#.5 $ # 9.BXCXg., 1 H O.@.%.:.5.z z H U c x f f 9 j k h 4 : 4 > I a a ;X=X$.k 5 f U c 1 g j 8 @ z 9 8 8 l z ",
"i +.O.5.S.6.4.#.{ S w > < D cXMX9XP , t _ @.+.@.e.Y S H J K H f f f j Y f # > > # . . * X.9X5Xi.>.G z U 8 , 3 8 + 1 _ 9 1 , u z ",
"z S S 3 l.l.z 5.$.w r 7 $.0XtX@X@XK : z { +.+.e.T H L J U j 8 8 f 9 t J < 9 k 4 > # . w N.aX&.o j F Q K 1 5 1 3 O ' r.9 4 , f j ",
"J r S , 3 8 l cXVXl.I l.H.@Xh.:.8.t < I { | :.5.z H J S h , 3 9 8 4 p S u r z u 9 6 > o.8X9X4 & , @ ~ I 9 l 8 , ; C.q.j 3 t , h ",
"L t G T @   G q.cX9X2.G.,.L.,.r l 4 5 P @.| *.Y H J U x , 1 9 5 4 4 z _ 5.7.%.>.R R z.1.a.$., d F r ` +.7 T j 3 h H.g.h j Y 1 h ",
"] l f.R._ J K   k H.*.n.} Y.G o , @ 9 R ^ @.5.I L L H , ; < x 9 > - j A.cXCXuX8X;X0XVX0Xc.n.I Q d Q 2.X.a ] c : U ^.4.j q.[ 3 g ",
"' v L h.=.^ L 8 o H h._.c.k.L @ & , z T R P #.I T Y 9 , , , K Y , + f n.MX^.@.! ..&.S..X+X6XuXoX2.=.M. .l [ 9 , c q.H 9.@XL k 3 ",
"[ H e p K p h z u e H.9XN.-.S 2 , 3 z I P 6.=.L R Z 1 5 v p #.l.c + > $.+.N B Q ~ / z G 8.h./.x.x.2.! B J.q.5 f L R S L Y S H 3 ",
"' K e 1 j e @ n K z C.M.N.B $.H , 5 a P S 6.9.I R u 3 I M.M.h.2.7.9 ; , q B v Q Q 2 $ , Y [ | *...V q.t OXuXU g K I z A L ( h t ",
"' K r e 1 % @ 9 K G e.e.:.D l.5., 9 k J S ] _ _ ( h u  .s.N.s.o.` n 8 1 , * 3 e t , , @ $ j H ] =.@.;XQ.h 4.Y L I T gXw.u x j l ",
"' K p j e & % , z i ( _ =.l.Z.Z , 5 u D A [ $.O.~ e Z W W o.*.o.P j t 9 d L L n b 9 1 , > k x R Q.+X=XJXc j #.L.%.A.cX] k h h l ",
") K e e 0 2 < % H k C.=XgXxXL @ < 5 u A c [ +.{ ^ e A F / F l.` #.Y 1 K fX-XjXxX/.B = & : $ & t C.mXu fXH c.@XyX[.#.$._ #.h h A ",
"n n e e 2 , @ @ , J 7.CX-X*X: , , 4 u A z ' $.O.{ 8 J 5.+Xe.bX&XOXr.< z *Xr.w.jXD.p , : ; @ $ , j r.5 #.` 4XE.NXNX;.>.P.z.c l H ",
"n x 3 1 & 2 9 t k c k W.r.k , , > > 4 p Z L 5.R +.j e I.vXbXFXyX+XK : l S 9 u p p t 3 @ : $ 4 4 dXy.w ;X#X|.@XAXeXb.].K.v.I x U ",
"x g 1 1 S ` f.b.b.i.v.>.S $ O @ : $ > u Z i ( *.@.I , #.Q.JXW.GXW.8 8 t I l z j h j 3 ; : : 5 7 dXFX@.9X#XI.uXAXi.^ p.v.:.P c H ",
"j 2 9 H :.m.E.,X1X,X,X7X{.j.S & o O $ < l Z z 5.:.-.j & & hXU FXw.!.j 5 I l j t h j 0 , : @ t k W.CXg.G.U.uXDXiXv.{.aX3Xf.:.c z ",
"t t _ %.b.E.5X>X1XeXpXpXeX7XL.I u . O > 9 A u H e.e.:.9 @ 8 8 3.x S.u 9 P k z u t f 1 , : : k H [ 9X_ #.OXNXVXsXBXsXeX3Xm.:.z z ",
"l K >.z.L.E.E.L.|.8X0XqXaXpXb.R.z.I : $ 4 j Z i I D.Q.C.H $ , 4 _ J 8 4 ( z z k k 9 8 ; ; : k L L l.#.F.#XNXaXAXVX8X].`.c.:.z z ",
"v T :.c.n.L.v.c.9X,XNXvX6XNXV.<XY.m.L O > < u z i ( Q.%X.X@.y , t 8 & 1 I z j k x h 0 : , : P -.I _ 9.G.{.8X5XMX8XK.L.c.=.` z j ",
"n L ^ +.f.h.,.$X<XpX2X(._.vXm.b.I :.@.O $ # * u S i H r..X+X_.9.G z p t J z t l x j 3 , , < T P.v.:.[.}.1X,X5XpX].m.n.,.( B r u ",
"k A z S M G V.E.2X Xo.C u.$X| I   e =.# $ $ * 4 9 z A z J 4.9.Q.-X;X*X+XC.x j c k j f < ; k +.>.Y.V.B.1X5X,XqXqXE.j.:.X.Q L v h ",
"S u r 7 w >.{.5Xv.y y ! -.} | 6   & #.z   $ = = 5 9 u k z i u Z ( 3.[ ' T k j j j j f 8 , A -.g.<.Y.L.{.,X6XcX6X].O...V G 5.L g ",
"J u 7 9 Z <.<.V # .   * -.E.aX_   , p c.4 X & = 5 4 < < 4 u u t j h 9 t 9 u u t u j 9 3 , z $.aXV.j.'.].P.'.3XE.-.G p T 0.( k 9 ",
"P z K j G :.4   . . .   i K.qX9X* & 2 #Xc.X q q B +.@.@.I M k 9 5 9 9 u t 9 9 9 f 9 h < $ x r ~.BXI.f.j.v.b.u.! Q G ` `.G.#.8 4 ",
"O.L T u I @.< # . # #   4 a.v.9.=.` c.4X0.$ w s  .L.].3XL.b.j.f.I L H A L z k j c [ t 9 & z t 5 9X$X! } +.^ ` m.[.F.=.:.k 4 < < ",
"( c z u I g.t 5 4 # # . Z 0.$.  ( g.k.0.i . # N a.>X2XE.#XqXE.@Xh.B.C.=./ &.S ] 4.R H 8 , 9 L r w D } } i N @XMXMX0.* $ $ : < > ",
"` p u Z $.R.#.= = 4 5 ( &X0.$.< u P J 4 X # 4 { d.E.b.{.5XN.-.n.M.....2.p.B $.4.l.H x f < , , H V D K.E.i.+.I.A.M # @ * & , 4 u ",
"P z 4 u _ &XuXQ.-XmX;X@X#Xj.:.I a 9.5.4 O 4 Z o.b.c.! +.+.! ,.<.p.! W E *.L q.9XC.7.9 8 4 3 O @ R -.BXsX,XA.y # X & & & 5 u U j ",
"I D t < L 0XVXAXBXcXZ.P R.5XI.l.$.H.I.Z O p -.b.:.V s w S I _ a C ~ V :.9.=X7.0X=XZ 8 1 , ' z   u O.-XMXK.j.z.( p u 9 A R L u < ",
"G I H L _ 0.A.I.f.*.` O.Z.#X&X@XOX~.b.H o 5 D ^ B q # @ 1 8 J J p ^ C.l.~.l.9X6.S.< : , @ Z.S.O 4 Z # u @.f.T.z.7.I J c A x 4 > ",
"D L k T ( [ z L z z K S ~ c.@Xe.Z.6.O.l.& @ w = = , O + @ O @ x l.T 5.( k x 9.t , ,   K S.7.H.8 $ J u O 7 g.-.B d z 5 3 4 : 4 9 ",
"D I 5 t v v w , X 9 Z z u ( [.^ J Q.l.=X5   X & X X , 3 8 * @ o 8 c 1 2 O < < 8 , o 3 4.C.4.H > @ z #.i #.q.~ d B 5 : < > g j t ",
"D ( $._ D i u e , % * 7 v v _ 9.] ^.+X5.5 5 j j p p H G J S z z j k z z z j v z t 9 q.9.x k < 8 > u z L | R B y r 5 t h k H j H ",
"I J D Z a y u t 5 < $ @ j p l C.S.l.g.r l Z S S z S H K H H J J J D Z S H H K n z z A J g 9 9 h 4 7.#.u L H t t 5 e l j l z S K "
};
