/* XPM */
static char *_ae30c9afbcb4fb0c66feb437d7e609edbODA2o6dioESTsB[] = {
/* columns rows colors chars-per-pixel */
"64 64 162 2 ",
"   c #1F222B",
".  c #1F2332",
"X  c #22262E",
"o  c #24282F",
"O  c #2A2A2A",
"+  c #222632",
"@  c #252933",
"#  c #292D36",
"$  c #22263A",
"%  c #262B3B",
"&  c #2A2E3B",
"*  c #2C313D",
"=  c #313136",
"-  c #31313E",
";  c #272C41",
":  c #2A2E43",
">  c #2B2F48",
",  c #2D3343",
"<  c #2E334A",
"1  c #313544",
"2  c #393646",
"3  c #323945",
"4  c #32364B",
"5  c #343B4C",
"6  c #3A3C4D",
"7  c #2F3450",
"8  c #313750",
"9  c #3A3751",
"0  c #363C52",
"q  c #393E52",
"w  c #373D58",
"e  c #393F5A",
"r  c #423E52",
"t  c #433F5F",
"y  c #3A414E",
"u  c #3B4254",
"i  c #3D445B",
"p  c #3F485A",
"a  c #3E4561",
"s  c #424255",
"d  c #444953",
"f  c #494C54",
"g  c #42465A",
"h  c #494659",
"j  c #424A5C",
"k  c #4A4C5D",
"l  c #48515F",
"z  c #51565E",
"x  c #404662",
"c  c #494665",
"v  c #454D62",
"b  c #4B4E62",
"n  c #454C6A",
"m  c #484E6B",
"M  c #514E63",
"N  c #475062",
"B  c #4A5265",
"V  c #4E5866",
"C  c #4D556A",
"Z  c #4F596C",
"A  c #515466",
"S  c #555A66",
"D  c #585C67",
"F  c #52566A",
"G  c #59566C",
"H  c #525A6E",
"J  c #585C6F",
"K  c #4C5473",
"L  c #4F5871",
"P  c #4F5878",
"I  c #545D72",
"U  c #5A5D72",
"Y  c #535C7B",
"T  c #605C72",
"R  c #5E616D",
"E  c #566175",
"W  c #5A6275",
"Q  c #576379",
"!  c #5B657A",
"~  c #5E697E",
"^  c #626474",
"/  c #646A75",
"(  c #61667C",
")  c #69667C",
"_  c #62697D",
"`  c #696D7D",
"'  c #6A717F",
"]  c #555E81",
"[  c #566081",
"{  c #5A6485",
"}  c #5F6A81",
"|  c #5C668A",
" . c #5E688C",
".. c #636D83",
"X. c #6B6D83",
"o. c #626E8C",
"O. c #657086",
"+. c #6B7284",
"@. c #667189",
"#. c #6B758B",
"$. c #6E798F",
"%. c #717685",
"&. c #74748C",
"*. c #71798D",
"=. c #737A8D",
"-. c #737B8E",
";. c #6B7792",
":. c #6C7891",
">. c #6F7A91",
",. c #6E7A92",
"<. c #717991",
"1. c #717B93",
"2. c #757E92",
"3. c #767E93",
"4. c #737D94",
"5. c #737D95",
"6. c #717E96",
"7. c #747D96",
"8. c #767F98",
"9. c #778093",
"0. c #758096",
"q. c #788195",
"w. c #798297",
"e. c #75809A",
"r. c #76829A",
"t. c #76829C",
"y. c #79829B",
"u. c #79849B",
"i. c #79839D",
"p. c #79849C",
"a. c #7B849C",
"s. c #7B859D",
"d. c #7C879D",
"f. c #7C899D",
"g. c #7E889F",
"h. c #7786A0",
"j. c #7A85A0",
"k. c #7D87A0",
"l. c #7C88A2",
"z. c #7E89A2",
"x. c #808695",
"c. c #838898",
"v. c #858B9A",
"b. c #848B9C",
"n. c #888E9D",
"m. c #8087A1",
"M. c #808AA3",
"N. c #828CA4",
"B. c #828DA5",
"V. c #848FA7",
"C. c #858FA8",
"Z. c #888FA9",
"A. c #8C93A3",
"S. c #8690AA",
"D. c #8691AA",
"F. c #8A93AC",
"G. c #9196A7",
"H. c #949AA9",
"J. c #8C96B0",
"K. c #8E99B2",
"L. c #9097B1",
"P. c #929CB5",
/* pixels */
"v.z.g.d.s.u.y.5.5.1.&.#.#.X....._ H B H q * ' -.9.9.9.w.w.w.9.2.-.-.-.+.+._ _ ! W W - 6 B B Z Z L L I Z Z C p u 0.z.S.S.V.V.V.z.",
"c.j.s.y.e.e.5.1.-.$.#.#.......~ Q I H Z 3 k #.%.$.-.-.-.2.-.-.-.+.+..._ _ _ / W W W y * j l v N B B B B N N u p l.S.z.z.z.z.z.z.",
"x.i.y.8.5.5.1.>.$.#.+.....~ W I I I H N 5 R _ W ! +.+.#.+.+.+.+...` _ _ ^ ! ! R E U g + 0 p p p p p p N p i & V z.t.t.l.s.f.f.f.",
"%.e.5.1.>.$.#.O.....} ~ ! ! E I I H C j y ~ ~ H J _ _ +.O._ _ _ _ _ ! ^ ! W W U J F k @ . < y u u 5 5 < , . @ ! e.t.0.s.s.u.s.$.",
"+.$.#.#.o.......} } ! ! Z F I I I Z C q k ! ^ ! _ _ / ~ _ ( / ( ! ^ ! W W W J D D F d @ . . . . . ; . . . & # ~ ;.0.e.5.5.5.,.#.",
"+.@.@.@.O.....} ~ ~ Q ! B v I I H C v , B R Q W W W ^ ! W ! W ! ! W R I J J H J A B 2 + # @ % . @ . @   @ @   N ;.#.;.;.#.#.;.#.",
"+.O.O.......~ ~ ~ Q ! W I H I H C C u * F A J U W W W W W W W W J W J J J J F A B k & . @ @ @ & * & , : , , @ * } @.;.#.;.#.@.@.",
"+.O.......~ ~ ~ ~ Q ! Y I I H H C N * - F C F J D J J W J R J J J D J S F F B k l y o & , 3 < 4 5 u u u u u y . v @...@.#.@.@.@.",
"` ....} ..~ ~ ~ ! W E I I H Z C C q . 1 B F A F J J G J F J F G J J F F B l k k k & & 5 4 5 5 y u u u u u p p 3 # Q ....@.@.@...",
"' } ~ ~ ~ Q Q Q ! I I I H Z Z v u # X * u h B k B J J J J J J J F F B k k k k h 2 @ , 4 5 5 y u u p p p p N a p # u { } } ....} ",
"` ~ ~ ~ Q Q Q E I I I L Z m i < : + + X * q s k l b D U F k A b k k k k h s 9 2 # # 5 5 y u i p j N N N C V V V p & C Q ~ ~ ..} ",
"_ Q Q ! W ! E I I I C B i 4 > ; @ @ , , @ & 5 9 s k k l k k k h h s s r 9 6 4 , + , 0 y p p j k B B C C Z C Z V L 5 < C Q ~ } ~ ",
"/ Q E E E I I I I v 0 < > > ; # * 5 u u u , @ 1 6 9 s s s s q 6 6 5 4 4 1 - # @ # 5 u u j v N B C C Z I I I E E E Z * i K Q E ~ ",
"/ E E E E Y I B i 8 < > > ; % 1 u i j N B C g * % 1 5 5 4 4 4 1 1 & # @ @ @ @ o & y i j N B Z H I E E Q ! ~ ~ ! ~ ~ i : a C E Q ",
"W ..~ ! I v w < 7 < < > % # 5 u g j B H I U U H 6 # # & & # @ # % , 1 4 5 5 1 @ , p j N B H C H ~ ~ _ O.O.O...O...~ ~ 3 7 a C I ",
"D Q E p < < 8 8 < > < @ * q u j B C L W _ ......_ b & X X @ , 4 5 q q u q u 5 # y p N C H E E ! _ O.O.#.#.#.#.#.#.@.O.I % u i C ",
"D I v < ; : < < < : @ # 5 u j N Z I E ! #.#.$.#.#._ v , + , 5 5 u u u g q p u @ u N V H W ~ ~ O.O.#.$.$.9.;.0.;.9.$.@.O.u * i i ",
"u C a > : > < > # @ # 4 u p N C E Q ~ O.#.0.y.9.9...v 0 @ , q u p h v v v N y % u C H E ! ~ O.@.$.1.0.0.s.t.u.u.e.0.0.@.} * < 7 ",
"5 8 0 < < < ; + X @ < p i j C I Q _ O.#.1.1.s.z.z.@.n u & 5 u p j v v B C C 5 # i B H ! ~ O.#.$.9.e.u.f.z.z.l.l.u.f.0.;.@.p . 8 ",
"2 < < < % + @ 5 * + < N i p B E ~ O.$.1.8.s.i.u.h.} C q * u u j v C Z Z I B 3 # q j l H ~ #.;.0.1.w.g.B.z.F.z.F.l.l.e.@.Y K * * ",
"1 : % + 1 B _ #.J @ # y i N C L Q } o.;.0.t.e.>.#.} K 5 * i j N C F I I C p * @ < 0 v C L Q @.0.9.z.S.S.F.F.F.l.t.0.o.P K K p . ",
"O + 6 ~ e.V.V.d.1.u . 4 u p C I Q O.@.0.e.e.e.e.;.[ K < , i p v B B C v a 0 @ @ @ , w p Z E ~ O.>.s.l.S.D.z.h.e.@.{ Y Y Z K u @ ",
"f O.C.J.F.N.d.8.5.~ & % < w a v K Y { o.;.;.o.| Y K K , & q y u i p g i y @ . % % % , u a C L ~ #.>.0.z.t.0.@. .[ P ] P Y N . + ",
"A.P.F.C.N.m.s.5.>.#.u . # , 5 u a a P ] |  .| ] K v 5 @ % < < 0 w 0 0 4 @ . & , 5 5 , % y a n K Q  .;.t.h. .| | { P Q [ i   u #.",
"G.F.S.N.M.i.5.1.#.X.I # + @ @ @ * * y y u i u # @ @ + + + # * * , & # + . , 3 0 u u u , + , p K K P [ O.;.|  . . .| Y 3 3 } K.K.",
"n.s.N.d.y.7.5.$.X...! 5 X @ @ @ # @ +   + + + @ # # # # % @ . + o @ + . * 4 y p u u 8 < @     3 a P P P { { | @.| a * Z l.K.K.z.",
"v.e.s.y.2.>.$.o...! I p @ # , , , < y < 5 5 5 4 5 < , , , % % @ + + @ @ , 0 u u u w 4 + * p V + . 3 a P ] ] Q a ,   ~ l.z.z.z.z.",
"x.s.e.5.$.....~ Q E H j # 1 5 5 y y y y q 6 q 0 5 5 5 4 , , : % $ . + + , 5 4 8 5 * @ j O.t.t.;.y   @ % 0 < @ + . y e.f.l.l.z.z.",
"-.1.$.#.O...} ! E I Z u & 5 5 u y u u u p u u u u q q 5 5 , , , & & . @ % , < & + u O.e.t.0.z.p.$.3 . @ * u N E N y ;.0.e.0.0.0.",
"%.#.@.....~ ~ ! I I B 5 * y u u i i p i p N v j j p i u u q 5 4 , : . @ @ @ . 3 E ;.0.w.,.9.D.S.t.E X * p C E O.~ u ;.0.0.#.;.@.",
"+.O.O...} ~ Q I I I v 1 , u j v p C N u v F C C C B k k j u u 5 3 : @ . o # l @.,.0.w.s.f.z.z.F.z.0.3 3 p N ~ 0.#.u O.;.~ Q ;.@.",
"' O.} ~ ~ W E I H B j 1 5 j v B Z Z Z C H I I J H F Z B v j g u y , .   3 Q #.;.,.e.t.l.z.V.S.S.F.l.Z & N I O.f.0.u } #.} } @.O.",
"_ } ~ ! E E I L Z N u & q j v F I Y U U U U U U U U I H C B v u , .   * Q @.#.>.7.8.t.k.N.N.C.S.F.S.$.3 i W #.t.e.y E ..O.O.....",
"/ ! ! U I E L N v p 5 + u j j B G U ..( ........~ ! U U J C j 5 ; . # I O.@.;.;.7.i.i.k.z.N.C.F.F.J.j.B 5 I } ;.{ , I ~ } ~ ~ ~ ",
"^ W W I I C N u u u , + i v v v B H Y X.X...X.......( ! J j w : . . N ....#.#.;.7.8.k.m.N.N.C.S.F.K.S...5 j C Y N * B I Q Q Q ! ",
"R I H C v j u i q , @ * g v v C C B G U ] ..1.>.&.X...I j y , % . p ..O.O.O.$.>.7.8.i.z.z.N.C.Z.S.F.J.7.j < e i 4 . a V C H E E ",
"S v v j p u u 5 ; @ + # i v v Z K Z Z H I U ......~ B j u < , $ 3 W } ..O.@.#.>.8.8.c.k.m.N.N.Z.S.F.L.d.! & , , 3 * 4 v l l B H ",
"f i u u u < ; . . @ # X & p v n C I I H I I I U Y J v e < < % % Z ~ ~ } O.O.$.$.3.8.8.m.m.m.N.Z.D.F.G.Z.#.5 @ j E ..u 4 i j p k ",
"d y q < , % $ @ , y y 5 * * i n v n K I I I H I ~ C q 4 4 < @ k Q Q ~ ..O.O.#.$.7.8.8.m.k.m.B.N.V.Z.Z.Z.1.C , B E ..@.y < u p p ",
"5 > , % % @ # 5 i u p N v u * q C m c n b Y I I H 9 , 0 4 + u Y W Q ! ~ E ! #.#.1.8.8.8.8.k.m.m.M.Z.Z.F.8.} 5 i E ~ $.{ , , 4 5 ",
"- $ @ + X X * j u u j B B C B 5 4 v C n v c n L m 0 0 0 % 3 Z H I W Q ~ ......@.&.1.4.8.y.s.u.k.m.M.B.C.#.! j 5 C E ..;.N % % ; ",
"= @ 3 j v 1 # l v N Z H Z I J I v 5 q m K x a n n i i % # N Z Z H I U ~ ! } ....@.#.&.1.2.7.8.c.c.k.m.N...~ I 5 j V L Q I , @ . ",
"d E #.y.0.} 5 3 C Z E E Q ! ! ! ! I u 5 i n n a a u * . p C C C I I I ! ! } ~ ....#.#.&.1.2.7.e.8.k.z.5...~ Q < y j B N a u @ & ",
"+.9.d.d.i.w.O.5 0 Z Q @.#.#.#.#.....~ B 5 , i i 5 #   y N N N C v H I I U ! ! ~ ....@.#.#.&.7.5.4.1...} O.Q ! 0 : 5 u w 8 3 u E ",
"&.4.7.1._ 2.k...5 u I ..1.w.y.1.1.1.#...Y j @ 3 B O.p 3 B v N v i C H I I I ! ! ! ( ....@.#.#...~ ! ~ <.o.E ! p @ % % , u B ~ $.",
"%.1.2.7.#.5.m.s.} 4 a I #.8.d.#.y.s.5.@.! v * H $.,.! 3 v v N N B C Z H I I Y U Q ! ~ } ..! I ! ! ....! ..! C i @ @ , g L ~ ..+.",
"` &.#.1.5.8.y.i.8.I < v I >.7.....! K n i 4 5 Z E ~ ~ u i k v N N C C C H H I I I I I I I I ! Q I I B C I L v w + 1 v I U ! ~ ..",
"` X.#.$.>.>.5.8.5.#.j < n K ;.K a a a e 8 & o 5 N Z Z u u v j v v N v C B Z Z C H C I C j v C v x x a a a i i , @ u v C I U ! ..",
"^ ....#.#.#.$...#.#. .* u n P n n a w < , y j u 3 u j u 0 j j j j v v C C C C B C v v x w i g x g a i a i a w + , p i v Z I I ! ",
"R ! ( ......} ....@.O.i + 5 w w 5 5 i C O.9.z.z.$.N , 3 , j j u y j j v g g i i w i i i i i i g i i i w 0 3 # + 3 u 0 p B C H I ",
"R I I ! Q ~ ~ } } o.} v + X , 5 j Z ! O.$.>.0.z.F.F.~ 3   5 u 5 4 w 8 w 4 w 9 e u u i e e i w q q 4 , & # * @ o , u 4 p v C C Z ",
"D C I I Q Q ~ } } ..Q g @ 5 u j N B E E } $.0.t.z.S.F.0.p @ % , < < 4 4 4 8 8 4 4 4 4 , 1 ; @ # & , 5 i j B p . . 4 y p v v B C ",
"U Z L E E E E Q ~ Q Q u # 5 4 5 j B Z E Q ..$.0.s.l.z.S.f.E @ @ & & # # = - - - 1 1 1 - = # o 1 5 q p B I E ~ u   $ 5 u i j B C ",
"z v C C Z Z E P Z L Z < , 5 3 5 j N C E E Q O.>.0.0.u.t.u.e.E * + @ # 1 - r r r r r r r 9 2 & 4 q 5 k E Q ~ } } 1 . $ , q u i j ",
"s u j j v i v p u i i , % 5 0 y p j N Z E E ! ..#.;.9.,.>.>.$.E & & 2 9 r r h M M M M h h r & 5 i v I ~ O.#.#.>.} # . $ . : , 0 ",
"* ; < < < 8 8 4 7 7 8 % . . > 4 u p N v Z Z E Q Q ..O.#.$.#.O.} r = 2 r h M G G T T T G G h & 1 u B H ~ O.$.0.0.5.j + % $ @ $ $ ",
"= % @ % % @ % + . & X X + + $ ; , 0 u a V C L E I Q Q ~ ~ } { Q y - h M G T T ) X.) ) ) T t % : 7 i a L Q  .@.;.{ P #   # @ @ # ",
"+...~ W F B j u y y 5 3 # # @ $ $ , < 4 y p p p Z I I I E Z C N 1 2 r M G U ) &.&.&.&.) h r + + * < u u a a a a a 5 3 E ;.0.;.;.",
"G.K.F.F.C.C.N.k.t.>.$...~ E C p 3 + # , < 8 8 w u i i i u 4 < < % 1 r t M G T ) X.X.X.M r - & b E } ~ y @ @ p V + 5 s.K.P.P.K.K.",
"H.K.J.F.F.S.Z.Z.z.z.s.s.9.1.#.O.! j * @ % & , < 7 < < > < ; ; # @ X + : r r M T G U M 9 > 2 X.Z.K.K.S.l.~ 3 p O., Q K.K.P.P.P.P.",
"G.F.F.S.Z.N.m.m.c.s.y.5.2.1...X.+.} C * o O + o . # * y u j V V Z B d 6 1 1 < r g c a 9 3 } f.t.l.l.f.l.f.@.p # # 0.K.P.P.K.S.F.",
"A.S.S.S.Z.V.m.k.d.s.8.2.1.$.#.+.....! Z * @ o * Z ~ O.9.0.f.f.f.u.9.2.*.` U b 6 * , 1 * Z #.$.9.0.u.t.9.9.#.~ y u z.K.K.K.S.-.f.",
"A.V.S.B.m.m.m.i.8.8.2.1.&.#.#..._ _ ! E p o # ~ f.f.f.z.n.v.N.f.%.%.w.w.-.-.+...R 3   u E ~ O.O.#.~ O.O.~ E E u Z F.J.F.F.F.w.B.",
"b.B.z.v.m.m.8.8.7.5.1.$.#.#....._ E Z H p o l 9.f.f.f.f.w.f.f.w.O...-.-.#.+...) ~ E # j Z L E Q ! V E E I E Z u O.F.D.D.S.S.V.V."
};
