/* XPM */
static char *_04d5144847a46f0cac083b5e73b098aFXLS4UxV0PeXF3eb[] = {
/* columns rows colors chars-per-pixel */
"64 63 2 1 ",
"  c None",
". c red",
/* pixels */
"                             ......                             ",
"                             ......                             ",
"                             ......                             ",
"                             ......                             ",
"                             ......                             ",
"                             ......                             ",
"                             ......                             ",
"                           ..........                           ",
"                        ................                        ",
"                     ......................                     ",
"                   ..........................                   ",
"                  ............................                  ",
"                 ..............................                 ",
"               ..................................               ",
"              ............   ......   ............              ",
"              ..........     ......     ..........              ",
"             .........       ......       .........             ",
"            .........        ......        .........            ",
"           ........          ......          ........           ",
"           ........          ......           .......           ",
"          ........           ......           ........          ",
"          .......            ......            .......          ",
"         .......                                .......         ",
"         .......                                .......         ",
"         ......                                  ......         ",
"        .......                                  .......        ",
"        .......                                  .......        ",
"        .......                                  .......        ",
"......................                    ......................",
"......................                    ......................",
"......................                    ......................",
"......................                    ......................",
"......................                    ......................",
"......................                    ......................",
"        .......                                  .......        ",
"        .......                                  .......        ",
"        .......                                  .......        ",
"         ......                                  ......         ",
"         .......                                .......         ",
"         .......                                .......         ",
"          .......                              .......          ",
"          .......            ......            .......          ",
"           .......           ......           .......           ",
"           ........          ......          ........           ",
"            ........         ......         ........            ",
"            .........        ......        .........            ",
"             ..........      ......      ..........             ",
"              ...........    ......    ...........              ",
"               ..................................               ",
"                ................................                ",
"                 ..............................                 ",
"                   ..........................                   ",
"                     ......................                     ",
"                       ..................                       ",
"                          ............                          ",
"                             ......                             ",
"                             ......                             ",
"                             ......                             ",
"                             ......                             ",
"                             ......                             ",
"                             ......                             ",
"                             ......                             ",
"                             ......                             "
};
